<svg width="16" height="16" viewBox="0 0 16 16" fill="none" xmlns="http://www.w3.org/2000/svg">
<path fill-rule="evenodd" clip-rule="evenodd" d="M8 2.07692C4.72878 2.07692 2.07692 4.72878 2.07692 8C2.07692 11.2713 4.72878 13.9231 8 13.9231C11.2713 13.9231 13.9231 11.2713 13.9231 8C13.9231 4.72878 11.2713 2.07692 8 2.07692ZM1 8C1 4.13401 4.13401 1 8 1C11.866 1 15 4.13401 15 8C15 11.866 11.866 15 8 15C4.13401 15 1 11.866 1 8ZM8 3.87179C8.29738 3.87179 8.53846 4.11287 8.53846 4.41026V4.41743C8.53846 4.71481 8.29738 4.95589 8 4.95589C7.70262 4.95589 7.46154 4.71481 7.46154 4.41743V4.41026C7.46154 4.11287 7.70262 3.87179 8 3.87179ZM8 6.02564C8.29738 6.02564 8.53846 6.26672 8.53846 6.5641V11.5897C8.53846 11.8871 8.29738 12.1282 8 12.1282C7.70262 12.1282 7.46154 11.8871 7.46154 11.5897V6.5641C7.46154 6.26672 7.70262 6.02564 8 6.02564Z" fill="#00B3FF" stroke="#00B3FF" stroke-width="0.4" stroke-linecap="round" stroke-linejoin="round"/>
</svg>
