<svg width="12" height="18" viewBox="0 0 12 18" fill="none" xmlns="http://www.w3.org/2000/svg">
<path d="M12 6.24258C12 2.8447 9.30828 0.0800781 6 0.0800781C2.69172 0.0800781 0 2.8447 0 6.24258C0 9.3766 2.28966 11.9719 5.24138 12.3558V13.4676H3.24138V15.0259H5.24138V17.0801H6.75862V15.0259H8.75862V13.4676H6.75862V12.3558C9.71034 11.9719 12 9.3766 12 6.24258ZM1.51724 6.24258C1.51724 3.70391 3.52828 1.63841 6 1.63841C8.47172 1.63841 10.4828 3.70391 10.4828 6.24258C10.4828 8.78124 8.47172 10.8467 6 10.8467C3.52828 10.8467 1.51724 8.78124 1.51724 6.24258Z" fill="#00B2FF"/>
</svg>
