<svg width="328" height="40" viewBox="0 0 328 40" fill="none" xmlns="http://www.w3.org/2000/svg">
<rect width="68" height="39" rx="5.84184" fill="#D9D9D9"/>
<path d="M42.3947 11C38.1832 11 35.2248 13.239 35.1987 16.4405C35.1721 18.8122 37.3144 20.1347 38.9256 20.9229C40.588 21.7288 41.1432 22.2466 41.1378 22.9676C41.1212 24.0726 39.8076 24.5761 38.5869 24.5761C36.8851 24.5761 35.9778 24.3275 34.5832 23.7142L34.0303 23.4514L33.4347 27.1413C34.4304 27.6005 36.2691 27.9983 38.1806 28.0191C42.6497 28.0191 45.5575 25.8059 45.5921 22.3884C45.6097 20.5073 44.4726 19.0837 42.0139 17.9082C40.5297 17.144 39.612 16.6372 39.6257 15.8628C39.6268 15.1786 40.3958 14.4453 42.065 14.4453C43.4591 14.4218 44.4617 14.7418 45.2511 15.0789L45.6308 15.2683L46.21 11.6939C45.3688 11.3616 44.0412 11.0001 42.3945 11.0001L42.3947 11ZM29.1737 11.2876L26.51 27.7754H30.7659L33.4311 11.2874H29.1743L29.1737 11.2876ZM22.9388 11.3036L18.7714 22.5405L18.3272 20.2572C17.2893 17.4574 15.0427 14.5205 12.4263 13.3302L16.2384 27.7596L20.7449 27.7575L27.4464 11.3037L22.9388 11.3036ZM53.8403 11.3046C52.8206 11.3046 52.0564 11.5953 51.6064 12.6731L45.2865 27.7808H49.7579C49.7579 27.7808 50.489 25.7472 50.6543 25.302C51.1423 25.302 55.4851 25.3114 56.1048 25.3114C56.2365 25.8863 56.6231 27.7806 56.6231 27.7806H60.5767L57.1294 11.3046L53.8403 11.3046ZM54.1411 15.7497L54.4248 17.1711C54.4248 17.1711 55.2429 21.1051 55.4135 21.9291H51.8793C52.2329 20.9829 53.5753 17.3204 53.5753 17.3204C53.5491 17.3652 53.9245 16.3668 54.1411 15.7497Z" fill="#0023A0"/>
<path d="M14.9064 11.295H8.04L8 11.5787C13.3385 12.944 16.8605 16.2968 18.327 20.2616L16.8348 12.6837C16.5783 11.6416 15.8312 11.3318 14.9064 11.295Z" fill="#FFAB00"/>
<rect x="80" width="56" height="39" rx="5.84184" fill="#FFC978"/>
<path fill-rule="evenodd" clip-rule="evenodd" d="M104.013 26.6652H112.178V11.9949H104.013V26.6652Z" fill="#FF5F00"/>
<path fill-rule="evenodd" clip-rule="evenodd" d="M104.532 19.33C104.532 16.3541 105.925 13.7029 108.095 11.9949C106.453 10.6997 104.421 9.99682 102.33 10C97.1766 10 93 14.1775 93 19.33C93 24.483 97.1766 28.66 102.33 28.66C104.506 28.66 106.508 27.9149 108.095 26.6652C105.925 24.9567 104.532 22.3059 104.532 19.33Z" fill="#EB001B"/>
<path fill-rule="evenodd" clip-rule="evenodd" d="M123.191 19.33C123.191 24.483 119.014 28.66 113.861 28.66C111.769 28.6633 109.738 27.9604 108.095 26.6652C110.265 24.9572 111.659 22.3064 111.659 19.33C111.659 16.3541 110.265 13.7033 108.095 11.9949C109.738 10.6996 111.769 9.99675 113.861 10C119.014 10 123.191 14.177 123.191 19.33Z" fill="#F79E1B"/>
<rect x="148" width="79" height="40" rx="5.84184" fill="#006FCF" fill-opacity="0.2"/>
<path d="M217.142 23.5861H215.298C214.914 23.5861 214.595 23.3354 214.595 23.0188C214.595 22.6362 214.914 22.4515 215.298 22.4515H218.668L219.437 20.7496H215.298C213.574 20.7496 212.632 21.7655 212.632 23.0848C212.632 24.4832 213.587 25.3012 215.046 25.3012H216.89C217.275 25.3012 217.593 25.5519 217.593 25.8685C217.593 26.1851 217.341 26.4358 216.89 26.4358H212.818V28.1509H216.89C218.615 28.1509 219.557 27.135 219.557 25.7498C219.57 24.3513 218.681 23.5861 217.142 23.5861ZM209.7 23.5861H207.856C207.471 23.5861 207.153 23.3354 207.153 23.0188C207.153 22.6362 207.471 22.4515 207.856 22.4515H211.226L211.995 20.7496H207.856C206.132 20.7496 205.19 21.7655 205.19 23.0848C205.19 24.4832 206.145 25.3012 207.604 25.3012H209.448C209.833 25.3012 210.151 25.5519 210.151 25.8685C210.151 26.1851 209.899 26.4358 209.448 26.4358H205.375V28.1509H209.448C211.173 28.1509 212.114 27.135 212.114 25.7498C212.181 24.3513 211.292 23.5861 209.7 23.5861ZM197.933 28.2168H204.301V26.5149H199.976V25.3144H204.235V23.5861H199.976V22.3855H204.301V20.6705H197.933V28.2168ZM193.98 23.9027H191.884V22.3855H193.98C194.551 22.3855 194.869 22.7681 194.869 23.1507C194.882 23.5861 194.564 23.9027 193.98 23.9027ZM196.912 23.0848C196.912 21.6335 195.89 20.6836 194.245 20.6836H189.854V28.2168H191.884V25.6178H192.653L194.948 28.2168H197.363L194.882 25.4991C196.156 25.1693 196.912 24.2853 196.912 23.0848ZM186.034 24.0347H183.872V22.3855H186.034C186.604 22.3855 186.923 22.7681 186.923 23.2035C186.923 23.6521 186.671 24.0347 186.034 24.0347ZM186.286 20.6836H181.895V28.2168H183.925V25.7498H186.273C187.997 25.7498 189.005 24.6679 189.005 23.2167C188.966 21.6995 187.944 20.6836 186.286 20.6836ZM181.51 20.6836H178.897L176.987 22.966L175.01 20.6836H172.344L175.713 24.4173L172.277 28.2168H174.891L176.92 25.8157L178.95 28.2168H181.616L178.18 24.3513L181.51 20.6836ZM165.671 28.2168H172.038V26.5149H167.647V25.3144H171.906V23.5861H167.647V22.3855H172.038V20.6705H165.671V28.2168ZM216.386 15.6175L213.269 11.066H210.722V18.5332H212.751V13.7837L215.935 18.5332H218.349V11.066H216.373V15.6175H216.386ZM204.672 15.3669L205.76 12.8338L206.848 15.3669H204.672ZM204.42 11.066L201.117 18.5992H203.346L203.983 17.082H207.471L208.108 18.5992H210.403L207.034 11.066H204.42ZM197.801 14.8655V14.7336C197.801 13.599 198.437 12.8338 199.711 12.8338H201.94V11H199.525C197.044 11 195.771 12.5832 195.771 14.6676V14.7996C195.771 17.1347 197.23 18.4672 199.459 18.4672H200.162L200.984 16.7521H199.777C198.57 16.8181 197.801 16.1321 197.801 14.8655ZM192.72 18.5332H194.749V11.066H192.72V18.5332ZM188.767 14.2323H186.671V12.7019H188.767C189.337 12.7019 189.655 13.0845 189.655 13.4671C189.655 13.9156 189.337 14.2323 188.767 14.2323ZM191.698 13.4671C191.698 12.0159 190.677 11.066 189.032 11.066H184.641V18.5992H186.671V15.9342H187.44L189.735 18.5332H192.216L189.669 15.8154C190.929 15.5516 191.698 14.6017 191.698 13.4671ZM176.933 18.5332H183.301V16.8181H178.976V15.6175H183.182V13.9025H178.976V12.7019H183.301V11.066H176.933V18.5332ZM170.513 15.7495L168.788 11.066H165.671V18.5332H167.647V13.1505L169.624 18.5332H171.402L173.378 13.1505V18.5332H175.421V11.066H172.237L170.513 15.7495ZM159.569 15.3669L160.643 12.8338L161.731 15.3669H159.569ZM159.303 11.066L156 18.5332H158.229L158.865 17.016H162.368L163.004 18.5332H165.286L161.917 11.066H159.303Z" fill="#006FCF"/>
<rect x="239" width="89" height="40" rx="5.84184" fill="#6772E5" fill-opacity="0.2"/>
<path d="M255.56 16.5801C255.56 15.8772 256.137 15.6068 257.092 15.6068C258.462 15.6068 260.192 16.0214 261.562 16.7603V12.5247C260.066 11.9299 258.588 11.6956 257.092 11.6956C253.433 11.6956 251 13.6061 251 16.7964C251 21.771 257.849 20.978 257.849 23.1228C257.849 23.9519 257.128 24.2223 256.119 24.2223C254.623 24.2223 252.712 23.6095 251.198 22.7804V27.0701C252.874 27.7911 254.569 28.0975 256.119 28.0975C259.868 28.0975 262.445 26.241 262.445 23.0147C262.427 17.6435 255.56 18.5988 255.56 16.5801ZM267.744 8.09079L263.346 9.02804L263.328 23.4653C263.328 26.1328 265.329 28.0975 267.997 28.0975C269.475 28.0975 270.556 27.8271 271.151 27.5027V23.8438C270.574 24.0781 267.726 24.9072 267.726 22.2397V15.8411H271.151V12.002H267.726L267.744 8.09079ZM276.756 13.3358L276.468 12.002H272.575V27.773H277.081V17.0848C278.144 15.6969 279.947 15.9493 280.505 16.1475V12.002C279.929 11.7857 277.82 11.3892 276.756 13.3358ZM281.605 12.002H286.129V27.773H281.605V12.002ZM281.605 10.6322L286.129 9.65888V6L281.605 6.95527V10.6322ZM295.537 11.6956C293.771 11.6956 292.636 12.5247 292.005 13.1015L291.77 11.984H287.805V33L292.311 32.0447L292.329 26.9439C292.978 27.4125 293.933 28.0794 295.519 28.0794C298.746 28.0794 301.684 25.484 301.684 19.7704C301.666 14.5434 298.692 11.6956 295.537 11.6956ZM294.456 24.1142C293.393 24.1142 292.762 23.7356 292.329 23.267L292.311 16.5801C292.78 16.0574 293.429 15.6969 294.456 15.6969C296.096 15.6969 297.232 17.5354 297.232 19.8965C297.232 22.3117 296.114 24.1142 294.456 24.1142ZM315.887 19.9506C315.887 15.3364 313.652 11.6956 309.38 11.6956C305.09 11.6956 302.495 15.3364 302.495 19.9146C302.495 25.3398 305.559 28.0794 309.957 28.0794C312.101 28.0794 313.724 27.5928 314.949 26.9079V23.3031C313.724 23.9159 312.318 24.2944 310.533 24.2944C308.785 24.2944 307.235 23.6816 307.037 21.5547H315.85C315.85 21.3204 315.887 20.3832 315.887 19.9506ZM306.983 18.2383C306.983 16.2016 308.226 15.3545 309.362 15.3545C310.461 15.3545 311.633 16.2016 311.633 18.2383H306.983Z" fill="#6772E5"/>
</svg>
