<svg width="50" height="50" viewBox="0 0 189 188" fill="none" xmlns="http://www.w3.org/2000/svg">
<path d="M120.6 60.4636C120.52 62.9434 120.787 66.0364 120.467 69.0761C119.667 77.0487 115.934 83.3415 109.428 87.9544C107.081 89.6342 104.495 90.8074 101.695 91.554C101.268 91.6607 101.162 91.8473 101.162 92.274C101.188 96.7002 101.162 101.1 101.162 105.526C101.162 109.152 98.4154 112.005 94.8957 112.005C91.216 112.005 88.3896 109.232 88.363 105.553C88.363 101.153 88.3363 96.7535 88.363 92.354C88.363 91.8207 88.203 91.6607 87.723 91.5007C77.5907 88.2743 71.4579 81.4483 69.2981 71.0226C69.0048 69.6094 68.9248 68.1696 68.9248 66.7297C68.9248 61.8768 68.9248 56.9973 68.9248 52.1444C68.9248 49.0514 70.7913 46.5716 73.6177 45.7717C77.804 44.6251 81.7503 47.6915 81.7503 52.1711C81.7769 57.0506 81.7503 61.9302 81.7503 66.8364C81.7503 73.5291 87.1098 79.2352 93.8025 79.6618C101.482 80.1418 107.748 74.249 107.748 66.5164C107.748 61.6635 107.748 56.8373 107.748 51.9844C107.748 48.4114 110.601 45.5317 114.147 45.5317C117.694 45.5317 120.52 48.4114 120.52 52.0111C120.6 54.6508 120.6 57.2639 120.6 60.4636Z" fill="#2B3D4F"/>
<path d="M101.269 3.21573C101.269 1.29591 102.895 -0.170621 104.815 0.0160277C112.308 0.815953 119.613 2.49579 126.706 5.02889C135.985 8.36191 144.571 13.0548 152.41 19.0809C163.236 27.4001 171.822 37.6125 178.248 49.638C182.914 58.3839 186.087 67.663 187.847 77.4221C188.167 79.1553 188.354 80.8884 188.62 82.6216C188.86 84.2748 187.634 85.9546 186.034 86.1679C184.141 86.4346 182.541 85.288 182.301 83.5015C181.821 79.5819 181.101 75.7156 180.088 71.9026C176.995 60.1171 171.689 49.4247 164.143 39.8789C153.69 26.6269 140.545 17.0278 124.68 11.1616C118.787 8.97519 112.681 7.53532 106.468 6.6554C105.668 6.54875 104.842 6.46875 104.015 6.3621C102.415 6.17545 101.269 4.84224 101.269 3.21573Z" fill="#47A7DD"/>
<path d="M104.575 187.998C102.895 188.052 101.455 186.852 101.295 185.252C101.109 183.465 102.175 181.919 103.935 181.706C106.868 181.306 109.828 180.906 112.734 180.292C124.413 177.839 135.159 173.173 144.944 166.347C157.397 157.628 167.049 146.456 173.848 132.857C177.901 124.724 180.621 116.165 181.928 107.179C182.061 106.299 182.168 105.419 182.301 104.54C182.541 102.833 184.114 101.607 185.794 101.793C187.554 102.006 188.807 103.553 188.62 105.286C187.447 115.419 184.621 125.098 180.274 134.323C175.342 144.749 168.756 154.002 160.436 162.001C149.451 172.56 136.652 180.026 122.093 184.479C116.6 186.159 110.974 187.278 105.242 187.945C105.028 187.972 104.815 187.972 104.575 187.998Z" fill="#2B3D4F"/>
<path d="M0.957928 82.8083C1.17124 80.7552 1.51788 78.5954 1.91784 76.4356C3.54435 67.7697 6.34409 59.4772 10.2904 51.5846C14.3167 43.5853 19.3562 36.306 25.4356 29.72C33.1949 21.3474 42.1807 14.6014 52.3931 9.48186C61.1123 5.10893 70.3114 2.20254 79.9372 0.656021C80.5771 0.549364 81.217 0.469372 81.857 0.389379C83.8035 0.122738 85.4033 1.2693 85.67 3.13579C85.9099 4.92229 84.6567 6.49547 82.7369 6.73545C79.1639 7.2154 75.6176 7.93534 72.1246 8.84192C59.9124 12.0683 48.9001 17.6678 39.141 25.6403C25.7023 36.6526 16.3165 50.438 10.9303 66.9431C9.19715 72.276 7.99727 77.7688 7.35733 83.3416C7.14401 85.0747 5.73081 86.328 4.05097 86.2213C2.21114 86.1146 0.931264 84.7548 0.957928 82.8083Z" fill="#F2B917"/>
<path d="M0.958008 105.126C0.958008 103.313 2.26455 101.9 3.97106 101.793C5.67756 101.686 7.14409 102.913 7.33074 104.646C8.53063 114.699 11.3837 124.244 15.8633 133.31C19.3296 140.296 23.6492 146.696 28.8221 152.508C36.4747 161.147 45.4872 168.027 55.8595 173.12C63.6188 176.933 71.778 179.546 80.3372 180.959C81.1638 181.092 81.9904 181.252 82.8436 181.332C84.6301 181.546 85.91 183.119 85.7234 184.852C85.5367 186.638 83.9102 187.918 82.097 187.678C72.0447 186.292 62.4456 183.439 53.3264 178.986C44.5006 174.666 36.528 169.147 29.462 162.347C15.7033 149.095 6.74413 133.177 2.55786 114.565C1.89125 111.552 1.38463 108.512 0.984672 105.473C0.958008 105.313 0.958008 105.153 0.958008 105.126Z" fill="#3F78B9"/>
<path d="M92.5226 120.618C92.5226 120.058 92.5226 119.498 92.5226 118.965C92.5226 118.672 92.6026 118.565 92.8959 118.565C93.9092 118.565 94.9491 118.565 95.9623 118.565C96.2556 118.565 96.3623 118.672 96.3356 118.965C96.3356 120.085 96.309 121.231 96.3356 122.351C96.3356 122.698 96.1756 122.751 95.8823 122.751C94.8958 122.751 93.9358 122.724 92.9493 122.751C92.6026 122.751 92.4693 122.644 92.496 122.298C92.5226 121.738 92.5226 121.178 92.5226 120.618Z" fill="#2B3D4F"/>
<path d="M68.045 119.365C64.952 119.231 61.8323 119.338 58.7125 119.285C58.1259 119.285 58.0193 119.471 58.0459 120.005C58.0726 123.818 58.0459 127.631 58.0459 131.47C58.0459 135.31 58.0459 139.15 58.0459 142.989C58.0459 143.469 58.1259 143.656 58.6592 143.629C59.4058 143.576 60.1791 143.629 60.9257 143.603C63.5388 143.549 66.1785 143.816 68.7649 143.469C72.5512 142.963 75.431 141.096 77.1908 137.63C78.5773 134.883 78.764 131.977 78.364 128.991C77.6441 123.578 73.4845 119.605 68.045 119.365ZM72.9779 137.123C71.458 139.336 69.2182 140.19 66.6051 140.19C65.2453 140.19 63.8854 140.163 62.5522 140.19C62.0722 140.19 61.9122 140.083 61.9122 139.576C61.9389 136.856 61.9122 134.11 61.9122 131.39C61.9122 128.671 61.9122 125.978 61.9122 123.258C61.9122 122.804 61.9922 122.644 62.4989 122.671C64.2587 122.724 66.0185 122.538 67.7517 122.778C71.218 123.231 73.4845 125.231 74.2844 128.671C74.9777 131.63 74.7644 134.537 72.9779 137.123Z" fill="#2B3D4F"/>
<path d="M134.012 132.617C133.052 128.111 129.586 125.364 124.92 125.364C121.08 125.364 117.907 127.471 116.467 130.937C115.001 134.457 115.72 138.67 118.307 141.256C120.92 143.869 124.093 144.456 127.586 143.656C129.852 143.149 131.666 141.87 132.866 139.816C133.052 139.47 133.079 139.31 132.626 139.176C131.799 138.99 130.999 138.75 130.199 138.483C129.932 138.403 129.826 138.457 129.692 138.696C128.466 140.616 126.279 141.496 124.066 141.043C121.933 140.59 120.173 138.643 119.853 136.483C119.773 136.03 119.88 135.87 120.387 135.897C122.573 135.923 124.786 135.897 126.973 135.897C129.186 135.897 131.399 135.897 133.639 135.897C134.039 135.897 134.172 135.79 134.225 135.39C134.225 134.484 134.199 133.55 134.012 132.617ZM129.772 133.31C128.173 133.257 126.573 133.284 124.973 133.284C123.373 133.284 121.773 133.257 120.173 133.284C119.64 133.284 119.587 133.097 119.667 132.67C120.147 130.031 122.307 128.191 124.92 128.164C127.559 128.137 129.799 129.977 130.306 132.59C130.412 133.07 130.386 133.31 129.772 133.31Z" fill="#2B3D4F"/>
<path d="M115.054 125.684C114.254 125.711 113.454 125.738 112.654 125.684C112.041 125.631 111.828 125.898 111.641 126.431C110.041 131.017 108.441 135.63 106.761 140.376C106.628 139.976 106.548 139.736 106.468 139.523C104.921 135.097 103.375 130.67 101.855 126.218C101.722 125.844 101.588 125.684 101.162 125.684C100.202 125.711 99.242 125.711 98.3088 125.684C97.7755 125.658 97.7755 125.844 97.9355 126.271C98.3888 127.417 98.8421 128.591 99.2687 129.737C100.975 134.19 102.655 138.616 104.362 143.069C104.468 143.336 104.495 143.656 104.948 143.629C106.068 143.603 107.161 143.603 108.281 143.629C108.574 143.629 108.708 143.523 108.814 143.256C111.001 137.55 113.161 131.844 115.347 126.138C115.507 125.791 115.48 125.658 115.054 125.684Z" fill="#2B3D4F"/>
<path d="M91.0295 125.871C91.0295 125.578 90.9229 125.498 90.6296 125.498C89.3497 125.444 88.1765 125.738 87.1099 126.484C86.0433 127.258 85.2434 128.244 84.4702 129.337C84.4702 128.271 84.4435 127.231 84.4702 126.164C84.4702 125.791 84.3635 125.658 83.9902 125.658C83.137 125.684 82.257 125.684 81.4038 125.658C81.0305 125.658 80.9238 125.764 80.9238 126.138C80.9238 131.79 80.9238 137.47 80.9238 143.123C80.9238 143.469 81.0038 143.576 81.3771 143.576C82.2837 143.549 83.1903 143.549 84.0969 143.576C84.6035 143.603 84.7635 143.469 84.7635 142.936C84.7368 139.923 84.8168 136.883 84.7101 133.87C84.6568 132.324 85.3501 131.284 86.4433 130.431C87.6432 129.471 89.0831 129.097 90.5763 128.937C90.8429 128.911 91.0295 128.937 91.0295 128.564C91.0029 127.711 91.0295 126.778 91.0295 125.871Z" fill="#2B3D4F"/>
<path d="M96.3357 134.617C96.3357 131.817 96.3357 129.017 96.3357 126.244C96.3357 125.871 96.2824 125.684 95.8291 125.684C94.8692 125.711 93.9093 125.711 92.9761 125.684C92.5761 125.684 92.4961 125.818 92.4961 126.191C92.4961 131.844 92.4961 137.497 92.4961 143.149C92.4961 143.549 92.6294 143.629 93.0027 143.629C93.9093 143.603 94.8159 143.576 95.7225 143.629C96.2291 143.656 96.3357 143.496 96.3357 142.989C96.3357 140.19 96.3357 137.39 96.3357 134.617Z" fill="#2B3D4F"/>
</svg>
