<svg width="10" height="6" viewBox="0 0 10 6" fill="none" xmlns="http://www.w3.org/2000/svg">
<path d="M9.79756 1.16786L4.99792 6L0.198273 1.16786C0.0678842 1.03615 -0.00339187 0.859447 0.000124174 0.67661C0.00364022 0.493773 0.0816604 0.319784 0.217021 0.192917C0.352382 0.066051 0.533996 -0.00329971 0.721909 0.000121593C0.909822 0.00354242 1.08864 0.0794554 1.21903 0.21116L4.99792 4.01769L8.78097 0.21116C8.91136 0.0794554 9.09018 0.00354242 9.27809 0.000121593C9.466 -0.00329971 9.64762 0.066051 9.78298 0.192917C9.91834 0.319784 9.99636 0.493773 9.99988 0.67661C10.0034 0.859447 9.93212 1.03615 9.80173 1.16786H9.79756Z" fill="white"/>
</svg>
