<svg width="27" height="25" viewBox="0 0 27 25" fill="none" xmlns="http://www.w3.org/2000/svg">
<path fill-rule="evenodd" clip-rule="evenodd" d="M22 12.438C22 12.7198 21.8881 12.99 21.6888 13.1892C21.4896 13.3885 21.2194 13.5004 20.9376 13.5004H8.62887L13.1907 18.0601C13.2895 18.1589 13.3679 18.2762 13.4213 18.4052C13.4748 18.5343 13.5023 18.6726 13.5023 18.8123C13.5023 18.952 13.4748 19.0903 13.4213 19.2194C13.3679 19.3484 13.2895 19.4657 13.1907 19.5645C13.092 19.6632 12.9747 19.7416 12.8456 19.7951C12.7166 19.8485 12.5783 19.876 12.4386 19.876C12.2989 19.876 12.1606 19.8485 12.0315 19.7951C11.9024 19.7416 11.7852 19.6632 11.6864 19.5645L5.31211 13.1902C5.21318 13.0915 5.13468 12.9743 5.08113 12.8452C5.02757 12.7161 5 12.5778 5 12.438C5 12.2983 5.02757 12.1599 5.08113 12.0308C5.13468 11.9018 5.21318 11.7845 5.31211 11.6858L11.6864 5.31156C11.8859 5.11207 12.1565 5 12.4386 5C12.7207 5 12.9912 5.11207 13.1907 5.31156C13.3902 5.51104 13.5023 5.78161 13.5023 6.06372C13.5023 6.34584 13.3902 6.6164 13.1907 6.81589L8.62887 11.3756H20.9376C21.2194 11.3756 21.4896 11.4876 21.6888 11.6868C21.8881 11.886 22 12.1563 22 12.438Z" fill="white"/>
</svg>
