<svg width="26" height="34" viewBox="0 0 26 34" fill="none" xmlns="http://www.w3.org/2000/svg">
<path d="M25.2336 21.1499L23.5669 18.3833C23.2169 17.7666 22.9002 16.5999 22.9002 15.9166V11.6999C22.8982 9.84 22.3697 8.01863 21.3757 6.44656C20.3817 4.87449 18.963 3.61597 17.2836 2.81661C16.8549 2.05551 16.2297 1.42351 15.4733 0.986666C14.7169 0.54982 13.857 0.324161 12.9836 0.333273C11.1669 0.333273 9.53356 1.31661 8.6669 2.86661C5.4169 4.48327 3.1669 7.83327 3.1669 11.6999V15.9166C3.1669 16.5999 2.85023 17.7666 2.50023 18.3666L0.816897 21.1499C0.15023 22.2666 0.000230044 23.4999 0.416897 24.6333C0.816897 25.7499 1.7669 26.6166 3.00023 27.0333C6.23356 28.1333 9.63356 28.6666 13.0336 28.6666C16.4336 28.6666 19.8336 28.1333 23.0669 27.0499C24.2336 26.6666 25.1336 25.7833 25.5669 24.6333C26.0002 23.4833 25.8836 22.2166 25.2336 21.1499ZM17.7169 30.3499C17.3664 31.3202 16.7257 32.159 15.8818 32.7524C15.038 33.3458 14.0318 33.665 13.0002 33.6666C11.6836 33.6666 10.3836 33.1333 9.4669 32.1833C8.93356 31.6833 8.53356 31.0166 8.30023 30.3333C8.5169 30.3666 8.73356 30.3833 8.9669 30.4166C9.35023 30.4666 9.75023 30.5166 10.1502 30.5499C11.1002 30.6333 12.0669 30.6833 13.0336 30.6833C13.9836 30.6833 14.9336 30.6333 15.8669 30.5499C16.2169 30.5166 16.5669 30.4999 16.9002 30.4499L17.7169 30.3499Z" fill="#AAAAAA"/>
</svg>
