<svg width="60" height="61" viewBox="0 0 60 61" fill="none" xmlns="http://www.w3.org/2000/svg">
<g filter="url(#filter0_d_1279_3040)">
<rect x="10" y="10.5" width="40" height="40" rx="10" fill="white" shape-rendering="crispEdges"/>
<path d="M39 25.5V35.5C39 38.5 37.5 40.5 34 40.5H26C22.5 40.5 21 38.5 21 35.5V25.5C21 22.5 22.5 20.5 26 20.5H34C37.5 20.5 39 22.5 39 25.5Z" stroke="black" stroke-width="1.5" stroke-miterlimit="10" stroke-linecap="round" stroke-linejoin="round"/>
<path d="M31.25 32.5H35.5M27 36.5H35.5M33.5 20.5V28.36C33.5 28.8 32.98 29.02 32.66 28.73L30.34 26.59C30.248 26.5034 30.1264 26.4551 30 26.4551C29.8736 26.4551 29.752 26.5034 29.66 26.59L27.34 28.73C27.02 29.02 26.5 28.8 26.5 28.36V20.5H33.5Z" stroke="black" stroke-width="1.5" stroke-miterlimit="10" stroke-linecap="round" stroke-linejoin="round"/>
</g>
<defs>
<filter id="filter0_d_1279_3040" x="0" y="0.5" width="60" height="60" filterUnits="userSpaceOnUse" color-interpolation-filters="sRGB">
<feFlood flood-opacity="0" result="BackgroundImageFix"/>
<feColorMatrix in="SourceAlpha" type="matrix" values="0 0 0 0 0 0 0 0 0 0 0 0 0 0 0 0 0 0 127 0" result="hardAlpha"/>
<feOffset/>
<feGaussianBlur stdDeviation="5"/>
<feComposite in2="hardAlpha" operator="out"/>
<feColorMatrix type="matrix" values="0 0 0 0 0 0 0 0 0 0 0 0 0 0 0 0 0 0 0.25 0"/>
<feBlend mode="normal" in2="BackgroundImageFix" result="effect1_dropShadow_1279_3040"/>
<feBlend mode="normal" in="SourceGraphic" in2="effect1_dropShadow_1279_3040" result="shape"/>
</filter>
</defs>
</svg>
