<svg width="20" height="23" viewBox="0 0 20 23" fill="none" xmlns="http://www.w3.org/2000/svg">
<path d="M19 6.5V16.5C19 19.5 17.5 21.5 14 21.5H6C2.5 21.5 1 19.5 1 16.5V6.5C1 3.5 2.5 1.5 6 1.5H14C17.5 1.5 19 3.5 19 6.5Z" stroke="black" stroke-width="1.5" stroke-miterlimit="10" stroke-linecap="round" stroke-linejoin="round"/>
<path d="M11.25 13.5H15.5M7 17.5H15.5M13.5 1.5V9.36C13.5 9.8 12.98 10.02 12.66 9.73L10.34 7.59C10.248 7.50337 10.1264 7.45513 10 7.45513C9.87362 7.45513 9.75201 7.50337 9.66 7.59L7.34 9.73C7.02 10.02 6.5 9.8 6.5 9.36V1.5H13.5Z" stroke="black" stroke-width="1.5" stroke-miterlimit="10" stroke-linecap="round" stroke-linejoin="round"/>
</svg>
