<svg width="10" height="10" viewBox="0 0 10 10" fill="none" xmlns="http://www.w3.org/2000/svg">
<path fill-rule="evenodd" clip-rule="evenodd" d="M1 5C1 2.65358 2.90358 0.75 5.25 0.75C7.59642 0.75 9.5 2.65358 9.5 5C9.5 7.34642 7.59642 9.25 5.25 9.25C2.90358 9.25 1 7.34642 1 5ZM5.25 1.40385C3.26469 1.40385 1.65385 3.01469 1.65385 5C1.65385 6.98531 3.26469 8.59615 5.25 8.59615C7.23531 8.59615 8.84615 6.98531 8.84615 5C8.84615 3.01469 7.23531 1.40385 5.25 1.40385Z" fill="#FF0000" stroke="#FF0000" stroke-width="0.2" stroke-miterlimit="10"/>
<path fill-rule="evenodd" clip-rule="evenodd" d="M3.71123 3.46099C3.8389 3.33332 4.0459 3.33332 4.17357 3.46099L6.78896 6.07637C6.91663 6.20404 6.91663 6.41104 6.78896 6.53871C6.66128 6.66638 6.45429 6.66638 6.32662 6.53871L3.71123 3.92333C3.58356 3.79566 3.58356 3.58866 3.71123 3.46099Z" fill="#FF0000" stroke="#FF0000" stroke-width="0.2" stroke-linecap="round" stroke-linejoin="round"/>
<path fill-rule="evenodd" clip-rule="evenodd" d="M6.78896 3.46099C6.91663 3.58866 6.91663 3.79566 6.78896 3.92333L4.17357 6.53871C4.0459 6.66638 3.8389 6.66638 3.71123 6.53871C3.58356 6.41104 3.58356 6.20404 3.71123 6.07637L6.32662 3.46099C6.45429 3.33332 6.66128 3.33332 6.78896 3.46099Z" fill="#FF0000" stroke="#FF0000" stroke-width="0.2" stroke-linecap="round" stroke-linejoin="round"/>
</svg>
