<svg width="18" height="19" viewBox="0 0 18 19" fill="none" xmlns="http://www.w3.org/2000/svg">
<path d="M9 0.5C4.041 0.5 0 4.541 0 9.5C0 14.459 4.041 18.5 9 18.5C13.959 18.5 18 14.459 18 9.5C18 4.541 13.959 0.5 9 0.5ZM12.024 11.57C12.285 11.831 12.285 12.263 12.024 12.524C11.889 12.659 11.718 12.722 11.547 12.722C11.376 12.722 11.205 12.659 11.07 12.524L9 10.454L6.93 12.524C6.795 12.659 6.624 12.722 6.453 12.722C6.282 12.722 6.111 12.659 5.976 12.524C5.85047 12.397 5.78007 12.2256 5.78007 12.047C5.78007 11.8684 5.85047 11.697 5.976 11.57L8.046 9.5L5.976 7.43C5.85047 7.30298 5.78007 7.13159 5.78007 6.953C5.78007 6.77441 5.85047 6.60302 5.976 6.476C6.237 6.215 6.669 6.215 6.93 6.476L9 8.546L11.07 6.476C11.331 6.215 11.763 6.215 12.024 6.476C12.285 6.737 12.285 7.169 12.024 7.43L9.954 9.5L12.024 11.57Z" fill="#47A8DE"/>
</svg>
