<svg width="24" height="24" viewBox="0 0 24 24" fill="none" xmlns="http://www.w3.org/2000/svg">
<path d="M21.22 0.392578H2.82002C2.21002 0.392578 1.62501 0.634899 1.19367 1.06623C0.76234 1.49757 0.52002 2.08258 0.52002 2.69258V21.0926C0.52002 21.7026 0.76234 22.2876 1.19367 22.7189C1.62501 23.1503 2.21002 23.3926 2.82002 23.3926H21.22C21.83 23.3926 22.415 23.1503 22.8464 22.7189C23.2777 22.2876 23.52 21.7026 23.52 21.0926V2.69258C23.52 2.08258 23.2777 1.49757 22.8464 1.06623C22.415 0.634899 21.83 0.392578 21.22 0.392578ZM20.76 3.15258V10.4804L18.7061 8.42648C18.2748 7.9953 17.6899 7.75307 17.08 7.75307C16.4701 7.75307 15.8852 7.9953 15.4539 8.42648L3.28002 20.6004V3.15258H20.76ZM7.15092 20.6326L17.08 10.7035L20.76 14.3835V20.6326H7.15092ZM6.04002 8.21258C6.04002 7.75768 6.17491 7.313 6.42764 6.93477C6.68037 6.55653 7.03958 6.26174 7.45985 6.08766C7.88012 5.91357 8.34257 5.86803 8.78873 5.95677C9.23488 6.04552 9.6447 6.26457 9.96636 6.58623C10.288 6.90789 10.5071 7.31771 10.5958 7.76387C10.6846 8.21003 10.639 8.67248 10.4649 9.09275C10.2909 9.51302 9.99606 9.87223 9.61783 10.125C9.2396 10.3777 8.79492 10.5126 8.34002 10.5126C7.73002 10.5126 7.14501 10.2703 6.71367 9.83892C6.28234 9.40759 6.04002 8.82258 6.04002 8.21258Z" fill="#AAAFB5"/>
</svg>
