<svg width="54" height="54" viewBox="0 0 54 54" fill="none" xmlns="http://www.w3.org/2000/svg">
<rect width="54" height="54" rx="27" fill="#47A7DD"/>
<path d="M28.9615 26.9947C28.9615 27.3827 28.8465 27.7619 28.631 28.0845C28.4154 28.4071 28.1091 28.6586 27.7506 28.8071C27.3922 28.9555 26.9978 28.9944 26.6173 28.9187C26.2368 28.843 25.8873 28.6562 25.613 28.3818C25.3387 28.1075 25.1518 27.7579 25.0762 27.3774C25.0005 26.9968 25.0393 26.6024 25.1878 26.2439C25.3362 25.8855 25.5877 25.5791 25.9102 25.3635C26.2328 25.148 26.612 25.0329 27 25.0329C27.5202 25.0329 28.0192 25.2396 28.387 25.6075C28.7549 25.9754 28.9615 26.4744 28.9615 26.9947ZM19.8077 25.0329C19.4197 25.0329 19.0405 25.148 18.7179 25.3635C18.3953 25.5791 18.1439 25.8855 17.9955 26.2439C17.847 26.6024 17.8082 26.9968 17.8838 27.3774C17.9595 27.7579 18.1463 28.1075 18.4207 28.3818C18.695 28.6562 19.0445 28.843 19.425 28.9187C19.8055 28.9944 20.1999 28.9555 20.5583 28.8071C20.9168 28.6586 21.2231 28.4071 21.4387 28.0845C21.6542 27.7619 21.7692 27.3827 21.7692 26.9947C21.7692 26.4744 21.5626 25.9754 21.1947 25.6075C20.8268 25.2396 20.3279 25.0329 19.8077 25.0329ZM34.1923 25.0329C33.8044 25.0329 33.4251 25.148 33.1025 25.3635C32.78 25.5791 32.5285 25.8855 32.3801 26.2439C32.2316 26.6024 32.1928 26.9968 32.2685 27.3774C32.3441 27.7579 32.531 28.1075 32.8053 28.3818C33.0796 28.6562 33.4291 28.843 33.8096 28.9187C34.1901 28.9944 34.5845 28.9555 34.943 28.8071C35.3014 28.6586 35.6077 28.4071 35.8233 28.0845C36.0388 27.7619 36.1538 27.3827 36.1538 26.9947C36.1538 26.4744 35.9472 25.9754 35.5793 25.6075C35.2115 25.2396 34.7125 25.0329 34.1923 25.0329ZM44 26.9947C44.0006 29.9299 43.2414 32.8154 41.7962 35.3702C40.3509 37.9249 38.269 40.062 35.7529 41.5733C33.2368 43.0846 30.3723 43.9187 27.4383 43.9943C24.5043 44.07 21.6006 43.3847 19.01 42.0051L13.4441 43.8606C12.9833 44.0143 12.4888 44.0366 12.016 43.925C11.5432 43.8134 11.1109 43.5724 10.7674 43.2288C10.4239 42.8853 10.1828 42.4529 10.0713 41.9801C9.95969 41.5072 9.98199 41.0127 10.1357 40.5518L11.991 34.9854C10.7783 32.7053 10.101 30.1788 10.0105 27.5978C9.9199 25.0168 10.4185 22.4491 11.4683 20.0896C12.5182 17.7301 14.0917 15.6407 16.0695 13.9802C18.0473 12.3197 20.3774 11.1316 22.8828 10.5061C25.3883 9.88067 28.0033 9.83427 30.5294 10.3704C33.0555 10.9066 35.4262 12.0113 37.4617 13.6006C39.4971 15.1899 41.1438 17.2221 42.2767 19.5429C43.4096 21.8637 43.9989 24.4121 44 26.9947ZM41.3846 26.9947C41.384 24.7879 40.8758 22.6109 39.8992 20.632C38.9227 18.6532 37.5041 16.9255 35.7531 15.5827C34.0021 14.2399 31.9656 13.3179 29.8014 12.8882C27.6371 12.4584 25.403 12.5324 23.2718 13.1043C21.1407 13.6763 19.1697 14.7309 17.5113 16.1865C15.8529 17.6422 14.5516 19.4599 13.7081 21.499C12.8645 23.5381 12.5013 25.744 12.6466 27.9459C12.7919 30.1479 13.4417 32.2869 14.5459 34.1975C14.6385 34.3579 14.6961 34.5361 14.7147 34.7204C14.7333 34.9048 14.7125 35.0909 14.6537 35.2666L12.6154 41.3806L18.7288 39.3421C18.862 39.2967 19.0017 39.2735 19.1424 39.2734C19.3721 39.2738 19.5976 39.3347 19.7962 39.45C21.983 40.7153 24.4645 41.3824 26.9909 41.384C29.5173 41.3855 31.9996 40.7217 34.188 39.4591C36.3764 38.1965 38.1937 36.3798 39.457 34.1917C40.7204 32.0036 41.3852 29.5213 41.3846 26.9947Z" fill="white"/>
</svg>
