<svg width="8" height="12" viewBox="0 0 8 12" fill="none" xmlns="http://www.w3.org/2000/svg">
<path d="M1.55714 11.7571L8 5.9975L1.55714 0.237927C1.38154 0.0814608 1.14593 -0.00407055 0.902146 0.000148698C0.658364 0.00436794 0.426378 0.0979922 0.257223 0.260425C0.088068 0.422858 -0.00439933 0.640794 0.000162087 0.86629C0.0047235 1.09179 0.10594 1.30637 0.281546 1.46284L5.35692 5.9975L0.281546 10.5372C0.10594 10.6936 0.00472307 10.9082 0.000161638 11.1337C-0.0043998 11.3592 0.0880675 11.5771 0.257223 11.7396C0.426377 11.902 0.658363 11.9956 0.902146 11.9999C1.14593 12.0041 1.38154 11.9185 1.55714 11.7621L1.55714 11.7571Z" fill="#00B3FF"/>
</svg>
