<svg width="18" height="25" viewBox="0 0 18 25" fill="none" xmlns="http://www.w3.org/2000/svg">
<path fill-rule="evenodd" clip-rule="evenodd" d="M8.89419 14.8457C3.98913 14.8457 0 16.9751 0 19.588C0 22.201 3.98913 24.3304 8.89419 24.3304C13.7992 24.3304 17.7884 22.201 17.7884 19.588C17.7884 16.9751 13.7992 14.8457 8.89419 14.8457ZM9.90774 16.4637L9.09411 17.7329C9.02437 17.7329 8.95928 17.7329 8.88954 17.7329L8.04801 16.4451C8.32232 16.4311 8.60128 16.4218 8.88954 16.4218C9.23824 16.4218 9.573 16.4358 9.9031 16.459L9.90774 16.4637ZM8.89419 22.7496C4.70978 22.7496 1.58078 21.0805 1.58078 19.588C1.58078 18.3699 3.66833 17.0355 6.709 16.5846L7.82949 18.3002C7.31341 18.9511 7.425 19.8902 8.07591 20.4063C8.41996 20.6806 8.86629 20.7876 9.30333 20.6992V21.2618C9.30333 21.5919 9.56835 21.8616 9.9031 21.8616C10.2379 21.8616 10.4982 21.5919 10.4982 21.2618V19.23C10.4982 18.886 10.382 18.5559 10.1635 18.2862L11.2375 16.6078C14.1944 17.0774 16.2076 18.3885 16.2076 19.5834C16.2076 21.0758 13.0786 22.7449 8.89419 22.7449V22.7496Z" fill="white"/>
<path fill-rule="evenodd" clip-rule="evenodd" d="M6.71367 13.4087C8.07593 14.0643 9.66136 14.0736 11.0283 13.4319V13.4552C11.0934 13.4226 11.9628 13.0368 12.4324 12.4463C13.3901 11.5025 13.9294 10.21 13.9294 8.86629V3.5149C13.9294 1.57613 12.3533 0 10.4145 0H7.37388C5.4351 0 3.85898 1.57613 3.85898 3.5149V8.86629C3.85898 10.1914 4.3797 11.4606 5.30957 12.4044C5.77915 12.9949 6.64393 13.3808 6.71367 13.4087ZM5.26308 3.5149C5.26308 2.35257 6.20689 1.40875 7.37388 1.4041H10.4145C11.5769 1.4041 12.5253 2.34792 12.5253 3.5149V3.91939H5.26308V3.5149ZM5.26308 5.57921V5.32349H12.5253V5.57456C12.5253 5.57456 12.5021 5.64895 12.0232 7.13209C8.6385 6.63461 9.18247 6.62996 5.75126 7.13209C5.30027 5.69079 5.26773 5.58386 5.26773 5.58386L5.26308 5.57921ZM5.26308 8.48505C5.38861 8.53154 5.51879 8.55479 5.65362 8.55944C5.72801 8.55944 5.56528 8.57803 7.88531 8.23863C9.11273 8.05731 9.78224 8.22468 12.0093 8.55014C12.1859 8.56874 12.3626 8.54084 12.53 8.47575V8.86629C12.53 10.8702 10.9074 12.4974 8.90351 12.5021C6.89965 12.5021 5.27238 10.8795 5.26773 8.87559V8.48505H5.26308Z" fill="white"/>
</svg>
