<svg width="17" height="22" viewBox="0 0 17 22" fill="none" xmlns="http://www.w3.org/2000/svg">
<path fill-rule="evenodd" clip-rule="evenodd" d="M8.0747 21.5C8.89399 21.5 12.7955 16.6009 13.7575 15.0403C15.2364 12.6414 16.1494 11.2222 16.1494 8.57389C16.1494 4.1148 12.5342 0.5 8.0747 0.5C3.61516 0.5 0 4.1148 0 8.57389C0 11.236 0.846004 12.6457 2.3199 15.0403C3.34717 16.7093 7.2554 21.5 8.0747 21.5ZM8.07477 12.6108C10.3045 12.6108 12.1121 10.8034 12.1121 8.57388C12.1121 6.34434 10.3045 4.53694 8.07477 4.53694C5.845 4.53694 4.03742 6.34434 4.03742 8.57388C4.03742 10.8034 5.845 12.6108 8.07477 12.6108Z" fill="#47A8DE"/>
</svg>
