<svg width="24" height="24" viewBox="0 0 24 24" fill="none" xmlns="http://www.w3.org/2000/svg">
<g id="Iconsax/Linear/notification">
<g id="Group 1171275053">
<path id="Vector" d="M8.15082 6.6V5.88C8.15082 4.287 8.15082 3 11.0308 3H12.4708C15.3508 3 15.3508 4.287 15.3508 5.88V6.6M8.15082 21H15.3508C18.9688 21 19.6168 19.551 19.8058 17.787L20.4808 10.587C20.7238 8.391 20.0938 6.6 16.2508 6.6H7.25082C3.40782 6.6 2.77782 8.391 3.02082 10.587L3.69582 17.787C3.88482 19.551 4.53282 21 8.15082 21Z" stroke="#AAAAAA" stroke-width="1.5" stroke-miterlimit="10" stroke-linecap="round" stroke-linejoin="round"/>
<path id="Vector_2" d="M13.5511 13.8181V12.9001C13.5511 12.0001 13.5511 12.0001 12.6511 12.0001H10.8511C9.95108 12.0001 9.95108 12.0001 9.95108 12.9001V13.8271M13.5511 13.8181C13.5511 14.7991 13.5421 15.6001 11.7511 15.6001C9.96908 15.6001 9.95108 14.8081 9.95108 13.8271M13.5511 13.8181C16.0389 13.5084 18.4076 12.5733 20.4361 11.1001M9.95108 13.8271C7.62008 13.5661 5.33408 12.7291 3.30908 11.3431" stroke="#AAAAAA" stroke-width="1.5" stroke-miterlimit="10" stroke-linecap="round" stroke-linejoin="round"/>
</g>
</g>
</svg>
