<svg width="22" height="22" viewBox="0 0 22 22" fill="none" xmlns="http://www.w3.org/2000/svg">
<path fill-rule="evenodd" clip-rule="evenodd" d="M9.4572 0.640365L7.80001 2.29609C7.6662 2.42996 7.4848 2.50536 7.29552 2.5058H4.68801C3.48252 2.5058 2.5058 3.48252 2.5058 4.68801V7.29552C2.50543 7.48524 2.43004 7.66712 2.29609 7.80148L0.638898 9.4572C0.229811 9.86642 0 10.4214 0 11C0 11.5786 0.229811 12.1336 0.638898 12.5428L2.29609 14.2C2.42996 14.3338 2.50536 14.5152 2.5058 14.7045V17.312C2.5058 18.5175 3.48252 19.4942 4.68801 19.4942H7.29552C7.48524 19.4946 7.66712 19.57 7.80148 19.7039L9.4572 21.3611C9.86642 21.7702 10.4214 22 11 22C11.5786 22 12.1336 21.7702 12.5428 21.3611L14.2 19.7039C14.3338 19.57 14.5152 19.4946 14.7045 19.4942H17.312C18.5175 19.4942 19.4942 18.5175 19.4942 17.312V14.7045C19.4946 14.5148 19.57 14.3329 19.7039 14.1985L21.3611 12.5428C21.7702 12.1336 22 11.5786 22 11C22 10.4214 21.7702 9.86642 21.3611 9.4572L19.7039 7.80001C19.57 7.6662 19.4946 7.4848 19.4942 7.29552V4.68801C19.4942 3.48252 18.5175 2.5058 17.312 2.5058H14.7045C14.5147 2.50575 14.3327 2.43031 14.1985 2.29609L12.5428 0.638898C12.1336 0.229811 11.5786 0 11 0C10.4214 0 9.86642 0.231278 9.4572 0.640365ZM6.8145 14.1472L14.1472 6.8145L15.1855 7.85281L7.85281 15.1855L6.8145 14.1472ZM7.33365 7.33365V8.80019H8.80019V7.33365H7.33365ZM13.1998 14.6663H14.6663V13.1998H13.1998V14.6663Z" fill="#47A8DE"/>
</svg>
