<svg width="30" height="18" viewBox="0 0 30 18" fill="none" xmlns="http://www.w3.org/2000/svg">
<path d="M27.1875 0.5625H2.8125C2.31522 0.5625 1.83831 0.760044 1.48667 1.11167C1.13504 1.46331 0.9375 1.94022 0.9375 2.4375V15.5625C0.9375 16.0598 1.13504 16.5367 1.48667 16.8883C1.83831 17.24 2.31522 17.4375 2.8125 17.4375H27.1875C27.6848 17.4375 28.1617 17.24 28.5133 16.8883C28.865 16.5367 29.0625 16.0598 29.0625 15.5625V2.4375C29.0625 1.94022 28.865 1.46331 28.5133 1.11167C28.1617 0.760044 27.6848 0.5625 27.1875 0.5625ZM8.78906 15.5625L2.8125 10.4414V7.55859L8.78906 2.4375H21.2109L27.1875 7.55859V10.4414L21.2109 15.5625H8.78906ZM19.6875 9C19.6875 9.9271 19.4126 10.8334 18.8975 11.6042C18.3824 12.3751 17.6504 12.9759 16.7938 13.3307C15.9373 13.6855 14.9948 13.7783 14.0855 13.5974C13.1762 13.4166 12.341 12.9701 11.6854 12.3146C11.0299 11.659 10.5834 10.8238 10.4026 9.91449C10.2217 9.0052 10.3145 8.0627 10.6693 7.20617C11.0241 6.34964 11.6249 5.61756 12.3958 5.10249C13.1666 4.58742 14.0729 4.3125 15 4.3125C16.2432 4.3125 17.4355 4.80636 18.3146 5.68544C19.1936 6.56451 19.6875 7.7568 19.6875 9Z" fill="#A9A8A8"/>
</svg>
