<svg width="26" height="26" viewBox="0 0 26 26" fill="none" xmlns="http://www.w3.org/2000/svg">
<path fill-rule="evenodd" clip-rule="evenodd" d="M23.4778 12.0776C22.9503 7.29646 19.1549 3.50137 14.3733 2.97396V0.612061H12.0799V2.97396C7.29835 3.50137 3.50288 7.29646 2.97541 12.0776H0.613281V14.3707H2.97541C3.50288 19.1518 7.29835 22.9469 12.0799 23.4743V25.8362H14.3733V23.4743C19.1549 22.9469 22.9503 19.1518 23.4778 14.3707H25.8399V12.0776H23.4778ZM13.2266 8.63792C10.6925 8.63792 8.63995 10.6902 8.63995 13.2241C8.63995 15.758 10.6925 17.8103 13.2266 17.8103C15.7607 17.8103 17.8133 15.758 17.8133 13.2241C17.8133 10.6902 15.7607 8.63792 13.2266 8.63792ZM5.19995 13.2241C5.19995 17.6613 8.78901 21.25 13.2266 21.25C17.6642 21.25 21.2533 17.6613 21.2533 13.2241C21.2533 8.78697 17.6642 5.19827 13.2266 5.19827C8.78901 5.19827 5.19995 8.78697 5.19995 13.2241Z" fill="#47A8DE"/>
</svg>
