<svg width="24" height="24" viewBox="0 0 24 24" fill="none" xmlns="http://www.w3.org/2000/svg">
<path fill-rule="evenodd" clip-rule="evenodd" d="M3.32308 -0.000976562H3.23077C2.808 -0.000976562 2.44431 -0.000976549 2.12308 0.0747158C1.62579 0.193543 1.17111 0.447724 0.80941 0.809096C0.447713 1.17047 0.193122 1.62492 0.0738461 2.1221C-6.87746e-08 2.44333 0 2.80518 0 3.22979V7.84518C0 8.26795 1.37549e-08 8.63164 0.0756923 8.95287C0.19452 9.45016 0.448701 9.90484 0.810073 10.2665C1.17144 10.6282 1.6259 10.8828 2.12308 11.0021C2.44431 11.0759 2.80615 11.0759 3.23077 11.0759H7.84615C8.26892 11.0759 8.63262 11.0759 8.95385 11.0003C9.45113 10.8814 9.90582 10.6272 10.2675 10.2659C10.6292 9.9045 10.8838 9.45005 11.0031 8.95287C11.0769 8.63164 11.0769 8.26979 11.0769 7.84518V3.22979C11.0769 2.80702 11.0769 2.44333 11.0012 2.1221C10.8824 1.62481 10.6282 1.17013 10.2669 0.808434C9.90548 0.446736 9.45103 0.192145 8.95385 0.0728695C8.63262 -0.000976631 8.27077 -0.000976562 7.84615 -0.000976562H3.32308ZM2.55323 1.87102C2.63262 1.85256 2.75631 1.84518 3.32308 1.84518H7.75385C8.32246 1.84518 8.44431 1.85072 8.52369 1.87102C8.68953 1.91068 8.84115 1.9955 8.96172 2.11607C9.08229 2.23665 9.16711 2.38826 9.20677 2.5541C9.22523 2.63164 9.23077 2.75348 9.23077 3.3221V7.75287C9.23077 8.32148 9.22523 8.44333 9.20492 8.52272C9.16527 8.68856 9.08045 8.84017 8.95987 8.96074C8.8393 9.08132 8.68769 9.16613 8.52185 9.20579C8.44615 9.22241 8.32431 9.22979 7.75385 9.22979H3.32308C2.75446 9.22979 2.63262 9.22425 2.55323 9.20395C2.38739 9.16429 2.23578 9.07947 2.1152 8.9589C1.99463 8.83832 1.90981 8.68671 1.87015 8.52087C1.85354 8.44518 1.84615 8.32333 1.84615 7.75287V3.3221C1.84615 2.75348 1.85169 2.63164 1.872 2.55225C1.91166 2.38641 1.99648 2.2348 2.11705 2.11423C2.23762 1.99365 2.38924 1.90884 2.55508 1.86918L2.55323 1.87102ZM16.2462 -0.000976562H16.1538C15.7311 -0.000976562 15.3674 -0.000976549 15.0462 0.0747158C14.5489 0.193543 14.0942 0.447724 13.7325 0.809096C13.3708 1.17047 13.1162 1.62492 12.9969 2.1221C12.9231 2.44333 12.9231 2.80518 12.9231 3.22979V7.84518C12.9231 8.26795 12.9231 8.63164 12.9988 8.95287C13.1176 9.45016 13.3718 9.90484 13.7331 10.2665C14.0945 10.6282 14.549 10.8828 15.0462 11.0021C15.3674 11.0759 15.7292 11.0759 16.1538 11.0759H20.7692C21.192 11.0759 21.5557 11.0759 21.8769 11.0003C22.3742 10.8814 22.8289 10.6272 23.1906 10.2659C23.5523 9.9045 23.8069 9.45005 23.9262 8.95287C24 8.63164 24 8.26979 24 7.84518V3.22979C24 2.80702 24 2.44333 23.9243 2.1221C23.8055 1.62481 23.5513 1.17013 23.1899 0.808434C22.8286 0.446736 22.3741 0.192145 21.8769 0.0728695C21.5557 -0.000976631 21.1938 -0.000976562 20.7692 -0.000976562H16.2462ZM15.4763 1.87102C15.5557 1.85256 15.6794 1.84518 16.2462 1.84518H20.6769C21.2455 1.84518 21.3674 1.85072 21.4468 1.87102C21.6126 1.91068 21.7642 1.9955 21.8848 2.11607C22.0054 2.23665 22.0902 2.38826 22.1298 2.5541C22.1483 2.63164 22.1538 2.75348 22.1538 3.3221V7.75287C22.1538 8.32148 22.1465 8.44333 22.128 8.52272C22.0883 8.68856 22.0035 8.84017 21.8829 8.96074C21.7624 9.08132 21.6108 9.16613 21.4449 9.20579C21.3674 9.22425 21.2455 9.22979 20.6769 9.22979H16.2462C15.6775 9.22979 15.5557 9.22425 15.4763 9.20395C15.3105 9.16429 15.1589 9.07947 15.0383 8.9589C14.9177 8.83832 14.8329 8.68671 14.7932 8.52087C14.7766 8.44518 14.7692 8.32333 14.7692 7.75287V3.3221C14.7692 2.75348 14.7748 2.63164 14.7951 2.55225C14.8347 2.38641 14.9196 2.2348 15.0401 2.11423C15.1607 1.99365 15.3123 1.90884 15.4782 1.86918L15.4763 1.87102ZM3.23077 12.9221H7.84615C8.26892 12.9221 8.63262 12.9221 8.95385 12.9978C9.45113 13.1166 9.90582 13.3708 10.2675 13.7322C10.6292 14.0935 10.8838 14.548 11.0031 15.0452C11.0769 15.3664 11.0769 15.7283 11.0769 16.1529V20.7683C11.0769 21.191 11.0769 21.5547 11.0012 21.8759C10.8824 22.3732 10.6282 22.8279 10.2669 23.1896C9.90548 23.5513 9.45103 23.8059 8.95385 23.9252C8.63262 23.999 8.27077 23.999 7.84615 23.999H3.23077C2.808 23.999 2.44431 23.999 2.12308 23.9233C1.62579 23.8045 1.17111 23.5503 0.80941 23.189C0.447713 22.8276 0.193122 22.3731 0.0738461 21.8759C-6.87746e-08 21.5547 0 21.1929 0 20.7683V16.1529C0 15.7301 1.37549e-08 15.3664 0.0756923 15.0452C0.19452 14.5479 0.448701 14.0932 0.810073 13.7315C1.17144 13.3698 1.6259 13.1152 2.12308 12.9959C2.44431 12.9221 2.80615 12.9221 3.23077 12.9221ZM3.32308 14.7683C2.75446 14.7683 2.63262 14.7738 2.55323 14.7941C2.38739 14.8338 2.23578 14.9186 2.1152 15.0392C1.99463 15.1597 1.90981 15.3113 1.87015 15.4772C1.85354 15.5529 1.84615 15.6747 1.84615 16.2452V20.6759C1.84615 21.2446 1.85169 21.3664 1.872 21.4458C1.91166 21.6116 1.99648 21.7632 2.11705 21.8838C2.23762 22.0044 2.38924 22.0892 2.55508 22.1289C2.63262 22.1473 2.75446 22.1529 3.32308 22.1529H7.75385C8.32246 22.1529 8.44431 22.1455 8.52369 22.127C8.68953 22.0874 8.84115 22.0025 8.96172 21.882C9.08229 21.7614 9.16711 21.6098 9.20677 21.4439C9.22523 21.3664 9.23077 21.2446 9.23077 20.6759V16.2452C9.23077 15.6766 9.22523 15.5547 9.20492 15.4753C9.16527 15.3095 9.08045 15.1579 8.95987 15.0373C8.8393 14.9167 8.68769 14.8319 8.52185 14.7923C8.44615 14.7756 8.32431 14.7683 7.75385 14.7683H3.32308ZM16.2462 12.9221H16.1538C15.7311 12.9221 15.3674 12.9221 15.0462 12.9978C14.5489 13.1166 14.0942 13.3708 13.7325 13.7322C13.3708 14.0935 13.1162 14.548 12.9969 15.0452C12.9231 15.3664 12.9231 15.7283 12.9231 16.1529V20.7683C12.9231 21.191 12.9231 21.5547 12.9988 21.8759C13.1176 22.3732 13.3718 22.8279 13.7331 23.1896C14.0945 23.5513 14.549 23.8059 15.0462 23.9252C15.3674 24.0009 15.7311 24.0009 16.1538 24.0009H20.7692C21.192 24.0009 21.5557 24.0009 21.8769 23.9252C22.3739 23.806 22.8282 23.5517 23.1895 23.1904C23.5509 22.829 23.8052 22.3747 23.9243 21.8778C24 21.5566 24 21.1929 24 20.7701V16.1529C24 15.7301 24 15.3664 23.9243 15.0452C23.8055 14.5479 23.5513 14.0932 23.1899 13.7315C22.8286 13.3698 22.3741 13.1152 21.8769 12.9959C21.5557 12.9221 21.1938 12.9221 20.7692 12.9221H16.2462ZM15.4763 14.7941C15.5557 14.7756 15.6794 14.7683 16.2462 14.7683H20.6769C21.2455 14.7683 21.3674 14.7738 21.4468 14.7941C21.6126 14.8338 21.7642 14.9186 21.8848 15.0392C22.0054 15.1597 22.0902 15.3113 22.1298 15.4772C22.1483 15.5547 22.1538 15.6766 22.1538 16.2452V20.6759C22.1538 21.2446 22.1465 21.3664 22.128 21.4458C22.0883 21.6116 22.0035 21.7632 21.8829 21.8838C21.7624 22.0044 21.6108 22.0892 21.4449 22.1289C21.3674 22.1473 21.2455 22.1529 20.6769 22.1529H16.2462C15.6775 22.1529 15.5557 22.1455 15.4763 22.127C15.3105 22.0874 15.1589 22.0025 15.0383 21.882C14.9177 21.7614 14.8329 21.6098 14.7932 21.4439C14.7766 21.3683 14.7692 21.2464 14.7692 20.6759V16.2452C14.7692 15.6766 14.7748 15.5547 14.7951 15.4753C14.8347 15.3095 14.9196 15.1579 15.0401 15.0373C15.1607 14.9167 15.3123 14.8319 15.4782 14.7923L15.4763 14.7941Z" fill="#AAAAAA"/>
</svg>
