<svg width="16" height="17" viewBox="0 0 16 17" fill="none" xmlns="http://www.w3.org/2000/svg">
<path d="M1 3.7H2.55556M2.55556 3.7H15M2.55556 3.7V14.9C2.55556 15.3243 2.71944 15.7313 3.01117 16.0314C3.30289 16.3314 3.69855 16.5 4.11111 16.5H11.8889C12.3014 16.5 12.6971 16.3314 12.9888 16.0314C13.2806 15.7313 13.4444 15.3243 13.4444 14.9V3.7M4.88889 3.7V2.1C4.88889 1.67565 5.05278 1.26869 5.3445 0.968629C5.63622 0.668571 6.03189 0.5 6.44444 0.5H9.55556C9.96811 0.5 10.3638 0.668571 10.6555 0.968629C10.9472 1.26869 11.1111 1.67565 11.1111 2.1V3.7M6.44444 7.7V12.5M9.55556 7.7V12.5" stroke="black" stroke-linecap="round" stroke-linejoin="round"/>
</svg>
