<svg width="24" height="24" viewBox="0 0 24 24" fill="none" xmlns="http://www.w3.org/2000/svg">
<path d="M22.0192 1.98272C19.3756 -0.660905 15.0977 -0.660905 12.4572 1.98272L9.42923 5.01069L11.0229 6.60436L14.0509 3.57639C15.732 1.89522 18.5694 1.7171 20.4256 3.57639C22.2848 5.43567 22.1067 8.26991 20.4256 9.95108L17.3976 12.9791L18.9944 14.5759L22.0224 11.5479C24.6597 8.90425 24.6597 4.62634 22.0192 1.98272ZM9.9542 20.4256C8.27303 22.1067 5.43567 22.2848 3.57951 20.4256C1.72023 18.5663 1.89834 15.732 3.57951 14.0509L6.60749 11.0229L5.01069 9.4261L1.98272 12.4541C-0.660905 15.0977 -0.660905 19.3756 1.98272 22.0161C4.62634 24.6566 8.90425 24.6597 11.5447 22.0161L14.5727 18.9881L12.9791 17.3945L9.9542 20.4256ZM4.13574 2.54519C4.08875 2.49866 4.0253 2.47257 3.95918 2.47257C3.89306 2.47257 3.82961 2.49866 3.78263 2.54519L2.54519 3.78263C2.49866 3.82961 2.47257 3.89306 2.47257 3.95918C2.47257 4.0253 2.49866 4.08875 2.54519 4.13574L19.8693 21.4599C19.9662 21.5568 20.1256 21.5568 20.2224 21.4599L21.4599 20.2224C21.5568 20.1256 21.5568 19.9662 21.4599 19.8693L4.13574 2.54519Z" fill="#FF1F1F"/>
</svg>
