<svg width="20" height="11" viewBox="0 0 20 11" fill="none" xmlns="http://www.w3.org/2000/svg">
<path d="M0.786621 5.21119C0.859721 5.06823 0.911321 4.9105 1.01022 4.78994C1.36951 4.35438 1.98298 4.34866 2.39578 4.7723C3.30706 5.70949 4.21563 6.64764 5.1215 7.58673L5.35131 7.825C5.78848 7.37086 6.20844 6.91624 6.648 6.48069C8.4419 4.70511 10.2374 2.9324 12.0345 1.16254C12.3245 0.876616 12.6556 0.76463 13.0459 0.895201C13.6947 1.11298 13.8658 1.92261 13.367 2.42441C12.7827 3.01245 12.1874 3.59002 11.5992 4.17187C9.73906 6.00653 7.87971 7.84168 6.02115 9.6773C5.73449 9.96322 5.40387 10.0881 5.01448 9.95702C4.86341 9.90233 4.72693 9.8138 4.61553 9.69827C3.42714 8.48214 2.2448 7.2611 1.06851 6.03513C0.946199 5.90694 0.877399 5.72633 0.786621 5.57003V5.21119Z" fill="white"/>
<path d="M19.1331 1.95816C19.0605 2.22645 18.889 2.42469 18.6945 2.61578C16.3113 4.96129 13.9295 7.30839 11.5489 9.65709C11.0587 10.1436 10.5393 10.1336 10.0553 9.62802C9.80783 9.36973 9.55795 9.11431 9.3119 8.8546C8.92107 8.44192 8.91343 7.87817 9.29087 7.51458C9.66832 7.15098 10.2297 7.17195 10.6315 7.57843L10.8895 7.841C11.5799 7.1262 12.2512 6.40567 12.9473 5.71136C14.459 4.20503 15.9931 2.72109 17.4972 1.20713C18.0705 0.630048 18.9554 0.898815 19.1068 1.58836C19.113 1.60535 19.1215 1.62139 19.1321 1.63602L19.1331 1.95816Z" fill="white"/>
</svg>
