<svg width="21" height="21" viewBox="0 0 21 21" fill="none" xmlns="http://www.w3.org/2000/svg">
<path d="M11.9091 1.76331L13.6691 5.28331C13.9091 5.77331 14.5491 6.24331 15.0891 6.33331L18.2791 6.86331C20.3191 7.20331 20.7991 8.68331 19.3291 10.1433L16.8491 12.6233C16.4291 13.0433 16.1991 13.8533 16.3291 14.4333L17.0391 17.5033C17.5991 19.9333 16.3091 20.8733 14.1591 19.6033L11.1691 17.8333C10.6291 17.5133 9.73911 17.5133 9.18911 17.8333L6.19911 19.6033C4.05911 20.8733 2.75911 19.9233 3.31911 17.5033L4.02911 14.4333C4.15911 13.8533 3.92911 13.0433 3.50911 12.6233L1.02911 10.1433C-0.430892 8.68331 0.0391085 7.20331 2.07911 6.86331L5.26911 6.33331C5.79911 6.24331 6.43911 5.77331 6.67911 5.28331L8.43911 1.76331C9.39911 -0.146689 10.9591 -0.146689 11.9091 1.76331Z" fill="#F3BA17"/>
</svg>
