<svg width="7" height="8" viewBox="0 0 7 8" fill="none" xmlns="http://www.w3.org/2000/svg">
<path fill-rule="evenodd" clip-rule="evenodd" d="M3.00146 7.80215C3.30586 7.80215 4.7554 5.98197 5.11282 5.40217C5.66225 4.51089 6.00146 3.98362 6.00146 2.9997C6.00146 1.34301 4.65832 0 3.00146 0C1.34461 0 0.00146484 1.34301 0.00146484 2.9997C0.00146484 3.98874 0.315781 4.5125 0.863379 5.40217C1.24504 6.02225 2.69707 7.80215 3.00146 7.80215ZM3.00146 4.49954C3.82989 4.49954 4.50146 3.82804 4.50146 2.99969C4.50146 2.17135 3.82989 1.49984 3.00146 1.49984C2.17304 1.49984 1.50146 2.17135 1.50146 2.99969C1.50146 3.82804 2.17304 4.49954 3.00146 4.49954Z" fill="#47A8DE"/>
</svg>
