<svg width="29" height="23" viewBox="0 0 29 23" fill="none" xmlns="http://www.w3.org/2000/svg">
<path d="M16.9966 0H2.18902C0.980058 0 0 0.984182 0 2.19823V4.80977C0 6.02382 0.980058 7.008 2.18902 7.008H16.9966C18.2056 7.008 19.1856 6.02382 19.1856 4.80977V2.19823C19.1856 0.984182 18.2056 0 16.9966 0Z" fill="#FFC802"/>
<path d="M19.2987 7.84814H4.49109C3.28212 7.84814 2.30206 8.83233 2.30206 10.0464V12.6579C2.30206 13.872 3.28212 14.8561 4.49109 14.8561H19.2987C20.5076 14.8561 21.4877 13.872 21.4877 12.6579V10.0464C21.4877 8.83233 20.5076 7.84814 19.2987 7.84814Z" fill="#FFC802"/>
<path d="M16.9966 15.6924H2.18902C0.980058 15.6924 0 16.6766 0 17.8906V20.5021C0 21.7162 0.980058 22.7004 2.18902 22.7004H16.9966C18.2056 22.7004 19.1856 21.7162 19.1856 20.5021V17.8906C19.1856 16.6766 18.2056 15.6924 16.9966 15.6924Z" fill="#FFC802"/>
<path d="M19.7645 5.28662C14.9523 5.28662 11.0491 9.20619 11.0491 14.0387C11.0491 18.8711 14.9523 22.7953 19.7645 22.7953C24.5768 22.7953 28.4844 18.8757 28.4844 14.0387C28.4844 9.20165 24.5813 5.28662 19.7645 5.28662ZM19.7645 13.1621C21.2028 13.1621 22.3787 14.3384 22.3787 15.7873C22.3787 17.2361 21.2073 18.417 19.7645 18.417H18.0233C17.5393 18.417 17.1504 18.0264 17.1504 17.5404C17.1504 17.0544 17.5393 16.6638 18.0233 16.6638H19.7645C20.2485 16.6638 20.6374 16.2732 20.6374 15.7873C20.6374 15.3013 20.2439 14.9107 19.7645 14.9107C18.3218 14.9107 17.1504 13.7389 17.1504 12.2855C17.1504 10.8322 18.3218 9.66492 19.7645 9.66492H21.5103C21.9897 9.66492 22.3832 10.0555 22.3832 10.5415C22.3832 11.0275 21.9897 11.4181 21.5103 11.4181H19.7645C19.2806 11.4181 18.8916 11.8132 18.8916 12.2855C18.8916 12.7579 19.2806 13.1621 19.7645 13.1621Z" fill="#7EC00A"/>
<path d="M22.3787 15.7874C22.3787 17.2408 21.2073 18.4171 19.7645 18.4171H18.0232C17.5393 18.4171 17.1503 18.0265 17.1503 17.5405C17.1503 17.0545 17.5393 16.664 18.0232 16.664H19.7645C20.2484 16.664 20.6374 16.2734 20.6374 15.7874C20.6374 15.3014 20.2439 14.9108 19.7645 14.9108C18.3217 14.9108 17.1503 13.739 17.1503 12.2857C17.1503 10.8323 18.3217 9.66504 19.7645 9.66504H21.5103C21.9897 9.66504 22.3832 10.0556 22.3832 10.5416C22.3832 11.0276 21.9897 11.4182 21.5103 11.4182H19.7645C19.2806 11.4182 18.8916 11.8133 18.8916 12.2857C18.8916 12.758 19.2806 13.1622 19.7645 13.1622C21.2027 13.1622 22.3787 14.3386 22.3787 15.7874Z" fill="white"/>
</svg>
