<svg width="18" height="17" viewBox="0 0 18 17" fill="none" xmlns="http://www.w3.org/2000/svg">
<path d="M8.15659 2.18666H2.59035C2.16857 2.18666 1.76405 2.35422 1.4658 2.65247C1.16755 2.95072 1 3.35524 1 3.77703V14.9096C1 15.3314 1.16755 15.7359 1.4658 16.0342C1.76405 16.3324 2.16857 16.5 2.59035 16.5H13.7228C14.1446 16.5 14.5491 16.3324 14.8474 16.0342C15.1456 15.7359 15.3132 15.3314 15.3132 14.9096V9.34333M14.1204 0.994065C14.4368 0.67772 14.8658 0.5 15.3132 0.5C15.7605 0.5 16.1896 0.67772 16.5059 0.994065C16.8223 1.31041 17 1.73946 17 2.18684C17 2.63422 16.8223 3.06328 16.5059 3.37962L8.95176 10.9339L5.77106 11.7291L6.56624 8.54833L14.1204 0.994065Z" stroke="black" stroke-linecap="round" stroke-linejoin="round"/>
</svg>
