<svg width="17" height="13" viewBox="0 0 17 13" fill="none" xmlns="http://www.w3.org/2000/svg">
<path fill-rule="evenodd" clip-rule="evenodd" d="M5.52227 0.199707H10.5678C11.6972 0.199691 12.6075 0.199674 13.3235 0.295931C14.0668 0.395871 14.6926 0.609666 15.1897 1.10674C15.6868 1.60381 15.9006 2.22967 16.0005 2.97299C16.0967 3.68895 16.0967 4.59926 16.0967 5.72863V7.47091C16.0967 8.60029 16.0967 9.51058 16.0005 10.2266C15.9006 10.9699 15.6868 11.5957 15.1897 12.0928C14.6926 12.5899 14.0668 12.8037 13.3235 12.9036C12.6075 12.9998 11.6972 12.9998 10.5678 12.9998H5.52227C4.3929 12.9998 3.48259 12.9998 2.76663 12.9036C2.02331 12.8037 1.39745 12.5899 0.900378 12.0928C0.403308 11.5957 0.18951 10.9699 0.0895738 10.2266C-0.00668376 9.51058 -0.00666971 8.60029 -0.00665237 7.47091V5.72863C-0.00666971 4.59926 -0.00668376 3.68895 0.0895738 2.97299C0.18951 2.22967 0.403308 1.60381 0.900378 1.10674C1.39745 0.609666 2.02331 0.395871 2.76663 0.295931C3.48259 0.199674 4.3929 0.199691 5.52227 0.199707ZM2.93169 1.52361C2.32573 1.60508 2.00484 1.75409 1.77628 1.98265C1.54773 2.2112 1.39872 2.53209 1.31725 3.13805C1.23338 3.76183 1.23207 4.58856 1.23207 5.77394V7.42557C1.23207 8.61094 1.23338 9.43766 1.31725 10.0615C1.39872 10.6675 1.54773 10.9883 1.77628 11.2169C2.00484 11.4455 2.32573 11.5944 2.93169 11.6759C3.55547 11.7598 4.38219 11.7611 5.56758 11.7611H10.5225C11.7078 11.7611 12.5346 11.7598 13.1584 11.6759C13.7644 11.5944 14.0852 11.4455 14.3138 11.2169C14.5424 10.9883 14.6913 10.6675 14.7728 10.0615C14.8567 9.43766 14.858 8.61094 14.858 7.42557V5.77394C14.858 4.58856 14.8567 3.76183 14.7728 3.13805C14.6913 2.53209 14.5424 2.2112 14.3138 1.98265C14.0852 1.75409 13.7644 1.60508 13.1584 1.52361C12.5346 1.43974 11.7078 1.43843 10.5225 1.43843H5.56758C4.3822 1.43843 3.55547 1.43974 2.93169 1.52361Z" fill="white"/>
<path fill-rule="evenodd" clip-rule="evenodd" d="M2.57486 3.7788C2.7646 3.49418 3.14914 3.41727 3.43375 3.60702L5.64016 5.07796C6.31749 5.52951 6.78488 5.84008 7.17497 6.04302C7.55163 6.23896 7.80508 6.30617 8.04507 6.30617C8.28506 6.30617 8.53851 6.23896 8.91516 6.04302C9.30527 5.84008 9.77268 5.52951 10.45 5.07796L12.6564 3.60702C12.941 3.41727 13.3256 3.49418 13.5153 3.7788C13.705 4.06341 13.6282 4.44795 13.3435 4.63769L11.1085 6.1277C10.4667 6.55559 9.94363 6.90427 9.48687 7.14194C9.00988 7.39009 8.55519 7.54493 8.04507 7.54493C7.53496 7.54493 7.08029 7.39009 6.6033 7.14194C6.14651 6.90427 5.62346 6.55559 4.98163 6.12769L2.74663 4.63769C2.46203 4.44795 2.38512 4.06341 2.57486 3.7788Z" fill="white"/>
</svg>
