<svg width="14" height="11" viewBox="0 0 14 11" fill="none" xmlns="http://www.w3.org/2000/svg">
<path d="M1.4 4.125V9.625H12.6V4.125L7 6.1875L1.4 4.125ZM1.4 1.375V2.75L7 4.8125L12.6 2.75V1.375H1.4ZM1.4 0H12.6C12.9713 0 13.3274 0.144866 13.5899 0.402728C13.8525 0.660591 14 1.01033 14 1.375V9.625C14 9.98967 13.8525 10.3394 13.5899 10.5973C13.3274 10.8551 12.9713 11 12.6 11H1.4C1.21615 11 1.0341 10.9644 0.864243 10.8953C0.694387 10.8262 0.540052 10.725 0.41005 10.5973C0.1475 10.3394 0 9.98967 0 9.625V1.375C0 1.01033 0.1475 0.660591 0.41005 0.402728C0.672601 0.144866 1.0287 0 1.4 0Z" fill="white"/>
</svg>
