<svg width="42" height="41" viewBox="0 0 42 41" fill="none" xmlns="http://www.w3.org/2000/svg">
<path d="M19.2046 1.65848C19.9367 0.166659 22.0633 0.166661 22.7954 1.65848L27.6434 11.537C27.9336 12.1283 28.4963 12.5388 29.148 12.6346L40.0117 14.2317C41.6479 14.4723 42.3017 16.4818 41.1204 17.6391L33.2479 25.3514C32.7795 25.8103 32.5658 26.4698 32.676 27.1163L34.5315 37.9974C34.8104 39.6329 33.0914 40.8773 31.6248 40.1015L21.9351 34.9762C21.3501 34.6668 20.6499 34.6668 20.0649 34.9762L10.3752 40.1015C8.90862 40.8773 7.18964 39.6329 7.46853 37.9974L9.324 27.1163C9.43424 26.4698 9.22053 25.8103 8.75206 25.3514L0.879645 17.6391C-0.301734 16.4818 0.352126 14.4723 1.98835 14.2317L12.852 12.6346C13.5037 12.5388 14.0664 12.1283 14.3566 11.537L19.2046 1.65848Z" fill="#D9D9D9"/>
</svg>
