<svg width="16" height="17" viewBox="0 0 16 17" fill="none" xmlns="http://www.w3.org/2000/svg">
<path d="M8 15.5C6.14348 15.5 4.36301 14.7625 3.05025 13.4497C1.7375 12.137 1 10.3565 1 8.5C1 6.64348 1.7375 4.86301 3.05025 3.55025C4.36301 2.2375 6.14348 1.5 8 1.5C9.85652 1.5 11.637 2.2375 12.9497 3.55025C14.2625 4.86301 15 6.64348 15 8.5C15 10.3565 14.2625 12.137 12.9497 13.4497C11.637 14.7625 9.85652 15.5 8 15.5ZM8 16.5C10.1217 16.5 12.1566 15.6571 13.6569 14.1569C15.1571 12.6566 16 10.6217 16 8.5C16 6.37827 15.1571 4.34344 13.6569 2.84315C12.1566 1.34285 10.1217 0.5 8 0.5C5.87827 0.5 3.84344 1.34285 2.34315 2.84315C0.842855 4.34344 0 6.37827 0 8.5C0 10.6217 0.842855 12.6566 2.34315 14.1569C3.84344 15.6571 5.87827 16.5 8 16.5Z" fill="#9B9B9B"/>
<path d="M7.00195 11.4991C7.00195 11.3678 7.02782 11.2378 7.07807 11.1165C7.12833 10.9951 7.20199 10.8849 7.29485 10.792C7.38771 10.6992 7.49794 10.6255 7.61927 10.5753C7.7406 10.525 7.87063 10.4991 8.00195 10.4991C8.13328 10.4991 8.26331 10.525 8.38464 10.5753C8.50596 10.6255 8.6162 10.6992 8.70906 10.792C8.80192 10.8849 8.87558 10.9951 8.92583 11.1165C8.97609 11.2378 9.00195 11.3678 9.00195 11.4991C9.00195 11.7644 8.8966 12.0187 8.70906 12.2062C8.52152 12.3938 8.26717 12.4991 8.00195 12.4991C7.73674 12.4991 7.48238 12.3938 7.29485 12.2062C7.10731 12.0187 7.00195 11.7644 7.00195 11.4991ZM7.09995 5.49414C7.08664 5.36798 7.09999 5.24043 7.13915 5.11977C7.17831 4.9991 7.24241 4.88802 7.32727 4.79373C7.41214 4.69943 7.51588 4.62403 7.63176 4.57242C7.74765 4.52081 7.87309 4.49414 7.99995 4.49414C8.12681 4.49414 8.25226 4.52081 8.36814 4.57242C8.48403 4.62403 8.58777 4.69943 8.67263 4.79373C8.7575 4.88802 8.82159 4.9991 8.86075 5.11977C8.89991 5.24043 8.91327 5.36798 8.89995 5.49414L8.54995 9.00114C8.53819 9.13891 8.47516 9.26725 8.37331 9.36078C8.27146 9.4543 8.13823 9.50619 7.99995 9.50619C7.86168 9.50619 7.72844 9.4543 7.6266 9.36078C7.52475 9.26725 7.46171 9.13891 7.44995 9.00114L7.09995 5.49414Z" fill="#9B9B9B"/>
</svg>
