<svg width="15" height="15" viewBox="0 0 15 15" fill="none" xmlns="http://www.w3.org/2000/svg">
<path d="M7.49994 11.6254C6.72034 11.6254 5.98767 11.3219 5.43623 10.7703C4.88479 10.2188 4.5813 9.48598 4.5813 8.70625C4.5813 7.92652 4.88479 7.19329 5.43623 6.64219C5.98767 6.09065 6.72034 5.78711 7.49994 5.78711C8.27953 5.78711 9.01221 6.09065 9.56365 6.64219C10.1151 7.19372 10.4186 7.92652 10.4186 8.70625C10.4186 9.48598 10.1151 10.2188 9.56365 10.7703C9.01221 11.3219 8.27953 11.6254 7.49994 11.6254ZM7.49994 7.28543C7.12069 7.28543 6.76382 7.43311 6.49563 7.70134C6.22745 7.97001 6.07936 8.3265 6.07936 8.70625C6.07936 9.086 6.22702 9.4425 6.4952 9.71116C6.76382 9.97939 7.12069 10.1275 7.49994 10.1275C7.87919 10.1275 8.23606 9.97982 8.50467 9.71159C8.77286 9.44293 8.92095 9.086 8.92095 8.70668C8.92095 8.32737 8.77329 7.97044 8.50511 7.7022C8.23649 7.43397 7.87962 7.28586 7.50037 7.28586L7.49994 7.28543Z" fill="white"/>
<path d="M14.4735 6.76182C13.9595 5.8766 13.3164 5.07793 12.5618 4.38689L12.421 4.25816L13.1687 3.21149L13.4193 2.86102C13.5484 2.70128 13.6061 2.4929 13.5781 2.28924C13.5502 2.08559 13.4382 1.90046 13.2712 1.78119C13.1433 1.68992 12.9931 1.64169 12.836 1.64169C12.7873 1.64169 12.7387 1.64643 12.6909 1.6559C12.4895 1.69551 12.3112 1.81822 12.2019 1.99216L12.1985 1.99776L11.2015 3.39017L11.0344 3.29889C10.2264 2.85714 9.35299 2.57771 8.43866 2.46792L8.24925 2.4451V0.74916C8.24925 0.482218 8.1059 0.23379 7.87473 0.100319C7.76109 0.0348747 7.63151 0 7.50022 0C7.36892 0 7.23935 0.0348747 7.1257 0.100319C6.89453 0.23379 6.75118 0.482218 6.75118 0.74916V2.44467L6.56177 2.46749C5.64744 2.57728 4.774 2.85714 3.96599 3.29846L3.79897 3.38974L2.80198 1.99733L2.79854 1.99173C2.68919 1.81779 2.51098 1.69508 2.30908 1.65547C2.2613 1.646 2.21266 1.64126 2.16401 1.64126C2.00732 1.64126 1.85665 1.68949 1.7288 1.78076C1.56134 1.90003 1.44985 2.08559 1.42187 2.28881C1.39389 2.49247 1.452 2.70085 1.58071 2.86059L1.58459 2.86532L2.5777 4.25601L2.3771 4.44287C1.6483 5.12228 1.02583 5.9033 0.526044 6.76698C0.181662 7.35469 0 8.02592 0 8.70748C0 9.38905 0.182092 10.0603 0.526044 10.6484C1.4774 12.2737 3.64873 15 7.50022 15C11.3517 15 13.5248 12.2707 14.474 10.6432C14.8183 10.0555 15 9.38431 15 8.70275C15 8.02118 14.8179 7.34995 14.4735 6.76139V6.76182ZM13.1821 9.88719L12.7809 10.5774V10.5111C11.8554 11.838 10.1636 13.5021 7.49979 13.5021C4.39432 13.5021 2.60697 11.2374 1.81748 9.88719C1.60913 9.52855 1.49892 9.12038 1.49892 8.70576C1.49892 8.29114 1.60913 7.88298 1.81791 7.5239C2.60697 6.17412 4.39432 3.90941 7.50022 3.90941C10.1614 3.90941 11.8545 5.5722 12.7813 6.89787V6.83458L13.1825 7.52476C13.3909 7.88341 13.5011 8.29157 13.5011 8.70619C13.5011 9.12081 13.3909 9.52898 13.1825 9.88763L13.1821 9.88719Z" fill="white"/>
</svg>
