<svg width="15" height="13" viewBox="0 0 15 13" fill="none" xmlns="http://www.w3.org/2000/svg">
<path d="M7.5 12.6627C7.21329 12.6627 6.92831 12.6479 6.6515 12.6183L6.56153 12.6073C5.64803 12.5 4.77457 12.2258 3.96568 11.7923L3.80769 11.7073H3.80726C3.35352 11.4513 2.91657 11.1411 2.50416 10.7841L2.4383 10.7241C1.98413 10.3159 1.56569 9.86463 1.19547 9.38209C1.18944 9.37406 1.18514 9.36856 1.18083 9.36265L1.17653 9.35716C1.16448 9.34194 1.15371 9.32716 1.14252 9.31194C1.11497 9.27603 1.09043 9.24349 1.06719 9.21053C1.0448 9.17969 1.02414 9.15096 1.00347 9.12222C0.980657 9.09053 0.958702 9.05927 0.938038 9.02884C0.914361 8.99546 0.893267 8.96462 0.872604 8.93377C0.845483 8.89447 0.819653 8.8556 0.793824 8.81715C0.749914 8.75123 0.708156 8.68701 0.668551 8.62447C0.640569 8.57968 0.612588 8.53489 0.585897 8.49137C0.565234 8.45841 0.547153 8.42757 0.528642 8.39715L0.526489 8.39334C0.182097 7.81615 0 7.15784 0 6.48853C0 5.81923 0.182097 5.16091 0.526059 4.58414C0.550166 4.54358 0.574274 4.50344 0.598812 4.46372C0.619475 4.42949 0.640139 4.39696 0.660802 4.364C0.660802 4.364 0.709448 4.28752 0.730972 4.25456C0.752066 4.22203 0.773591 4.18907 0.795546 4.15611C0.808461 4.13583 0.820084 4.11851 0.831707 4.10118C0.856245 4.06442 0.879491 4.03019 0.903168 3.99597C0.935886 3.94738 0.969464 3.90005 1.00347 3.85273L1.06589 3.76611C1.08914 3.73442 1.11325 3.70146 1.13779 3.6685C1.15027 3.6516 1.16232 3.63554 1.17481 3.61949C1.20796 3.57512 1.2411 3.53329 1.27425 3.49061C1.63242 3.03216 2.02373 2.61384 2.43701 2.2475C2.91528 1.82411 3.42928 1.46369 3.96438 1.1772C4.77112 0.744524 5.64502 0.470718 6.56153 0.362125C6.86675 0.325786 7.1823 0.307617 7.5 0.307617C7.8177 0.307617 8.13325 0.326209 8.43847 0.362125C9.35498 0.470295 10.2289 0.744523 11.0365 1.17636C11.5729 1.46326 12.0869 1.82327 12.5639 2.24665C12.9767 2.61215 13.3671 3.02877 13.7249 3.48596C13.7533 3.52146 13.7787 3.55484 13.8037 3.58779L13.8239 3.61442C13.8394 3.6347 13.8549 3.65498 13.8695 3.67484C13.8919 3.70526 13.9139 3.73442 13.935 3.76315C14.0822 3.96555 14.2251 4.17597 14.3581 4.38851L14.4145 4.48062C14.4348 4.51358 14.4546 4.54612 14.4735 4.57781C14.8179 5.15457 15 5.81331 15 6.48262C15 7.15192 14.8179 7.81024 14.4739 8.387C14.4498 8.42799 14.4257 8.46771 14.4012 8.50743C14.381 8.54039 14.3616 8.57165 14.3418 8.60334L14.331 8.62025C14.3151 8.6456 14.2992 8.67053 14.2828 8.69588L14.269 8.71701C14.2479 8.74954 14.2264 8.7825 14.2045 8.81546L14.1666 8.87292C14.1545 8.89067 14.1429 8.90842 14.1304 8.92616L14.0951 8.97771C14.0641 9.0225 14.0314 9.06983 13.997 9.118L13.9337 9.20546C13.91 9.23842 13.8863 9.27011 13.8626 9.3018C13.8493 9.31955 13.8372 9.33603 13.8248 9.35209C13.7916 9.39603 13.7589 9.43828 13.7253 9.48054L13.7197 9.4873C13.6827 9.53378 13.6452 9.58068 13.6074 9.62674C13.2884 10.0163 12.9367 10.3852 12.5608 10.7232L12.4778 10.798C12.0576 11.1606 11.6103 11.4749 11.1458 11.7335L11.0339 11.7918C10.225 12.2254 9.35154 12.4996 8.43804 12.6069L8.31793 12.6209C8.0506 12.6483 7.77551 12.6623 7.49914 12.6623L7.5 12.6627ZM1.81753 5.32612C1.60917 5.67768 1.49897 6.07867 1.49897 6.48515C1.49897 6.68797 1.52609 6.88995 1.5799 7.08558C1.63371 7.28122 1.71335 7.46925 1.81753 7.64418C2.60705 8.96926 4.39487 11.1918 7.5 11.1918C7.92059 11.1918 8.33601 11.15 8.73422 11.0676C8.81558 11.0511 8.90125 11.0313 8.9882 11.0093C9.34939 10.9176 9.70368 10.7904 10.0412 10.6315C10.1096 10.5998 10.1798 10.5652 10.2547 10.5259C10.2904 10.5069 10.3253 10.4887 10.3593 10.4701C10.4454 10.4232 10.5307 10.3742 10.6124 10.3243C10.6938 10.2753 10.7752 10.2229 10.8539 10.1697C10.8884 10.1469 10.9237 10.1224 10.959 10.0974C11.0326 10.0459 11.0998 9.99688 11.163 9.94871C11.1923 9.92674 11.2224 9.9035 11.2522 9.87984C12.179 9.15307 12.8135 8.26278 13.182 7.64418C13.3908 7.29178 13.501 6.89121 13.501 6.48473C13.501 6.07825 13.3908 5.67726 13.1825 5.3257C12.393 4.00019 10.6056 1.77763 7.5 1.77763C7.07941 1.77763 6.66399 1.81947 6.26578 1.90186C6.18442 1.91834 6.09919 1.9382 6.0118 1.96017C5.65277 2.05102 5.29847 2.1782 4.95882 2.33792C4.8809 2.37468 4.81116 2.40933 4.74486 2.44356L4.7397 2.44609C4.70655 2.46384 4.67297 2.48116 4.64025 2.49933C4.56147 2.54243 4.47882 2.58976 4.38799 2.64469C4.30576 2.69455 4.2244 2.74652 4.14562 2.79976C4.11075 2.82258 4.07588 2.84708 4.04058 2.87201C3.97515 2.91765 3.9067 2.96751 3.83739 3.0199C3.80769 3.0423 3.77755 3.06554 3.74742 3.0892C3.09609 3.60047 2.58983 4.19245 2.21832 4.71386V4.64795L1.8171 5.3257L1.81753 5.32612Z" fill="white" fill-opacity="0.4"/>
<path d="M7.49995 9.13256C6.67506 9.13256 5.89935 8.84046 5.31632 8.30972C4.73329 7.77897 4.41172 7.07338 4.41172 6.32346C4.41172 5.92612 4.76746 5.60254 5.20427 5.60254C5.64109 5.60254 5.99683 5.92612 5.99683 6.32346C5.99683 6.68889 6.15306 7.03195 6.43729 7.29048C6.72152 7.54902 7.09866 7.69072 7.49995 7.69072C7.90124 7.69072 8.28294 7.54488 8.56261 7.29048C8.84639 7.03236 9.00307 6.68889 9.00307 6.32346C9.00307 5.92612 9.35881 5.60254 9.79563 5.60254C10.2324 5.60254 10.5882 5.92612 10.5882 6.32346C10.5882 7.07379 10.2671 7.77938 9.68403 8.30972C9.10055 8.84005 8.32485 9.13256 7.49995 9.13256Z" fill="white" fill-opacity="0.4"/>
</svg>
