<svg width="27" height="27" viewBox="0 0 27 27" fill="none" xmlns="http://www.w3.org/2000/svg">
<path d="M13.8444 26.3139C21.1108 26.3139 27.0014 20.4233 27.0014 13.1569C27.0014 5.89056 21.1108 0 13.8444 0C6.57806 0 0.6875 5.89056 0.6875 13.1569C0.6875 20.4233 6.57806 26.3139 13.8444 26.3139Z" fill="#1679F1"/>
<path d="M13.8444 0.751825C11.391 0.751903 8.99267 1.47949 6.95273 2.84259C4.91279 4.20568 3.32286 6.14307 2.38398 8.40976C1.4451 10.6764 1.19944 13.1706 1.67806 15.5769C2.15668 17.9832 3.33809 20.1936 5.07289 21.9285C6.22198 23.0931 7.59009 24.0189 9.09844 24.6525C10.6068 25.2862 12.2256 25.6153 13.8616 25.6207C15.4977 25.6262 17.1187 25.308 18.6312 24.6845C20.1438 24.0609 21.5181 23.1443 22.6749 21.9874C23.8318 20.8306 24.7484 19.4563 25.372 17.9437C25.9955 16.4312 26.3137 14.8102 26.3082 13.1741C26.3028 11.5381 25.9737 9.9193 25.34 8.41094C24.7064 6.90259 23.7806 5.53448 22.616 4.38539C21.4668 3.22985 20.0998 2.31371 18.5942 1.69001C17.0885 1.06631 15.4741 0.747427 13.8444 0.751825ZM13.8444 0C16.4466 0 18.9904 0.771641 21.154 2.21734C23.3177 3.66305 25.004 5.71788 25.9999 8.12199C26.9957 10.5261 27.2562 13.1715 26.7486 15.7237C26.2409 18.2759 24.9878 20.6203 23.1478 22.4603C21.3078 24.3003 18.9634 25.5534 16.4112 26.0611C13.859 26.5687 11.2136 26.3082 8.80949 25.3124C6.40538 24.3165 4.35055 22.6302 2.90484 20.4665C1.45914 18.3029 0.6875 15.7591 0.6875 13.1569C0.6875 9.6675 2.07367 6.32098 4.54108 3.85358C7.00848 1.38617 10.355 0 13.8444 0Z" fill="white"/>
<path d="M14.7156 9.906C14.7062 9.83444 14.7126 9.76172 14.7343 9.6929C14.7561 9.62408 14.7928 9.56087 14.8417 9.50779C14.8906 9.45471 14.9506 9.41305 15.0174 9.38573C15.0842 9.35841 15.1563 9.34606 15.2284 9.34966H16.5313V7.35813L14.7269 7.34381C14.4001 7.31648 14.0713 7.36049 13.7632 7.47276C13.4551 7.58503 13.175 7.76288 12.9424 7.99404C12.7098 8.22521 12.5303 8.50417 12.4161 8.81158C12.3019 9.11899 12.2559 9.44754 12.2812 9.77449V10.8271H11.1279V13.1577H12.285V18.9708H14.6156V13.1577H16.3448L16.4328 12.2495L16.5643 10.8436H14.7194V9.90683L14.7156 9.906Z" fill="white"/>
</svg>
