<svg width="30" height="30" viewBox="0 0 30 30" fill="none" xmlns="http://www.w3.org/2000/svg">
<rect x="0.188477" y="0.686768" width="29.2" height="29.2" rx="8" fill="#F7F7FF"/>
<path d="M14.7886 8.8041C14.3171 8.8041 13.935 9.18628 13.935 9.65772V20.9155C13.935 21.387 14.3171 21.7692 14.7886 21.7692C15.26 21.7692 15.6422 21.387 15.6422 20.9155V9.65772C15.6422 9.18628 15.26 8.8041 14.7886 8.8041Z" fill="#6F6C90" stroke="#6F6C90" stroke-width="0.3" stroke-linecap="round"/>
<path d="M9.15967 14.433C8.68823 14.433 8.30605 14.8152 8.30605 15.2866C8.30605 15.7581 8.68823 16.1402 9.15967 16.1402H20.4175C20.8889 16.1402 21.2711 15.7581 21.2711 15.2866C21.2711 14.8152 20.8889 14.433 20.4175 14.433H9.15967Z" fill="#6F6C90" stroke="#6F6C90" stroke-width="0.3" stroke-linecap="round"/>
</svg>
