<svg width="16" height="16" viewBox="0 0 16 16" fill="none" xmlns="http://www.w3.org/2000/svg">
<path fill-rule="evenodd" clip-rule="evenodd" d="M8 2.07692C4.72878 2.07692 2.07692 4.72878 2.07692 8C2.07692 11.2712 4.72878 13.9231 8 13.9231C11.2713 13.9231 13.9231 11.2713 13.9231 8C13.9231 4.72878 11.2712 2.07692 8 2.07692ZM1 8C1 4.13401 4.13401 1 8 1C11.866 1 15 4.13401 15 8C15 11.866 11.866 15 8 15C4.13401 15 1 11.866 1 8ZM5.43338 5.67751C5.78298 4.61742 6.81079 3.87179 8 3.87179C9.46182 3.87179 10.6923 5.0068 10.6923 6.46154C10.6923 7.03606 10.5136 7.46339 10.2296 7.80145C10.0044 8.06954 9.71337 8.27433 9.48392 8.43579C9.45121 8.45881 9.41974 8.48095 9.3899 8.50226C9.12689 8.69013 8.92872 8.85054 8.78529 9.06682C8.6498 9.27113 8.53846 9.47518 8.53846 9.96154C8.53846 10.2589 8.29738 10.5 8 10.5C7.70262 10.5 7.46154 10.2589 7.46154 9.96154C7.46154 9.29408 7.61943 8.87629 7.88779 8.47163C8.1482 8.07895 8.4885 7.82269 8.76395 7.62594C8.80007 7.60013 8.83468 7.57556 8.86787 7.552C9.10968 7.38035 9.27615 7.26218 9.405 7.10878C9.52488 6.96608 9.61539 6.78444 9.61539 6.46154C9.61539 5.65049 8.91718 4.94872 8 4.94872C7.26036 4.94872 6.65543 5.41043 6.45612 6.0148C6.36298 6.29722 6.05853 6.45066 5.77611 6.35752C5.49368 6.26439 5.34024 5.95993 5.43338 5.67751ZM8 11.0462C8.29738 11.0462 8.53846 11.2873 8.53846 11.5846V11.5897C8.53846 11.8871 8.29738 12.1282 8 12.1282C7.70262 12.1282 7.46154 11.8871 7.46154 11.5897V11.5846C7.46154 11.2873 7.70262 11.0462 8 11.0462Z" fill="#00B3FF" stroke="#00B3FF" stroke-width="0.4" stroke-linecap="round" stroke-linejoin="round"/>
</svg>
