<svg width="8" height="8" viewBox="0 0 8 8" fill="none" xmlns="http://www.w3.org/2000/svg">
<path d="M2.74835 0.176437C1.82129 0.176437 1.06761 0.930113 1.06761 1.85717C1.06761 2.76653 1.77883 3.50252 2.70588 3.53436C2.73419 3.53082 2.7625 3.53082 2.78373 3.53436H2.8085C3.24349 3.51985 3.65579 3.33674 3.95822 3.02374C4.26065 2.71075 4.4295 2.2924 4.42908 1.85717C4.42908 0.930113 3.6754 0.176437 2.74835 0.176437ZM4.54584 4.47522C3.55863 3.81708 1.94867 3.81708 0.954386 4.47522C0.505011 4.77598 0.257324 5.1829 0.257324 5.61812C0.257324 6.05334 0.505011 6.45671 0.950847 6.75394C1.44622 7.08655 2.09728 7.25285 2.74835 7.25285C3.39941 7.25285 4.05047 7.08655 4.54584 6.75394C4.99168 6.45318 5.23937 6.0498 5.23937 5.61104C5.23583 5.17582 4.99168 4.77244 4.54584 4.47522ZM6.63703 2.06523C6.69364 2.75167 6.20535 3.3532 5.52951 3.43458H5.51182C5.49059 3.43458 5.46936 3.43458 5.45167 3.44166C5.10845 3.45935 4.79353 3.34966 4.55646 3.14797C4.92091 2.82244 5.12968 2.33414 5.08722 1.80339C5.06294 1.52739 4.96921 1.26203 4.81476 1.03202C5.00017 0.941818 5.20474 0.898079 5.41082 0.904573C5.6169 0.911068 5.81831 0.967601 5.99767 1.0693C6.17703 1.17099 6.32895 1.3148 6.44034 1.4883C6.55173 1.66181 6.61923 1.85981 6.63703 2.06523Z" fill="white"/>
<path d="M7.3434 5.33896C7.31509 5.68218 7.09571 5.9794 6.72772 6.18109C6.37388 6.3757 5.92805 6.4677 5.48575 6.45708C5.74051 6.22709 5.88913 5.94048 5.91743 5.63618C5.95282 5.19742 5.74405 4.77635 5.32652 4.44021C5.08945 4.25267 4.81346 4.10406 4.5127 3.99437C5.29468 3.76791 6.27835 3.92006 6.88341 4.40836C7.20894 4.6702 7.37525 4.99927 7.3434 5.33896Z" fill="white"/>
</svg>
