<svg width="10" height="10" viewBox="0 0 10 10" fill="none" xmlns="http://www.w3.org/2000/svg">
<path d="M3.84942 0.771927C2.66287 0.771927 1.69823 1.73656 1.69823 2.92311C1.69823 4.08702 2.60852 5.02901 3.79507 5.06977C3.8313 5.06524 3.86753 5.06524 3.89471 5.06977H3.92641C4.48316 5.0512 5.01087 4.81683 5.39795 4.41622C5.78503 4.01562 6.00115 3.48018 6.00061 2.92311C6.00061 1.73656 5.03597 0.771927 3.84942 0.771927ZM6.15006 6.27398C4.88652 5.43163 2.82591 5.43163 1.55331 6.27398C0.97815 6.65893 0.661133 7.17975 0.661133 7.73679C0.661133 8.29384 0.97815 8.81012 1.54878 9.19054C2.18281 9.61625 3.01612 9.82911 3.84942 9.82911C4.68272 9.82911 5.51602 9.61625 6.15006 9.19054C6.72069 8.80559 7.03771 8.28931 7.03771 7.72773C7.03318 7.17069 6.72069 6.65441 6.15006 6.27398ZM8.82659 3.18941C8.89905 4.068 8.27407 4.8379 7.40907 4.94206H7.38642C7.35925 4.94206 7.33208 4.94206 7.30943 4.95112C6.87014 4.97376 6.46707 4.83337 6.16364 4.57523C6.63011 4.15858 6.89731 3.5336 6.84297 2.85428C6.81189 2.50103 6.69193 2.16139 6.49425 1.86699C6.73155 1.75155 6.99338 1.69556 7.25715 1.70388C7.52091 1.71219 7.7787 1.78455 8.00826 1.91471C8.23783 2.04487 8.43228 2.22892 8.57485 2.451C8.71741 2.67307 8.80381 2.9265 8.82659 3.18941Z" fill="#070808"/>
<path d="M9.73194 7.37947C9.69571 7.81877 9.41492 8.19919 8.94393 8.45733C8.49104 8.70642 7.92041 8.82417 7.35431 8.81058C7.68039 8.51621 7.8706 8.14937 7.90683 7.75989C7.95211 7.19832 7.68491 6.65939 7.15051 6.22915C6.84708 5.98913 6.49384 5.79892 6.10889 5.65852C7.10976 5.36868 8.36877 5.56342 9.14319 6.18839C9.55984 6.52353 9.7727 6.94471 9.73194 7.37947Z" fill="#070808"/>
</svg>
