<svg width="28" height="21" viewBox="0 0 28 21" fill="none" xmlns="http://www.w3.org/2000/svg">
<path d="M13.9229 7.0448C11.9697 7.0448 10.3867 5.47106 10.3867 3.53629C10.3867 1.60151 11.9419 0 13.9229 0C15.904 0 17.4592 1.583 17.4592 3.53629C17.4592 5.48957 15.8762 7.0448 13.9229 7.0448ZM13.9229 0.907214C12.4695 0.907214 11.2939 2.09215 11.2939 3.53629C11.2939 4.98042 12.451 6.13759 13.9229 6.13759C15.3949 6.13759 16.552 4.98968 16.552 3.53629C16.552 2.08289 15.3949 0.907214 13.9229 0.907214Z" fill="white"/>
<path d="M22.3841 7.0448C20.4308 7.0448 18.8478 5.47106 18.8478 3.53629C18.8478 1.60151 20.3845 0 22.3564 0C24.3282 0 25.8926 1.583 25.8926 3.53629C25.8926 5.48957 24.3559 7.0448 22.3841 7.0448ZM22.3841 0.907214C20.9307 0.907214 19.7551 2.09215 19.7551 3.53629C19.7551 4.98042 20.9122 6.13759 22.3841 6.13759C23.856 6.13759 25.0132 4.98968 25.0132 3.53629C25.0132 2.08289 23.856 0.907214 22.3841 0.907214Z" fill="white"/>
<path d="M10.6551 20.1904C9.56278 20.1904 8.59077 19.3294 8.45191 18.2371L8.43339 18.1167H2.23101C0.999788 18.1167 0 17.1169 0 15.8857V12.9789C0 10.5998 1.907 8.66504 4.2491 8.66504H6.59119C7.68355 8.66504 8.72963 9.08162 9.55352 9.84072L9.6461 9.93329L9.73867 9.84072C10.5626 9.08162 11.6086 8.66504 12.701 8.66504H15.0431C16.1355 8.66504 17.1815 9.08162 18.0054 9.84072L18.098 9.93329L18.1906 9.84072C19.0052 9.08162 20.0606 8.66504 21.1529 8.66504H23.495C25.8741 8.66504 27.8089 10.5998 27.8089 12.9789V16.182C27.8089 17.2651 26.9572 18.1167 25.8741 18.1167H19.3755L19.357 18.2371C19.2181 19.348 18.2646 20.1904 17.1538 20.1904H10.6551ZM12.7658 9.57225C10.8866 9.57225 9.35912 11.0997 9.35912 12.9789V17.9594C9.35912 18.6907 9.95159 19.2831 10.6829 19.2831H17.1815C17.9129 19.2831 18.5053 18.6907 18.5053 17.9594V12.9789C18.5053 11.0997 16.9779 9.57225 15.0986 9.57225H12.7565H12.7658ZM21.1899 9.57225C20.292 9.57225 19.4588 9.91477 18.783 10.5628L18.6997 10.6368L18.7553 10.7294C19.1719 11.4145 19.3848 12.1736 19.3848 12.9697V17.2003H25.9019C26.4759 17.2003 26.9295 16.7467 26.9295 16.1727V12.9697C26.9295 11.0904 25.402 9.56299 23.5228 9.56299H21.1807L21.1899 9.57225ZM4.3139 9.57225C2.43467 9.57225 0.907215 11.0997 0.907215 12.9789V15.8857C0.907215 16.6171 1.49968 17.2095 2.23101 17.2095H8.45191V12.9789C8.45191 12.1828 8.66483 11.4237 9.0814 10.7387L9.13695 10.6461L9.05363 10.572C8.39636 9.94254 7.51692 9.58151 6.63748 9.58151H4.29538L4.3139 9.57225Z" fill="white"/>
<path d="M5.49881 7.0448C3.54552 7.0448 1.96252 5.47106 1.96252 3.53629C1.96252 1.60151 3.50849 0 5.47104 0C7.43358 0 9.00732 1.583 9.00732 3.53629C9.00732 5.48957 7.46136 7.0448 5.49881 7.0448ZM5.49881 0.907214C4.04542 0.907214 2.86974 2.09215 2.86974 3.53629C2.86974 4.98042 4.0269 6.13759 5.49881 6.13759C6.97072 6.13759 8.12788 4.98968 8.12788 3.53629C8.12788 2.08289 6.97072 0.907214 5.49881 0.907214Z" fill="white"/>
</svg>
