<?xml  version="1.0" encoding="utf-8"?><svg width='20' height='20'  version="1.1" id="Layer_1" xmlns="http://www.w3.org/2000/svg" xmlns:xlink="http://www.w3.org/1999/xlink" x="0px" y="0px" viewBox="0 0 122.88 122.42" style="enable-background:new 0 0 122.88 122.42" xml:space="preserve"><style type="text/css"><![CDATA[
	.st0{fill-rule:evenodd;clip-rule:evenodd;}
]]></style><g><path class="st0" d="M99.52,40.18c5.66,5.21,13.22,11.64,17.27,18.98l0.56,1.01l-0.56,1c-5.71,10.37-15.85,18.9-24.58,24.78 c-7.34,4.94-15.51,8.03-24.19,8.79l5.59-9.68c4.36-1.18,8.5-3.12,12.36-5.73c6.79-4.57,15.29-11.16,19.86-19.17 c-2.47-4.33-7.94-8.25-11.12-11.66L99.52,40.18L99.52,40.18L99.52,40.18z M24.74,0H93.7L76.73,28.22 c-5.56-2.12-11.44-3.27-17.54-3.27c-10.26,0-22.54,3.24-31.06,8.98C19.38,39.81,11.86,48.34,6.15,58.7l-0.56,1.01l0.56,1.01 c5.71,10.36,13.24,18.89,21.98,24.77c3.15,2.12,9.05,3.89,12.48,5.29l-18.19,31.52C9.89,121.13,0,110.51,0,97.69V24.74 C0,11.13,11.13,0,24.74,0L24.74,0z M112.17,4.39c6.46,4.47,10.71,11.94,10.71,20.35v72.95c0,13.61-11.13,24.74-24.74,24.74H42.23 L112.17,4.39L112.17,4.39z M45.01,83.17l4.15-7.2c-4.93-3.14-8.21-8.65-8.21-14.93c0-9.77,7.92-17.69,17.69-17.69 c2.95,0,5.74,0.72,8.19,2.01l5.49-9.49c-4.18-1.54-8.59-2.37-13.14-2.37c-7.98,0-18.13,2.54-24.81,7.04 c-6.79,4.57-12.69,11.16-17.26,19.18c4.56,8.02,10.47,14.61,17.26,19.17C36.93,80.61,42.22,82.05,45.01,83.17L45.01,83.17 L45.01,83.17z M61.25,55.04l5.58-9.68c-1.51-0.79-3.13-1.36-4.8-1.68c-1.2,1.81-1.92,4-1.92,6.36 C60.11,51.84,60.53,53.54,61.25,55.04L61.25,55.04L61.25,55.04L61.25,55.04z"/></g></svg>