<svg width="25" height="17" viewBox="0 0 25 17" fill="none" xmlns="http://www.w3.org/2000/svg">
<path d="M19.0694 17C18.795 16.9989 18.5319 16.8892 18.3378 16.6952C18.1437 16.5011 18.0343 16.2381 18.0332 15.9636V14.3815C18.0332 14.1631 18.2101 13.986 18.4287 13.986C18.5336 13.986 18.6341 14.0277 18.7084 14.1018C18.7826 14.176 18.8243 14.2766 18.8243 14.3815V15.9636C18.8253 16.0293 18.8523 16.0918 18.8993 16.1376C18.9442 16.1833 19.0054 16.2091 19.0693 16.2089H20.9403C21.0786 16.2066 21.1895 16.0939 21.1895 15.9557V14.0967C21.1895 13.8783 21.3666 13.7012 21.585 13.7012C21.6899 13.7012 21.7906 13.7428 21.8647 13.817C21.9389 13.8912 21.9805 13.9918 21.9805 14.0967V15.9596C21.9786 16.2308 21.8716 16.4907 21.682 16.6848C21.4925 16.8788 21.235 16.9916 20.964 16.9999L19.0694 17Z" fill="black"/>
<path d="M3.58401 16.9999C3.30961 16.9989 3.0465 16.8892 2.85244 16.6952C2.65839 16.5011 2.54891 16.238 2.54785 15.9636V14.1165C2.54785 13.8981 2.72478 13.7209 2.94338 13.7209C3.04826 13.7209 3.14874 13.7626 3.22307 13.8368C3.29723 13.9109 3.33891 14.0116 3.33891 14.1165V15.9636C3.33997 16.0293 3.36698 16.0918 3.41395 16.1375C3.45951 16.1847 3.52254 16.2105 3.58806 16.2089H5.45499C5.59325 16.2066 5.70413 16.0939 5.70413 15.9557V14.4052C5.70413 14.1867 5.88124 14.0096 6.09966 14.0096C6.20455 14.0096 6.3052 14.0513 6.37936 14.1255C6.45352 14.1996 6.49519 14.3003 6.49519 14.4052V15.9557C6.49413 16.2309 6.38483 16.4948 6.19095 16.69C5.99707 16.8855 5.73417 16.9967 5.45889 16.9999L3.58401 16.9999Z" fill="black"/>
<path d="M21.0865 6.16669C20.868 6.17216 20.6865 5.99947 20.681 5.78105C20.6756 5.56263 20.8483 5.38111 21.0667 5.37564C22.4035 5.31242 23.4082 5.07511 23.681 4.7587H23.6812C23.7176 4.7271 23.7367 4.68013 23.7326 4.6321C23.7278 4.5454 23.6842 4.46559 23.6139 4.41456C23.353 4.19314 22.6806 4.10202 21.8577 4.17724V4.39478C21.8568 4.64622 21.7564 4.88709 21.5785 5.06487C21.4007 5.24266 21.1599 5.34298 20.9085 5.34404H20.687C20.4686 5.34404 20.2915 5.16693 20.2915 4.94851C20.2915 4.73009 20.4686 4.55298 20.687 4.55298H20.9085C20.9503 4.55281 20.9904 4.53568 21.0193 4.50549C21.0502 4.47706 21.0675 4.4368 21.0667 4.39477V4.14951C21.0651 3.95952 21.1348 3.77606 21.2623 3.63533C21.39 3.49459 21.5658 3.40701 21.7549 3.39006C22.5223 3.3189 23.5584 3.33462 24.1281 3.80537C24.3575 3.99448 24.5003 4.26852 24.5236 4.56482C24.5468 4.82668 24.4592 5.08624 24.2824 5.28066C23.7287 5.90962 22.2534 6.11127 21.1182 6.16673L21.0865 6.16669Z" fill="black"/>
<path d="M3.44236 6.16649C2.29533 6.11105 0.815973 5.9094 0.278146 5.27653C0.0881532 5.08989 -0.0126723 4.83068 0.00127738 4.56458C0.025998 4.26864 0.168493 3.99512 0.396804 3.80513C0.962386 3.33438 1.97891 3.31865 2.76997 3.38982C2.95873 3.40766 3.13406 3.49541 3.26155 3.63597C3.38886 3.77652 3.45896 3.95963 3.45826 4.14925V4.39451C3.45808 4.48033 3.52659 4.5506 3.61241 4.55272H3.82995C4.04837 4.55272 4.22547 4.72983 4.22547 4.94825C4.22547 5.16667 4.04837 5.34378 3.82995 5.34378H3.61241C3.36132 5.34272 3.12101 5.24225 2.94372 5.06426C2.76661 4.88645 2.6672 4.6456 2.6672 4.39453V4.17699C1.84455 4.10177 1.17216 4.17699 0.910972 4.41431C0.840694 4.46534 0.797083 4.54515 0.792314 4.63185C0.788252 4.67987 0.807322 4.72685 0.843696 4.75845C1.11668 5.07487 2.12123 5.31219 3.45806 5.37538H3.45824C3.56312 5.37538 3.6636 5.41705 3.73793 5.49122C3.81209 5.56538 3.85377 5.66603 3.85377 5.77091C3.85377 5.87862 3.80997 5.98174 3.73228 6.05625C3.65459 6.13094 3.54988 6.17067 3.44235 6.16644L3.44236 6.16649Z" fill="black"/>
<path d="M3.80998 14.8049C3.40757 14.8067 3.01612 14.675 2.69667 14.4301C2.37742 14.1852 2.14858 13.8412 2.04597 13.4522C1.782 12.4809 1.62679 11.4834 1.58318 10.4778C1.56146 10.0655 1.56146 9.65209 1.58318 9.2398C1.63951 8.56297 1.84045 7.90613 2.17259 7.31356L3.23255 5.33592C3.79813 4.0268 5.24179 0.870354 6.08424 0.502355C6.32155 0.399591 6.9228 0.245263 9.38686 0.106828C10.6012 0.0436163 11.76 0.0118297 12.2187 0H12.2624C13.5044 0.0236611 17.618 0.126605 18.405 0.466677C19.2752 0.862204 20.8336 4.27965 21.2924 5.31968L22.3444 7.26572H22.3445C22.6703 7.86502 22.8633 8.52734 22.9101 9.20787C22.9361 9.65178 22.9361 10.0967 22.9101 10.5406C22.8692 11.5121 22.7233 12.4762 22.475 13.4161C22.3712 13.8067 22.141 14.1519 21.8205 14.3981C21.5 14.6441 21.1072 14.7774 20.7031 14.7768L3.80215 14.8046L3.80998 14.8049ZM12.2625 0.791068C11.8115 0.791068 10.6488 0.834505 9.44242 0.897896C7.02582 1.02044 6.51552 1.17088 6.4205 1.21432C6.0052 1.41596 4.81859 3.6825 3.95639 5.66786L2.86871 7.67727C2.59909 8.17573 2.43876 8.72576 2.39797 9.29098C2.37837 9.67697 2.37837 10.0639 2.39797 10.4499C2.43099 11.3944 2.56907 12.3323 2.80939 13.2463C2.86872 13.4661 2.99903 13.66 3.18002 13.798C3.36083 13.9361 3.58243 14.0105 3.81006 14.0096L20.7151 13.9819C20.944 13.9834 21.1668 13.9089 21.3487 13.77C21.5304 13.6312 21.661 13.4357 21.7197 13.2147C21.9467 12.3281 22.0793 11.4198 22.1152 10.5053C22.1411 10.0917 22.1411 9.67679 22.1152 9.26322C22.0769 8.6952 21.9164 8.14196 21.6446 7.64156L20.5767 5.66393C19.6906 3.65062 18.4963 1.38835 18.0849 1.18651C17.6735 0.984868 14.802 0.838487 12.2627 0.790987L12.2625 0.791068Z" fill="black"/>
<path d="M12.6582 11.0589C12.3457 11.0589 12.0333 11.0589 11.7248 11.0352L8.92048 10.8929V10.8927C8.59029 10.8722 8.28127 10.7234 8.0595 10.4779C7.83773 10.2325 7.72083 9.9099 7.7339 9.57933C7.74697 9.24876 7.88893 8.93659 8.12943 8.70935C8.37892 8.47186 8.71494 8.34738 9.05889 8.36521C10.1584 8.41659 11.2975 8.45614 12.4486 8.48387C13.4731 8.48387 14.5092 8.44043 15.5139 8.40476C15.8572 8.39735 16.1886 8.52942 16.4324 8.77115C16.6763 9.01271 16.8115 9.34306 16.8073 9.68634C16.8076 10.0125 16.6826 10.3261 16.458 10.5625C16.2334 10.7988 15.9265 10.9397 15.6009 10.9559L13.4492 11.0391C13.1921 11.0509 12.9231 11.0589 12.6581 11.0589L12.6582 11.0589ZM8.98775 9.15644V9.15626C8.86732 9.15467 8.75096 9.20005 8.66338 9.28287C8.56962 9.3731 8.51559 9.49688 8.51311 9.62701C8.51276 9.88022 8.71123 10.0889 8.96391 10.1016L11.7642 10.244C12.314 10.2717 12.8756 10.2717 13.4254 10.244L15.5692 10.149V10.1491C15.8169 10.1366 16.0124 9.93425 16.0163 9.68635C16.0198 9.55427 15.9683 9.42678 15.8738 9.33426C15.7822 9.24226 15.6556 9.19335 15.5258 9.19988C14.5172 9.23555 13.477 9.26309 12.4288 9.2751C11.2422 9.25144 10.1111 9.21189 9.00749 9.16033L8.98775 9.15644Z" fill="black"/>
<path d="M18.5909 11.0987C18.3137 11.0971 18.0463 10.9945 17.8394 10.81C17.5922 10.5942 17.4484 10.2836 17.4438 9.95558V9.22C17.4493 8.93253 17.5634 8.65794 17.7629 8.45118C17.9624 8.24424 18.2328 8.12046 18.5197 8.10456L20.4657 7.96613C20.6905 7.95041 20.915 8.00233 21.1103 8.11498C21.3054 8.22781 21.4625 8.39627 21.5612 8.59897C21.6643 8.80009 21.7037 9.02787 21.6741 9.25175C21.6442 9.47582 21.5471 9.68542 21.3952 9.85282C20.6847 10.5817 19.7324 11.0262 18.7175 11.1026L18.5909 11.0987ZM20.521 8.72555L18.5909 8.89559C18.4102 8.90813 18.27 9.05857 18.2706 9.23974V9.97533C18.2713 10.0753 18.3144 10.1701 18.3892 10.2365C18.4599 10.3008 18.5552 10.3311 18.6502 10.3195C19.4699 10.2635 20.2413 9.91228 20.8217 9.33065C20.9128 9.22594 20.9323 9.07691 20.871 8.95242C20.8095 8.82794 20.6794 8.75236 20.5408 8.76102L20.521 8.72555Z" fill="black"/>
<path d="M5.9336 11.0432H5.79517C4.78108 10.9573 3.83326 10.5044 3.12922 9.76952C2.97543 9.59983 2.87796 9.3867 2.85041 9.15928C2.82269 8.93185 2.8663 8.70159 2.97507 8.49994C3.07519 8.29741 3.23411 8.12984 3.43099 8.01912C3.62787 7.90839 3.85354 7.8595 4.07848 7.87891L6.02045 8.02918H6.02063C6.30597 8.05319 6.57188 8.18351 6.76544 8.39469C6.95896 8.60569 7.06579 8.88202 7.06473 9.16843V9.90402C7.05961 10.2309 6.91588 10.5398 6.6692 10.7544C6.46667 10.9359 6.20551 11.0385 5.93361 11.0431L5.9336 11.0432ZM3.98368 8.67C3.84948 8.67123 3.72817 8.75016 3.6729 8.87253C3.61763 8.99489 3.63865 9.13827 3.72658 9.23963C4.30347 9.82605 5.07368 10.1831 5.89403 10.2442C5.98831 10.2555 6.08296 10.2267 6.155 10.1651C6.22828 10.0978 6.27119 10.0035 6.27366 9.90409V9.17235C6.27631 8.99189 6.13735 8.84074 5.95724 8.8282L4.01527 8.67387H3.98366L3.98368 8.67Z" fill="black"/>
<path d="M15.5928 13.2107H8.93215C8.71373 13.2107 8.53662 13.0338 8.53662 12.8152C8.53662 12.5968 8.71373 12.4197 8.93215 12.4197H15.5928C15.8112 12.4197 15.9884 12.5968 15.9884 12.8152C15.9884 13.0338 15.8112 13.2107 15.5928 13.2107Z" fill="black"/>
<path d="M5.88658 5.5966C5.74655 5.6019 5.61413 5.53268 5.53855 5.41473C5.46651 5.30225 5.45609 5.16082 5.51083 5.03898L6.85562 2.04482C6.92166 1.9025 7.02549 1.78102 7.15597 1.69379C7.28646 1.60656 7.43849 1.55695 7.59529 1.55041L12.2625 1.41992L16.9379 1.5347C17.0956 1.53946 17.2488 1.58838 17.3802 1.67578C17.5116 1.76319 17.6159 1.88555 17.6814 2.02911L19.0342 5.01531C19.0891 5.1375 19.0783 5.27929 19.0057 5.39194C18.933 5.50442 18.8083 5.57258 18.6741 5.57293L5.88257 5.59659L5.88658 5.5966ZM12.2625 2.21098L7.62283 2.34147C7.60411 2.34129 7.58699 2.35224 7.57922 2.36919L6.48765 4.80555L18.0529 4.78577L16.9533 2.3533H16.9532C16.9442 2.33759 16.9279 2.32717 16.9097 2.32576L12.2625 2.21098Z" fill="black"/>
</svg>
