<svg width="27" height="27" viewBox="0 0 27 27" fill="none" xmlns="http://www.w3.org/2000/svg">
<path d="M13.5007 26.3139C20.7671 26.3139 26.6576 20.4233 26.6576 13.1569C26.6576 5.89056 20.7671 0 13.5007 0C6.23431 0 0.34375 5.89056 0.34375 13.1569C0.34375 20.4233 6.23431 26.3139 13.5007 26.3139Z" fill="url(#paint0_linear_2161_257)"/>
<path d="M13.5007 0.751825C11.0472 0.751903 8.64892 1.47949 6.60898 2.84259C4.56904 4.20568 2.97911 6.14307 2.04023 8.40976C1.10135 10.6764 0.855686 13.1706 1.33431 15.5769C1.81293 17.9832 2.99434 20.1936 4.72914 21.9285C5.87823 23.0931 7.24634 24.0189 8.75469 24.6525C10.263 25.2862 11.8819 25.6153 13.5179 25.6207C15.1539 25.6262 16.7749 25.308 18.2875 24.6845C19.8 24.0609 21.1743 23.1443 22.3312 21.9874C23.4881 20.8306 24.4047 19.4563 25.0282 17.9437C25.6518 16.4312 25.97 14.8102 25.9645 13.1741C25.959 11.5381 25.63 9.9193 24.9963 8.41094C24.3626 6.90259 23.4368 5.53448 22.2722 4.38539C21.123 3.22985 19.756 2.31371 18.2504 1.69001C16.7448 1.06631 15.1304 0.747427 13.5007 0.751825ZM13.5007 0C16.1029 0 18.6466 0.771641 20.8103 2.21734C22.9739 3.66305 24.6603 5.71788 25.6561 8.12199C26.6519 10.5261 26.9125 13.1715 26.4048 15.7237C25.8972 18.2759 24.6441 20.6203 22.804 22.4603C20.964 24.3003 18.6197 25.5534 16.0675 26.0611C13.5153 26.5687 10.8699 26.3082 8.46574 25.3124C6.06163 24.3165 4.0068 22.6302 2.56109 20.4665C1.11539 18.3029 0.34375 15.7591 0.34375 13.1569C0.34375 9.6675 1.72992 6.32098 4.19733 3.85358C6.66473 1.38617 10.0112 0 13.5007 0Z" fill="white"/>
<path d="M19.2637 10.7753C19.2572 10.2871 19.1659 9.80378 18.9938 9.34688C18.8445 8.96138 18.6164 8.61128 18.3241 8.31897C18.0318 8.02665 17.6817 7.79855 17.2962 7.64925C16.8452 7.47999 16.3688 7.38847 15.8873 7.3786C15.267 7.35078 15.0708 7.34326 13.4965 7.34326C11.9221 7.34326 11.7206 7.34326 11.1049 7.3786C10.6236 7.38855 10.1474 7.48007 9.69673 7.64925C9.31119 7.79847 8.96105 8.02654 8.66872 8.31887C8.3764 8.61119 8.14833 8.96133 7.99911 9.34688C7.82956 9.79746 7.73828 10.2737 7.7292 10.755C7.70139 11.3753 7.69312 11.5723 7.69312 13.1466C7.69312 14.7209 7.69312 14.9217 7.7292 15.5382C7.73866 16.0197 7.82993 16.4961 7.99911 16.9471C8.14875 17.3324 8.37716 17.6823 8.66973 17.9744C8.96231 18.2664 9.3126 18.4942 9.69823 18.6432C10.1477 18.8193 10.6239 18.9175 11.1064 18.9334C11.7267 18.9612 11.9236 18.9695 13.498 18.9695C15.0723 18.9695 15.2738 18.9695 15.8895 18.9334C16.3711 18.924 16.8475 18.8327 17.2984 18.6635C17.6838 18.514 18.0338 18.2858 18.3261 17.9935C18.6184 17.7012 18.8465 17.3512 18.996 16.9659C19.1656 16.5148 19.2569 16.038 19.266 15.5562C19.2938 14.9359 19.302 14.7397 19.302 13.1646C19.302 11.5896 19.302 11.3911 19.2645 10.7738L19.2637 10.7753ZM13.4934 16.1231C12.9042 16.1231 12.3281 15.9483 11.8381 15.6209C11.3482 15.2936 10.9663 14.8282 10.7408 14.2838C10.5153 13.7394 10.4562 13.1403 10.5712 12.5623C10.6862 11.9844 10.9699 11.4535 11.3866 11.0368C11.8033 10.6201 12.3342 10.3363 12.9122 10.2214C13.4901 10.1064 14.0892 10.1654 14.6336 10.3909C15.1781 10.6164 15.6434 10.9983 15.9708 11.4883C16.2982 11.9783 16.4729 12.5543 16.4729 13.1436C16.473 13.5349 16.396 13.9224 16.2463 14.2839C16.0966 14.6454 15.8772 14.9739 15.6005 15.2506C15.3238 15.5273 14.9953 15.7468 14.6338 15.8965C14.2722 16.0462 13.8847 16.1232 13.4934 16.1231ZM16.5925 10.749C16.455 10.7492 16.3207 10.7086 16.2063 10.6323C16.092 10.5561 16.0028 10.4476 15.9501 10.3207C15.8974 10.1938 15.8836 10.0541 15.9103 9.91928C15.937 9.78447 16.0031 9.66062 16.1002 9.56339C16.1974 9.46616 16.3211 9.39993 16.4559 9.37306C16.5907 9.34619 16.7304 9.35991 16.8574 9.41246C16.9844 9.46502 17.0929 9.55406 17.1693 9.66832C17.2456 9.78257 17.2864 9.91691 17.2864 10.0543C17.2865 10.1455 17.2686 10.2359 17.2338 10.3201C17.199 10.4044 17.1479 10.481 17.0834 10.5455C17.019 10.61 16.9424 10.6612 16.8582 10.6961C16.774 10.7311 16.6837 10.749 16.5925 10.749Z" fill="white"/>
<path d="M15.4283 13.144C15.4281 13.5267 15.3145 13.9007 15.1018 14.2189C14.889 14.537 14.5867 14.785 14.2331 14.9313C13.8795 15.0777 13.4904 15.1159 13.1151 15.0411C12.7397 14.9664 12.395 14.782 12.1244 14.5113C11.8538 14.2407 11.6696 13.8958 11.595 13.5205C11.5204 13.1451 11.5587 12.756 11.7052 12.4025C11.8517 12.0489 12.0998 11.7467 12.418 11.5341C12.7362 11.3215 13.1103 11.208 13.4931 11.208C14.0064 11.2082 14.4986 11.4123 14.8615 11.7753C15.2244 12.1383 15.4283 12.6306 15.4283 13.144Z" fill="white"/>
<defs>
<linearGradient id="paint0_linear_2161_257" x1="4.21189" y1="2.4735" x2="22.3421" y2="24.5508" gradientUnits="userSpaceOnUse">
<stop stop-color="#FCA442"/>
<stop offset="0.243" stop-color="#FD522C"/>
<stop offset="0.456" stop-color="#DE2443"/>
<stop offset="0.724" stop-color="#BC2C6D"/>
<stop offset="1" stop-color="#863AB1"/>
</linearGradient>
</defs>
</svg>
