<svg width="26" height="28" viewBox="0 0 26 28" fill="none" xmlns="http://www.w3.org/2000/svg">
<path d="M0.195427 16.3008C0.195427 16.3008 0.195427 16.3008 0.195427 16.3102C1.01436 20.9818 4.31801 24.8345 8.81283 26.3421V27.04C8.81283 27.5519 9.2316 27.9706 9.74344 27.9706H16.2484C16.7602 27.9706 17.179 27.5519 17.179 27.04V26.3421C21.6738 24.8345 24.9868 20.9818 25.7964 16.3102C25.7964 16.3102 25.7964 16.3102 25.7964 16.3008C26.0569 14.8119 26.0569 13.2857 25.7964 11.7967C24.9868 7.12508 21.6738 3.27237 17.179 1.76479V1.06684C17.179 0.555003 16.7602 0.13623 16.2484 0.13623H9.74344C9.2316 0.13623 8.81283 0.555003 8.81283 1.06684V1.76479C4.31801 3.27237 1.00505 7.12508 0.195427 11.7967C-0.0651424 13.2857 -0.0651424 14.8119 0.195427 16.3008ZM2.3079 8.41862L3.52699 9.12588C3.08961 9.95412 2.7732 10.8382 2.56847 11.7502L1.20048 11.5082C1.42382 10.438 1.79607 9.39575 2.3079 8.42793V8.41862ZM12.9913 4.29604C18.3795 4.29604 22.744 8.66058 22.744 14.0488C22.744 19.437 18.3795 23.8015 12.9913 23.8015C7.60305 23.8015 3.23851 19.437 3.23851 14.0488C3.23851 8.66988 7.60305 4.30534 12.9913 4.29604ZM24.7913 11.4989L23.4233 11.7409C23.2186 10.8289 22.9022 9.94481 22.4648 9.11657L23.6839 8.40931C24.1957 9.37714 24.568 10.4194 24.7913 11.4896V11.4989ZM25.0705 14.0488C25.0705 14.5978 25.024 15.1469 24.9495 15.6866L23.5815 15.4447C23.7025 14.5234 23.7025 13.5835 23.5815 12.6529L24.9495 12.4109C25.024 12.9507 25.0612 13.4997 25.0705 14.0488ZM23.6839 19.6883L22.4648 18.981C22.9022 18.1528 23.2186 17.2687 23.4233 16.3567L24.7913 16.5986C24.568 17.6688 24.1957 18.7111 23.6839 19.6789V19.6883ZM12.9913 24.7321C13.3077 24.7321 13.6148 24.7135 13.9219 24.6856V27.0493H12.0606V24.6856C12.3677 24.7135 12.6748 24.7321 12.9913 24.7321ZM1.20048 16.5986L2.56847 16.3567C2.7732 17.2687 3.08961 18.1528 3.52699 18.981L2.3079 19.6883C1.79607 18.7204 1.42382 17.6781 1.20048 16.6079V16.5986ZM2.41027 12.6529C2.28929 13.5742 2.28929 14.5141 2.41027 15.4447L1.04228 15.6866C0.884075 14.5978 0.884075 13.4997 1.04228 12.4109L2.41027 12.6529ZM2.7732 20.4886L3.9923 19.7813C4.49482 20.5723 5.09972 21.2889 5.78836 21.9217L4.88568 22.9919C4.06675 22.2567 3.35949 21.4192 2.7732 20.4886ZM5.59294 23.5875L6.49563 22.5173C7.21219 23.0664 7.98459 23.5223 8.81283 23.876V25.3649C7.65888 24.9369 6.57007 24.3413 5.59294 23.5875ZM9.74344 24.2203C10.1994 24.3692 10.6647 24.4809 11.1393 24.5646V27.0493H9.74344V24.2203ZM14.8525 27.0493V24.5646C15.3271 24.4809 15.7924 24.3692 16.2484 24.2203V27.0493H14.8525ZM17.1697 23.876C17.9979 23.5223 18.7796 23.0664 19.4869 22.5173L20.3896 23.5875C19.4124 24.3413 18.3236 24.9369 17.1697 25.3649V23.876ZM21.1061 22.9919L20.2034 21.9217C20.8921 21.2889 21.497 20.5723 21.9995 19.7813L23.2186 20.4886C22.6323 21.4192 21.9251 22.2567 21.1061 22.9919ZM23.2186 7.60899L21.9995 8.31625C21.497 7.52524 20.8921 6.80867 20.2034 6.17586L21.1061 5.10566C21.9251 5.84084 22.6323 6.67839 23.2186 7.60899ZM20.3896 4.51008L19.4869 5.58027C18.7703 5.03122 17.9979 4.57522 17.1697 4.22159V2.73262C18.3236 3.1607 19.4124 3.75629 20.3896 4.51008ZM16.2484 1.04822V3.87726C14.1359 3.19792 11.8652 3.19792 9.74344 3.87726V1.04822H16.2484ZM8.81283 4.22159C7.98459 4.57522 7.20289 5.03122 6.49563 5.58027L5.59294 4.51008C6.57007 3.75629 7.65888 3.1607 8.81283 2.73262V4.22159ZM4.88568 5.10566L5.78836 6.17586C5.09972 6.80867 4.49482 7.52524 3.9923 8.31625L2.7732 7.60899C3.35949 6.67839 4.06675 5.84084 4.88568 5.10566Z" fill="white"/>
<path d="M12.9912 22.8713C17.8676 22.8713 21.8133 18.9256 21.8133 14.0492C21.8133 9.17282 17.8676 5.22705 12.9912 5.22705C8.11483 5.22705 4.16907 9.17282 4.16907 14.0492C4.16907 18.9163 8.12414 22.862 12.9912 22.8713ZM12.9912 6.15766C17.3464 6.15766 20.8827 9.69396 20.8827 14.0492C20.8827 18.4044 17.3464 21.9407 12.9912 21.9407C8.63597 21.9407 5.09967 18.4044 5.09967 14.0492C5.09967 9.69396 8.63597 6.15766 12.9912 6.15766Z" fill="white"/>
<path d="M12.5259 8.0185H12.9633C13.2238 8.0185 13.4286 7.81376 13.4286 7.55319C13.4286 7.29262 13.2238 7.08789 12.9633 7.08789H12.5073C12.3863 7.08789 12.2653 7.13442 12.1816 7.22748C12.0978 7.31124 12.0513 7.43221 12.0513 7.55319C12.0513 7.81376 12.2653 8.0185 12.5259 8.0185Z" fill="white"/>
<path d="M8.81284 12.7177C9.07341 12.7177 9.27814 12.5129 9.27814 12.2524V11.7964C9.27814 11.5358 9.07341 11.3311 8.81284 11.3311C8.55227 11.3311 8.34753 11.5358 8.34753 11.7964V12.2524C8.34753 12.5129 8.55227 12.7177 8.81284 12.7177Z" fill="white"/>
<path d="M8.81284 14.9887C9.07341 14.9887 9.27814 14.7839 9.27814 14.5234V14.0674C9.27814 13.8068 9.07341 13.6021 8.81284 13.6021C8.55227 13.6021 8.34753 13.8068 8.34753 14.0674V14.5234C8.34753 14.7839 8.55227 14.9887 8.81284 14.9887Z" fill="white"/>
<path d="M14.5919 8.22307C14.7129 8.2696 14.8339 8.32544 14.9548 8.38128C15.1037 8.45572 15.2806 8.44642 15.4201 8.36266C15.5597 8.2696 15.6435 8.12071 15.6342 7.9532C15.6249 7.78569 15.5318 7.63679 15.3829 7.56234C15.234 7.48789 15.0758 7.41345 14.9176 7.35761C14.6757 7.27386 14.4151 7.39483 14.322 7.62748C14.229 7.86944 14.3499 8.13001 14.5919 8.22307Z" fill="white"/>
<path d="M10.3855 8.69745C10.4785 8.69745 10.5716 8.66953 10.6553 8.6137C10.767 8.53925 10.8787 8.4648 10.9904 8.40896C11.1393 8.33452 11.2323 8.17631 11.2323 8.01811C11.2323 7.85991 11.1579 7.6924 11.009 7.60864C10.8694 7.52489 10.6926 7.51558 10.5437 7.59003C10.3948 7.67379 10.2459 7.75754 10.1063 7.85991C9.93878 7.98089 9.87364 8.18562 9.92947 8.38105C9.99462 8.57647 10.1714 8.70676 10.3762 8.70676L10.3855 8.69745Z" fill="white"/>
<path d="M8.81284 17.2597C9.07341 17.2597 9.27814 17.0549 9.27814 16.7943V16.3383C9.27814 16.0778 9.07341 15.873 8.81284 15.873C8.55227 15.873 8.34753 16.0778 8.34753 16.3383V16.7943C8.34753 17.0549 8.55227 17.2597 8.81284 17.2597Z" fill="white"/>
<path d="M8.87803 10.4472C8.92456 10.4658 8.9804 10.4751 9.03623 10.4751C9.23166 10.4751 9.40847 10.3541 9.47362 10.168C9.52015 10.047 9.56668 9.92602 9.63182 9.80504C9.70627 9.65615 9.69696 9.47933 9.6039 9.33974C9.51084 9.20015 9.35264 9.1164 9.18513 9.1257C9.01762 9.1257 8.86872 9.22807 8.79428 9.37697C8.71983 9.52586 8.64538 9.68407 8.58954 9.84227C8.55232 9.95394 8.55232 10.0842 8.60815 10.1959C8.66399 10.3076 8.75705 10.3913 8.86872 10.4379L8.87803 10.4472Z" fill="white"/>
<path d="M9.01756 18.125C8.90589 18.1808 8.82213 18.2832 8.78491 18.3949C8.74768 18.5158 8.75699 18.6368 8.81283 18.7485C8.88727 18.8974 8.98034 19.0463 9.0734 19.1859C9.16646 19.3255 9.32466 19.3999 9.49217 19.3906C9.65968 19.3813 9.79927 19.2789 9.87372 19.13C9.94817 18.9811 9.92955 18.8043 9.83649 18.6647C9.76204 18.5531 9.6969 18.4414 9.63176 18.3204C9.57592 18.2087 9.47356 18.125 9.36188 18.0878C9.2409 18.0505 9.11993 18.0598 9.00826 18.1157L9.01756 18.125Z" fill="white"/>
<path d="M17.1696 13.0996C16.9091 13.0996 16.7043 13.3043 16.7043 13.5649V14.0209C16.7043 14.2815 16.9091 14.4862 17.1696 14.4862C17.4302 14.4862 17.635 14.2815 17.635 14.0209V13.5649C17.635 13.3043 17.4302 13.0996 17.1696 13.0996Z" fill="white"/>
<path d="M17.1696 15.3701C16.9091 15.3701 16.7043 15.5749 16.7043 15.8354V16.2914C16.7043 16.552 16.9091 16.7567 17.1696 16.7567C17.4302 16.7567 17.635 16.552 17.635 16.2914V15.8354C17.635 15.5749 17.4302 15.3701 17.1696 15.3701Z" fill="white"/>
<path d="M17.1137 17.6412C16.8718 17.5575 16.6112 17.6784 16.5181 17.9204C16.4716 18.0414 16.4251 18.1717 16.3599 18.2833C16.2855 18.4322 16.2948 18.609 16.3879 18.7486C16.4809 18.8882 16.6391 18.9627 16.8066 18.9534C16.9741 18.9441 17.123 18.8417 17.1975 18.7021C17.2719 18.5532 17.3371 18.395 17.4022 18.2368C17.4394 18.1251 17.4394 17.9948 17.3836 17.8832C17.3278 17.7715 17.2347 17.6877 17.123 17.6412H17.1137Z" fill="white"/>
<path d="M16.3414 9.7588C16.4624 9.98215 16.7416 10.0752 16.9649 9.95423C17.1882 9.83325 17.2813 9.55407 17.1603 9.33072C17.0859 9.18183 16.9928 9.03293 16.8998 8.89334C16.7509 8.68861 16.4624 8.63277 16.2576 8.77236C16.0436 8.92126 15.9971 9.20044 16.1367 9.41448C16.2111 9.52615 16.2762 9.63782 16.3414 9.7588Z" fill="white"/>
<path d="M13.4566 20.0884H13.0006C12.74 20.0884 12.5353 20.2931 12.5353 20.5537C12.5353 20.8143 12.74 21.019 13.0006 21.019H13.4845C13.6055 21.019 13.7265 20.9725 13.8102 20.8794C13.894 20.7956 13.9405 20.6747 13.9405 20.5537C13.9405 20.2931 13.7171 20.0884 13.4659 20.0884H13.4566Z" fill="white"/>
<path d="M16.7043 11.2944V11.7504C16.7043 12.011 16.9091 12.2157 17.1696 12.2157C17.4302 12.2157 17.635 12.011 17.635 11.7504V11.2944C17.635 11.0338 17.4302 10.8291 17.1696 10.8291C16.9091 10.8291 16.7043 11.0338 16.7043 11.2944Z" fill="white"/>
<path d="M11.3813 19.8746C11.2604 19.8281 11.1394 19.7723 11.0184 19.7164C10.7951 19.5955 10.5159 19.6885 10.3949 19.9119C10.2739 20.1352 10.367 20.4144 10.5903 20.5354C10.7392 20.6191 10.8974 20.6843 11.0556 20.7401C11.2976 20.8332 11.5582 20.7122 11.6512 20.4702C11.7443 20.2283 11.6233 19.9677 11.3813 19.8746Z" fill="white"/>
<path d="M15.0014 19.6974C14.8525 19.7718 14.7594 19.93 14.7501 20.0975C14.7501 20.265 14.8339 20.4232 14.9735 20.507C15.1131 20.5907 15.2899 20.6 15.4388 20.5163C15.5877 20.4325 15.7366 20.3488 15.8762 20.2464C16.0157 20.1534 16.0809 19.9858 16.0716 19.8276C16.0623 19.6694 15.9506 19.5205 15.8017 19.4461C15.6528 19.3809 15.476 19.3903 15.3364 19.4926C15.2247 19.5671 15.1131 19.6415 15.0014 19.7067V19.6974Z" fill="white"/>
<path d="M11.1393 18.2274C11.1393 18.7392 11.5581 19.158 12.0699 19.158H13.9311C14.4429 19.158 14.8617 18.7392 14.8617 18.2274V9.87055C14.8617 9.35871 14.4429 8.93994 13.9311 8.93994H12.0699C11.5581 8.93994 11.1393 9.35871 11.1393 9.87055V18.2274ZM13.9218 16.3755H12.0606V11.7318H13.9218V16.3755ZM12.0606 18.2274V17.2968H13.9218V18.2274H12.0606ZM13.9218 9.87055V10.8012H12.0606V9.87055H13.9218Z" fill="white"/>
</svg>
