<svg width="80" height="80" viewBox="0 0 80 80" xmlns="http://www.w3.org/2000/svg" xmlns:xlink="http://www.w3.org/1999/xlink">
    <defs>
        <path id="ghoiw3h7ka" d="M0 0h78.213v31.463H0z"/>
        <path d="M0 36.163C0 56.13 15.993 72.325 35.717 72.325c19.724 0 35.722-16.188 35.722-36.162C71.439 16.188 55.44 0 35.717 0 15.993 0 0 16.194 0 36.163z" id="0btzi3to3c"/>
        <path d="M0 36.163C0 56.13 15.993 72.325 35.717 72.325c19.724 0 35.722-16.188 35.722-36.162C71.439 16.188 55.44 0 35.717 0 15.993 0 0 16.194 0 36.163" id="8bcrk14abe"/>
        <path d="M0 36.154C0 56.122 15.992 72.31 35.72 72.31c19.726 0 35.719-16.187 35.719-36.155C71.439 16.187 55.446 0 35.719 0 15.992 0 0 16.187 0 36.154z" id="5bi3f213eg"/>
        <path d="M0 36.154C0 56.122 15.992 72.31 35.72 72.31c19.726 0 35.719-16.187 35.719-36.155C71.439 16.187 55.446 0 35.719 0 15.992 0 0 16.187 0 36.154z" id="ftwkjow6ki"/>
        <path d="M0 36.154C0 56.122 15.992 72.31 35.72 72.31c19.726 0 35.719-16.187 35.719-36.155C71.439 16.187 55.446 0 35.719 0 15.992 0 0 16.187 0 36.154z" id="a0khi65xtk"/>
    </defs>
    <g fill="none" fill-rule="evenodd">
        <path d="M40 .018c22.091 0 40 17.901 40 39.983 0 22.082-17.909 39.983-40 39.983S0 62.083 0 40C0 17.919 17.909.018 40 .018" fill="#0A5272"/>
        <path d="M79.056 31.245C75.062 13.364 59.094 0 40 0 20.906 0 4.938 13.364.942 31.245h78.114z" fill="#0A5272"/>
        <g transform="translate(.893 48.537)">
            <mask id="hw5tt2qoob" fill="#fff">
                <use xlink:href="#ghoiw3h7ka"/>
            </mask>
            <path d="M0 0c3.913 17.99 19.934 31.465 39.107 31.465C58.279 31.465 74.292 17.99 78.213 0H0z" fill="#0A5272" mask="url(#hw5tt2qoob)"/>
        </g>
        <path d="M39.998 3.838c-19.724 0-35.717 16.195-35.717 36.163 0 19.968 15.993 36.163 35.717 36.163 19.724 0 35.721-16.189 35.721-36.163 0-19.974-15.997-36.163-35.721-36.163" fill="#FFF"/>
        <g transform="translate(4.28 3.838)">
            <mask id="tg2p2qi6td" fill="#fff">
                <use xlink:href="#0btzi3to3c"/>
            </mask>
            <path d="M78.846 25.186s.014-9.836-.024-11.806H77.68c-.368 0-.738-.012-1.088-.018a1.08 1.08 0 0 1-.038-.17v-.73c0-.682 0-.682-.277-1.169-.012-.022-.042-.034-.069-.052-.06.202-.151.351-.404.202l-.067-.52h-.066c-.014.172-.03.346-.053.594l-.184-.404-.232.463c-.055-.301-.087-.485-.13-.713-.404.836-.222 1.679-.31 2.513h-2.1c-.686 0-1.359-.012-2.074.012v7.9l-2.513.567c-.022-.335-.038-.622-.056-.899-.607-.095-3.945-.077-4.362.026l-.048 1.742-4.764.808.09-1.796H57.48a.728.728 0 0 0-.263.113c-.073.034-.142.105-.212.107h-1.33v-4.86c-.657-.112-4.3-.087-4.691.036v3.838l-1.01.057v1.398h-1.8l-.161-4.522h-.663l-.166 4.528h-.592v-1.035h-.938V15.344c.02-.507.008-1.014-.036-1.52h-.68a1.132 1.132 0 0 1-.45-.048.683.683 0 0 0-.724 0c-.076.045-.295.014-.309-.03-.147-.437-.479-.334-.79-.311-.081 0-.202.024-.239-.02-.232-.215-.46-.156-.71-.045a.842.842 0 0 1-.304 0l-.067-.475h-.881l-.055.917h-1.57v1.152l-.404.202v10.29c-.631.036-1.213.038-1.842.015v-2.594l-1.083-.06v-8.74c0-.202.067-.416-.089-.606l-.515-.046a59.55 59.55 0 0 1-.124-.453h-1.386a96.314 96.314 0 0 1-.083-.68h-.659l-.109.72-.43-.387-.314.202a72.827 72.827 0 0 1-.06-.556h-.671l-.087.586h-1.237l-.055.537-.404.13v.634c0 .1.012.26-.042.293-.271.17-.18.428-.18.652v9.75c0 .184-.01.366-.018.59l-.59-.093v-2.909l-.405-.152v-1.276l-.996-.055v-1.897h-4.162v5.99l-.511-.022V21.43s-1.053-.146-1.385.131a.542.542 0 0 1-.525.018c-.267-.305-1.292-.22-1.292-.22v2.356l-.305.012v-.333H15.95l.083.345H14.59c-.03.178-.052.311-.078.48l-.47-.118v-4.506c0-.066 0-.161.04-.202.3-.272.16-.583.12-.915h-2.597c-.428 0-.859.016-1.287 0-.429-.016-.875-.095-1.316-.117a14.4 14.4 0 0 0-1.287 0c-.429.016-.847-.075-1.282.069.02.202-.07.376.174.551a.89.89 0 0 1 .315.695c-.012 1.01 0 2.02 0 3.03a2.585 2.585 0 0 1-.04.288l-2.953-.584v-5.097c0-1.685.018-3.352-.018-5.081-.229.089-.388.147-.544.202-.808.337-1.617.672-2.425 1.01-.446.202-.95.228-1.415.075-1.04-.36-2.05-.839-3.062-1.271v12.228s-.291 31.298 0 31.379c3.357.913 82.334 0 82.334 0l.047-30.67z" fill="#D5EEF4" mask="url(#tg2p2qi6td)"/>
        </g>
        <g transform="translate(4.28 3.838)">
            <mask id="etxwzb7vaf" fill="#fff">
                <use xlink:href="#8bcrk14abe"/>
            </mask>
            <path d="M36.406 48.377c20.587 0 37.276 5.688 37.276 12.705S56.993 73.788 36.406 73.788c-20.586 0-37.275-5.689-37.275-12.706 0-7.017 16.689-12.705 37.275-12.705" fill="#D5EEF4" mask="url(#etxwzb7vaf)"/>
        </g>
        <g>
            <path d="M26.206 55.119a.322.322 0 0 1 .186-.08.717.717 0 0 0 .202-.036c.145-.069.298-.122.455-.16.218-.063.423-.164.606-.298a.218.218 0 0 0 .111-.212c-.004-.215.011-.43.047-.64l.076-.568a.727.727 0 0 1 .015-.091.06.06 0 0 1 .028-.03.042.042 0 0 1 .04.011c.081.101.16.203.239.308.26.341.507.693.788 1.01a.31.31 0 0 0 .279.123c.053-.006.106-.016.158-.028l.444-.12v.01l.534-.14a.12.12 0 0 1 .046 0 .152.152 0 0 1-.01.035c-.16.203-.32.392-.477.59-.068.083-.129.17-.182.263-.147.27-.147.273-.05.562.026.087.062.171.109.25.153.274.321.54.503.796.055.073.101.152.15.228a.044.044 0 0 1 0 .043.083.083 0 0 1-.057.012.486.486 0 0 1-.105-.044c-.16-.091-.317-.186-.477-.28-.04-.021-.077-.05-.117-.068-.202-.093-.404-.18-.606-.27a.646.646 0 0 0-.34-.015.126.126 0 0 0-.073.05c-.058.071-.115.144-.168.219-.202.269-.38.54-.576.808-.067.082-.138.16-.214.234a.79.79 0 0 1-.034-.307c-.012-.151-.045-.305-.043-.456 0-.26-.072-.513-.068-.774 0-.02-.01-.055-.023-.059-.107-.03-.17-.125-.262-.18a2.344 2.344 0 0 0-.809-.305.558.558 0 0 1-.355-.23.125.125 0 0 1 .026-.161h.004zm-.74.155a.302.302 0 0 0 .12.138c.375.223.766.421 1.168.593.099.04.202.075.3.114a.956.956 0 0 1 .124.058.109.109 0 0 1 .059.095v.39c0 .42.02.84.06 1.259.012.12.014.244.025.365a.809.809 0 0 0 .026.136.06.06 0 0 0 .069.046c.03 0 .058-.016.088-.018a.32.32 0 0 0 .229-.137c.089-.116.184-.225.277-.338a9.133 9.133 0 0 0 .978-1.123.069.069 0 0 1 .097-.024c.289.12.568.262.865.367.101.037.19.101.287.146.14.064.279.125.422.18a.74.74 0 0 0 .203.036.202.202 0 0 0 .202-.166.342.342 0 0 0 0-.09c0-.07-.029-.136-.045-.22a3.664 3.664 0 0 0-.376-.79 5.141 5.141 0 0 1-.374-.736.26.26 0 0 1 .033-.279c.158-.244.33-.48.513-.705.127-.141.232-.303.348-.457a.378.378 0 0 0 .07-.303.125.125 0 0 0-.107-.107.606.606 0 0 0-.226.013c-.277.058-.554.123-.833.171-.226.04-.455.06-.683.087a.128.128 0 0 1-.121-.048c-.095-.122-.19-.24-.281-.364-.202-.277-.404-.554-.606-.834-.126-.176-.28-.326-.419-.487a.37.37 0 0 0-.05-.049.15.15 0 0 0-.202.029.514.514 0 0 0-.077.165c-.093.465-.184.93-.273 1.396a2.445 2.445 0 0 1-.14.534.238.238 0 0 1-.18.157 1.39 1.39 0 0 0-.43.154.635.635 0 0 1-.152.048.526.526 0 0 0-.13.043c-.144.073-.295.13-.452.165-.115.04-.229.085-.34.138a.178.178 0 0 0-.066.252z" fill="#EDC51B"/>
            <path d="M26.18 55.286c.083.12.211.203.355.23.286.051.56.155.809.306.093.054.155.15.262.18.013 0 .023.038.023.058 0 .26.068.513.068.774 0 .151.03.305.043.456a.79.79 0 0 0 .034.307c.076-.074.147-.152.214-.234.203-.265.384-.535.576-.808.053-.075.11-.148.168-.218a.127.127 0 0 1 .073-.05.646.646 0 0 1 .34.013c.202.091.404.178.606.271.04.018.077.047.117.069.16.093.317.188.477.279a.476.476 0 0 0 .105.044c.02.003.04-.001.057-.012a.044.044 0 0 0 0-.042c-.049-.077-.095-.156-.15-.229a8.78 8.78 0 0 1-.503-.796 1.1 1.1 0 0 1-.11-.25c-.096-.29-.096-.291.051-.562.054-.092.114-.18.182-.263.158-.202.318-.391.477-.59a.152.152 0 0 0 .01-.036.12.12 0 0 0-.046 0l-.534.142v-.01l-.444.119a1.342 1.342 0 0 1-.158.028.309.309 0 0 1-.279-.123c-.28-.326-.527-.677-.788-1.01l-.239-.307a.042.042 0 0 0-.04-.013.06.06 0 0 0-.028.03.727.727 0 0 0-.015.092l-.076.567a3.416 3.416 0 0 0-.047.64.218.218 0 0 1-.111.213 1.973 1.973 0 0 1-.606.299c-.157.037-.31.09-.455.16a.717.717 0 0 1-.202.036.322.322 0 0 0-.186.079.125.125 0 0 0-.03.161M54.208 55.286a.558.558 0 0 1-.355.23c-.286.052-.56.155-.809.306-.09.054-.153.15-.26.18-.013 0-.023.038-.023.058 0 .26-.068.513-.068.774 0 .151-.03.305-.043.456a.79.79 0 0 1-.034.307 2.938 2.938 0 0 1-.214-.234c-.203-.265-.384-.535-.576-.808a3.475 3.475 0 0 0-.168-.218.127.127 0 0 0-.073-.05.646.646 0 0 0-.34.013c-.202.091-.404.178-.606.271-.04.018-.077.047-.117.069-.16.093-.317.188-.477.279a.523.523 0 0 1-.105.044.083.083 0 0 1-.057-.012.05.05 0 0 1 0-.042c.05-.077.097-.156.152-.229a8.78 8.78 0 0 0 .503-.796 1.1 1.1 0 0 0 .11-.25c.096-.29.096-.291-.051-.562a1.894 1.894 0 0 0-.182-.263c-.158-.202-.317-.391-.477-.59 0 0 0-.024-.01-.036a.12.12 0 0 1 .046 0l.532.142v-.01l.444.119c.052.012.105.022.158.028a.309.309 0 0 0 .279-.123c.28-.326.528-.677.788-1.01l.239-.307a.042.042 0 0 1 .04-.013.06.06 0 0 1 .028.03c.007.03.012.061.015.092l.076.567c.035.212.05.426.045.64a.222.222 0 0 0 .113.213c.183.134.388.235.606.299.157.037.31.09.455.16a.717.717 0 0 0 .202.036.322.322 0 0 1 .186.079.13.13 0 0 1 .028.161m.635-.264a3.148 3.148 0 0 0-.34-.138 1.886 1.886 0 0 1-.45-.165.528.528 0 0 0-.132-.043.635.635 0 0 1-.151-.048 1.39 1.39 0 0 0-.43-.154.238.238 0 0 1-.18-.157 2.445 2.445 0 0 1-.14-.534c-.089-.467-.18-.933-.273-1.396a.518.518 0 0 0-.077-.165.15.15 0 0 0-.202-.029.37.37 0 0 0-.05.049c-.14.161-.293.31-.419.487-.202.28-.404.557-.606.834-.09.123-.188.242-.28.364a.128.128 0 0 1-.122.048c-.229-.026-.457-.046-.683-.087-.28-.048-.556-.113-.833-.171a.606.606 0 0 0-.226-.013.125.125 0 0 0-.107.107.372.372 0 0 0 .07.303c.115.154.22.316.348.457.183.226.354.462.513.705a.26.26 0 0 1 .033.279c-.105.255-.23.5-.374.735a3.654 3.654 0 0 0-.376.79c-.016.085-.035.152-.045.22a.342.342 0 0 0 0 .091.202.202 0 0 0 .202.166.74.74 0 0 0 .203-.036 6.46 6.46 0 0 0 .422-.18c.097-.045.186-.11.287-.146.297-.105.576-.246.865-.367a.069.069 0 0 1 .095.02l.002.004c.29.394.612.764.962 1.107l.016.016c.093.113.188.222.277.338a.32.32 0 0 0 .228.137c.03 0 .06.014.09.018a.06.06 0 0 0 .068-.046.809.809 0 0 0 .026-.136c0-.12.013-.244.025-.365.039-.418.059-.837.06-1.259v-.39c0-.04.023-.076.059-.095a.956.956 0 0 1 .123-.058c.101-.039.202-.073.301-.114.402-.172.792-.37 1.169-.593a.316.316 0 0 0 .119-.138.178.178 0 0 0-.067-.252" fill="#EDC51B"/>
            <path d="M54.208 55.286a.558.558 0 0 1-.355.23c-.286.052-.56.155-.809.306-.09.054-.153.15-.26.18-.013 0-.023.038-.023.058 0 .26-.068.513-.068.774 0 .151-.03.305-.043.456a.79.79 0 0 1-.034.307 2.938 2.938 0 0 1-.214-.234c-.203-.265-.384-.535-.576-.808a3.475 3.475 0 0 0-.168-.218.127.127 0 0 0-.073-.05.646.646 0 0 0-.34.013c-.202.091-.404.178-.606.271-.04.018-.077.047-.117.069-.16.093-.317.188-.477.279a.523.523 0 0 1-.105.044.083.083 0 0 1-.057-.012.05.05 0 0 1 0-.042c.05-.077.097-.156.152-.229a8.78 8.78 0 0 0 .503-.796 1.1 1.1 0 0 0 .11-.25c.096-.29.096-.291-.051-.562a1.894 1.894 0 0 0-.182-.263c-.158-.202-.317-.391-.477-.59 0 0 0-.024-.01-.036a.12.12 0 0 1 .046 0l.532.142v-.01l.444.119c.052.012.105.022.158.028a.309.309 0 0 0 .279-.123c.28-.326.528-.677.788-1.01l.239-.307a.042.042 0 0 1 .04-.013.06.06 0 0 1 .028.03c.007.03.012.061.015.092l.076.567c.035.212.05.426.045.64a.222.222 0 0 0 .113.213c.183.134.388.235.606.299.157.037.31.09.455.16a.717.717 0 0 0 .202.036.322.322 0 0 1 .186.079.13.13 0 0 1 .028.161M37.65 58.129a.31.31 0 0 1 .202-.029.708.708 0 0 0 .202.019c.158-.03.318-.043.479-.037.23-.004.457-.048.673-.129a.224.224 0 0 0 .163-.176c.048-.208.115-.41.203-.606l.22-.53c.012-.027.024-.056.038-.082a.05.05 0 0 1 .037-.022.04.04 0 0 1 .034.022c.053.12.103.238.152.36.163.404.309.808.495 1.185.04.102.13.175.238.192.053.01.106.014.16.015h.459v.012h.551c.016.002.03.007.045.014 0 .012 0 .026-.02.032-.202.15-.405.295-.607.447-.087.06-.169.128-.244.202-.214.222-.202.224-.202.529.003.091.016.182.04.27.078.304.17.604.279.898.034.086.063.173.087.262 0 0 0 .037-.012.039a.07.07 0 0 1-.057 0 .377.377 0 0 1-.09-.071l-.389-.392c-.032-.032-.06-.069-.095-.099-.172-.14-.345-.277-.515-.418a.642.642 0 0 0-.324-.101.129.129 0 0 0-.084.03c-.075.053-.148.11-.219.168-.254.202-.507.42-.766.626a3.035 3.035 0 0 1-.267.17.784.784 0 0 1 .047-.305c.028-.152.036-.305.077-.453.069-.25.064-.515.137-.765v-.061c-.097-.059-.133-.166-.202-.242a2.415 2.415 0 0 0-.703-.508.55.55 0 0 1-.28-.31.127.127 0 0 1 .057-.156zm-.754-.043c.007.062.035.12.078.164.305.313.63.606.973.877.084.064.175.123.26.188a.737.737 0 0 1 .105.089c.029.026.04.067.03.105-.03.127-.058.252-.092.38-.108.403-.197.814-.267 1.23-.022.12-.05.24-.073.36a.78.78 0 0 0 0 .137.059.059 0 0 0 .055.062h.09a.311.311 0 0 0 .255-.074c.118-.087.237-.168.356-.25l.02-.015a8.96 8.96 0 0 0 1.213-.808.069.069 0 0 1 .097-.002l.002.002c.249.192.481.404.742.582.087.06.155.145.238.214.117.097.237.202.362.283.058.036.12.066.184.089a.202.202 0 0 0 .247-.108.341.341 0 0 0 .03-.086c0-.07 0-.138.012-.223a3.639 3.639 0 0 0-.156-.862 5.174 5.174 0 0 1-.17-.808c-.019-.101.021-.204.104-.265.228-.18.432-.386.679-.546.161-.103.305-.232.454-.349a.384.384 0 0 0 .148-.277.125.125 0 0 0-.075-.13.606.606 0 0 0-.222-.048c-.283-.014-.568-.024-.849-.048-.228-.02-.455-.06-.681-.095a.123.123 0 0 1-.105-.079c-.059-.141-.121-.28-.176-.424-.125-.32-.253-.64-.372-.964-.075-.202-.184-.386-.277-.58a.358.358 0 0 0-.036-.058.15.15 0 0 0-.202-.026.551.551 0 0 0-.118.139c-.211.424-.42.85-.626 1.279a2.598 2.598 0 0 1-.273.477.249.249 0 0 1-.214.107 1.39 1.39 0 0 0-.457.034.604.604 0 0 1-.16 0 .522.522 0 0 0-.137 0c-.157.036-.318.05-.479.044a2.79 2.79 0 0 0-.364.045.176.176 0 0 0-.153.238z" fill="#EDC51B"/>
            <path d="M37.593 58.284a.55.55 0 0 0 .285.313c.263.126.501.297.703.508.075.076.111.183.202.242v.06c-.072.251-.068.516-.137.766-.04.148-.049.301-.077.453a.784.784 0 0 0-.046.305 2.96 2.96 0 0 0 .266-.17c.26-.202.512-.418.766-.626.071-.059.144-.115.219-.168a.13.13 0 0 1 .085-.03.641.641 0 0 1 .323.1c.17.142.343.28.515.42.035.03.063.066.095.098l.388.392a.377.377 0 0 0 .091.07.07.07 0 0 0 .057 0s.016-.028.012-.038a2.364 2.364 0 0 0-.087-.262 9.209 9.209 0 0 1-.279-.897 1.214 1.214 0 0 1-.04-.271c-.016-.305-.018-.307.202-.53.075-.073.157-.141.244-.201.203-.152.405-.297.607-.447.01 0 .014-.02.02-.032a.165.165 0 0 0-.044-.014h-.55v-.012h-.459a1.03 1.03 0 0 1-.16-.015.307.307 0 0 1-.238-.191c-.186-.386-.332-.79-.495-1.186-.049-.122-.1-.24-.152-.36a.04.04 0 0 0-.034-.022.05.05 0 0 0-.037.022c-.014.026-.026.055-.038.083l-.22.53a3.253 3.253 0 0 0-.203.605.224.224 0 0 1-.163.176 2.001 2.001 0 0 1-.673.13 2.128 2.128 0 0 0-.48.036.708.708 0 0 1-.201-.019.31.31 0 0 0-.202.029.127.127 0 0 0-.065.153" fill="#EDC51B"/>
            <path d="M43.351 16.98c.113-.305.23-.606.348-.909.058-.079.018-.147-.08-.155-.129 0-.258-.019-.39-.025a.13.13 0 0 0-.135.111c-.048.243-.099.485-.143.728-.022.115-.028.232-.047.347a.46.46 0 0 0 .202.47c.02.016.045.022.07.017a.08.08 0 0 0 .042-.054c.012-.184.057-.363.133-.53M48.911 16.085c-.012 0-.026-.012-.034 0a.22.22 0 0 0-.05.022.235.235 0 0 0 .05 0c.02.002.034-.014.034-.022" fill="#FFF"/>
            <path d="M48.834 16.1h-.022a.06.06 0 0 1 0 .012h.01l.012-.013zM42.832 15.871a.833.833 0 0 0-.156-.028c-.356-.012-.311-.06-.453.299-.016.052-.032.115-.052.178a.358.358 0 0 0 .046.337c.075.089.157.172.245.248 0 0 .048 0 .064-.014a.139.139 0 0 0 .043-.064 3.43 3.43 0 0 1 .33-.796.121.121 0 0 0-.065-.16h-.002M41.8 15.778a20.505 20.505 0 0 0-.606-.058c-.02 0-.044.022-.064.036a.05.05 0 0 0 .014.028c.182.146.362.293.546.433.014 0 .072-.017.09-.039a.538.538 0 0 0 .06-.127c.017-.05.032-.087.042-.125.014-.075-.014-.14-.081-.148M45.002 17.192c0 .366.063.338.334.229.085-.037.174-.059.26-.091 1.011-.404 2.022-.808 3.069-1.128.054-.016.12-.028.141-.097a.838.838 0 0 0-.143-.02h-1.26c-.327 0-.654-.012-.982-.016-.137 0-.133 0-.168.142a7.769 7.769 0 0 1-.202.636.224.224 0 0 1-.256.135.23.23 0 0 1-.203-.218 1.323 1.323 0 0 1 .027-.309c.024-.115.072-.224.099-.34 0-.022-.037-.07-.065-.08a.434.434 0 0 0-.154-.018c-.157 0-.187.014-.232.153-.083.249-.162.5-.234.752-.02.089-.03.18-.03.27M52.222 16.653c-.105.052-.213.101-.316.16-.685.387-1.368.78-2.051 1.17a1.803 1.803 0 0 0-.475.343 1.236 1.236 0 0 1-.315.232c-.522.277-1.021.595-1.494.95l-.065.046-1.247.824c-.093.06-.105.105-.046.192.274.417.594.802.952 1.15.123.115.26.218.38.341.255.263.501.534.75.808.1.11.15.11.244-.014.041-.051.078-.106.11-.164.145-.262.29-.527.426-.793a.713.713 0 0 1 .228-.316.98.98 0 0 0 .3-.357 6.87 6.87 0 0 0 .218-.372c.264-.469.545-.925.786-1.414.186-.374.39-.742.606-1.1.315-.51.655-1.01.984-1.514.027-.043.051-.09.07-.124.017-.034 0-.044-.013-.052-.012-.008-.022 0-.032.004M48.404 18.043c.808-.485 1.617-.982 2.425-1.473a.548.548 0 0 0 .091-.075v-.032c0-.01-.018-.02-.024-.018l-.574.135c-.706.146-1.402.339-2.082.578l-2.065.766c-.117.06-.244.098-.374.113a1.284 1.284 0 0 0-.635.18 3.69 3.69 0 0 1-1.387.404.404.404 0 0 0-.3.163 1.336 1.336 0 0 0-.16.267c-.219.547-.43 1.099-.637 1.63-.06.18-.115.342-.172.503-.022.061-.05.122-.066.184a.325.325 0 0 0 0 .1.23.23 0 0 0 .074-.021 5.37 5.37 0 0 1 1.12-.65c.12-.054.235-.117.344-.19.567-.378 1.157-.72 1.766-1.027.142-.07.275-.155.404-.236.34-.202.673-.404 1.01-.606.415-.237.836-.453 1.242-.695M43.858 17.756c.05.093.09.123.18.099.152-.042.301-.09.449-.137.093-.03.105-.043.052-.14a.703.703 0 0 1-.016-.64l.312-.808c.058-.083.022-.154-.073-.158h-.39c-.13 0-.186.032-.223.162-.111.388-.22.776-.327 1.165a.658.658 0 0 0-.026.154.59.59 0 0 0 .062.303" fill="#FFF"/>
            <path d="M52.202 16.82c-.33.506-.67 1.01-.985 1.516-.22.357-.424.725-.606 1.099-.24.48-.522.937-.786 1.414a6.87 6.87 0 0 1-.219.372.98.98 0 0 1-.299.357.713.713 0 0 0-.228.315c-.136.267-.281.532-.427.794a1.083 1.083 0 0 1-.109.164c-.095.123-.143.123-.244.014-.249-.27-.495-.541-.75-.808-.12-.123-.257-.226-.38-.341a6.828 6.828 0 0 1-.952-1.15c-.059-.087-.047-.131.046-.192l1.247-.824.065-.046c.473-.355.972-.673 1.494-.95.117-.06.223-.139.315-.232.139-.14.299-.256.475-.344.683-.39 1.366-.782 2.051-1.17.104-.058.203-.107.316-.16h.036c.006 0 0 .025.012.053.012.029-.046.085-.072.128v-.008zm-6.456 2.748c-.61.31-1.2.657-1.766 1.039a2.277 2.277 0 0 1-.344.19c-.398.17-.774.389-1.12.65a.23.23 0 0 1-.074.02.325.325 0 0 1 0-.099c.016-.062.044-.123.066-.184.057-.161.111-.323.172-.503.202-.531.418-1.083.637-1.63.042-.095.096-.184.16-.267a.404.404 0 0 1 .3-.163 3.69 3.69 0 0 0 1.387-.404c.192-.115.411-.177.635-.18.13-.015.257-.054.374-.113l2.065-.766c.68-.239 1.376-.432 2.082-.578l.574-.135s.02 0 .024.018 0 .028 0 .032a.548.548 0 0 1-.09.075c-.81.491-1.608.988-2.426 1.473-.404.242-.827.458-1.235.693-.342.202-.675.404-1.01.606-.136.079-.278.164-.411.234v-.008zm-1.59-3.434c.036-.13.066-.172.222-.162.155.01.26 0 .39 0 .095 0 .131.075.073.158l-.312.808a.703.703 0 0 0 .017.638c.052.097.04.11-.053.14-.148.046-.297.095-.449.137-.09.024-.13 0-.18-.099a.59.59 0 0 1-.062-.303.658.658 0 0 1 .026-.154l.327-1.163zm1.352-.12a.434.434 0 0 1 .153.019c.028 0 .069.058.065.08-.026.116-.075.225-.1.34-.02.102-.029.205-.025.309a.23.23 0 0 0 .202.218.224.224 0 0 0 .256-.135c.074-.21.142-.422.202-.637.035-.13.03-.143.168-.14.328 0 .655.013.982.015h1.26c.048.003.096.01.143.02a.06.06 0 0 0 0-.012h.022a.22.22 0 0 1 .05-.022h.035c.012 0-.022.024-.034.024a.235.235 0 0 1-.05 0H48.807c-.02.069-.087.081-.141.097-1.043.322-2.056.726-3.068 1.128-.087.032-.176.054-.261.09-.271.11-.344.138-.334-.228a1.23 1.23 0 0 1 .039-.273c.072-.252.151-.503.234-.751.043-.127.073-.143.23-.141zm-2.325 1.55a.086.086 0 0 1-.068-.016.46.46 0 0 1-.203-.47c.019-.116.025-.233.047-.348.044-.243.095-.485.143-.728a.13.13 0 0 1 .136-.11c.131 0 .26.013.39.024.097 0 .137.076.079.155-.117.303-.235.606-.348.91a1.544 1.544 0 0 0-.125.529.081.081 0 0 1-.05.054zm-.606-.737a.139.139 0 0 1-.043.064c-.016.012-.054.023-.064.014a2.366 2.366 0 0 1-.245-.248.358.358 0 0 1-.046-.337c.02-.063.036-.126.052-.178.142-.36.097-.311.453-.3a.833.833 0 0 1 .156.03.121.121 0 0 1 .067.157v.002c-.146.25-.26.517-.338.796h.008zm-.74-.776a.538.538 0 0 1-.058.127c-.019.022-.077.049-.091.039-.184-.14-.364-.287-.546-.433a.05.05 0 0 1-.014-.028c.02-.014.044-.038.064-.036.203.016.405.036.607.058.066 0 .095.073.07.148-.008.034-.022.074-.032.125zm11.547-.788c-.075-.053-.16-.09-.233-.145a.629.629 0 0 0-.519-.122c-.518.08-1.04.126-1.564.14-.538.032-1.076.034-1.617.054-1.245.04-2.49.045-3.735-.028-.522-.03-1.047-.036-1.569-.07-1.307-.084-2.627-.1-3.927-.146a.957.957 0 0 0-.551.178.238.238 0 0 0-.053.317c.05.06.104.117.162.17.097.088.202.165.293.26.37.372.76.724 1.166 1.055.498.427.973.88 1.425 1.355a.35.35 0 0 1 .09.45c-.12.233-.228.472-.329.714-.248.606-.49 1.212-.786 1.954-.059.167-.16.466-.263.763-.017.05-.032.1-.044.152a.337.337 0 0 0 .176.363c.148.09.33.102.489.03.301-.132.585-.3.847-.5.269-.21.56-.39.867-.538.353-.171.7-.361 1.049-.543.078-.048.16-.088.246-.12a.311.311 0 0 1 .184.025.496.496 0 0 1 .117.1c.427.39.855.777 1.278 1.17.388.335.74.708 1.049 1.116.158.192.336.367.531.521.103.089.25.105.37.04.13-.06.25-.145.35-.248a5.622 5.622 0 0 0 1.067-1.45c.158-.302.317-.607.5-.89.29-.454.535-.93.785-1.414.232-.47.49-.926.774-1.365a17.704 17.704 0 0 0 1.454-2.56 1.01 1.01 0 0 0 .066-.576.317.317 0 0 0-.145-.212z" fill="#28A8E0"/>
            <path d="M39.268 18.42c-.323-.084-.648-.169-.976-.25" stroke="#EDC51B" stroke-width=".5" stroke-linecap="round"/>
            <path d="M36.273 17.778a7.568 7.568 0 0 0-2.9.136 5.823 5.823 0 0 0-3.135 2.105c-.859 1.135-1.273 2.65-.901 4.026.371 1.376 1.616 2.525 3.031 2.594 1.415.069 2.85-1.11 2.874-2.533.02-1.265-.994-2.374-2.183-2.808-1.188-.435-2.508-.314-3.745-.051-4.244.899-8.286 3.792-9.796 7.766" stroke="#EDC51B" stroke-width=".5" stroke-linecap="round" stroke-dasharray="2.057501029968262,2.057501029968262"/>
            <path d="M19.215 29.993a9.393 9.393 0 0 0-.202.988" stroke="#EDC51B" stroke-width=".5" stroke-linecap="round"/>
            <path d="M17.584 58.587c.153.184.341.243.515.1.174-.144.15-.34 0-.524l-.15-.18-.51.425.145.18zm.39-.899.293.352c.236.285.236.59-.024.808-.261.218-.562.16-.809-.125l-.157-.188-.532.456-.135-.163 1.364-1.14z" fill="#007EC4"/>
            <path d="M17.584 58.587c.153.184.341.243.515.1.174-.144.15-.34 0-.524l-.15-.18-.51.425.145.18zm.39-.899.293.352c.236.285.236.59-.024.808-.261.218-.562.16-.809-.125l-.157-.188-.532.456-.135-.163 1.364-1.14z" stroke="#007EC4" stroke-width=".5"/>
            <path d="M19.156 59.83a.32.32 0 0 0-.016-.49l-.178-.201-.47.458.177.192a.321.321 0 0 0 .487.04zm-.19-.974.313.337a.531.531 0 0 1 .02.792.506.506 0 0 1-.664.029l-.202.864-.174-.188.202-.844-.111-.12-.532.494-.145-.156 1.293-1.208z" fill="#007EC4"/>
            <path d="M19.156 59.83a.32.32 0 0 0-.016-.49l-.178-.201-.47.458.177.192a.321.321 0 0 0 .487.04zm-.19-.974.313.337a.531.531 0 0 1 .02.792.506.506 0 0 1-.664.029l-.202.864-.174-.188.202-.844-.111-.12-.532.494-.145-.156 1.293-1.208z" stroke="#007EC4" stroke-width=".5"/>
            <path fill="#007EC4" d="m19.692 60.71.541.522-.141.145-.54-.519-.42.436.594.572-.14.148-.75-.722 1.232-1.278.737.71-.141.146-.584-.561z"/>
            <path stroke="#007EC4" stroke-width=".5" d="m19.692 60.71.541.522-.141.145-.54-.519-.42.436.594.572-.14.148-.75-.722 1.232-1.278.737.71-.141.146-.584-.561z"/>
            <path d="M20.93 62.139c-.116-.26-.201-.5-.015-.727a.485.485 0 0 1 .685-.026l.008.007c.146.133.22.327.202.524h-.202a.444.444 0 0 0-.142-.364.275.275 0 0 0-.404 0c-.117.135-.048.289.063.531.11.243.18.47 0 .685a.5.5 0 0 1-.732 0 .618.618 0 0 1-.186-.648l.202.036a.434.434 0 0 0 .115.459.297.297 0 0 0 .433 0c.13-.13.063-.28-.026-.477" fill="#007EC4"/>
            <path d="M20.93 62.139c-.116-.26-.201-.5-.015-.727a.485.485 0 0 1 .685-.026l.008.007c.146.133.22.327.202.524h-.202a.444.444 0 0 0-.142-.364.275.275 0 0 0-.404 0c-.117.135-.048.289.063.531.11.243.18.47 0 .685a.5.5 0 0 1-.732 0 .618.618 0 0 1-.186-.648l.202.036a.434.434 0 0 0 .115.459.297.297 0 0 0 .433 0c.13-.13.063-.28-.026-.477z" stroke="#007EC4" stroke-width=".5"/>
            <path fill="#007EC4" d="m22.117 62.84.594.457-.123.16-.594-.457-.368.478.655.505-.123.16-.825-.632 1.083-1.414.809.624-.124.161-.642-.495z"/>
            <path stroke="#007EC4" stroke-width=".5" d="m22.117 62.84.594.457-.123.16-.594-.457-.368.478.655.505-.123.16-.825-.632 1.083-1.414.809.624-.124.161-.642-.495z"/>
            <path fill="#007EC4" d="M23.85 63.173v1.707l.794-1.175.175.119-.99 1.47-.184-.123v-1.707l-.796 1.184-.176-.12.99-1.47z"/>
            <path stroke="#007EC4" stroke-width=".5" d="M23.85 63.173v1.707l.794-1.175.175.119-.99 1.47-.184-.123v-1.707l-.796 1.184-.176-.12.99-1.47z"/>
            <path fill="#007EC4" d="m25.515 64.484-.439-.256.103-.176 1.061.624-.103.174-.438-.256-.797 1.353-.182-.109z"/>
            <path stroke="#007EC4" stroke-width=".5" d="m25.515 64.484-.439-.256.103-.176 1.061.624-.103.174-.438-.256-.797 1.353-.182-.109z"/>
            <path fill="#007EC4" d="m26.477 65.658.665.344-.091.18-.667-.344-.28.537.736.378-.092.182-.934-.469.808-1.575.91.468-.093.18-.72-.372z"/>
            <path stroke="#007EC4" stroke-width=".5" d="m26.477 65.658.665.344-.091.18-.667-.344-.28.537.736.378-.092.182-.934-.469.808-1.575.91.468-.093.18-.72-.372z"/>
            <path d="M28.736 66.87a.632.632 0 0 0-.33-.893l-.258-.115-.552 1.253.26.113a.631.631 0 0 0 .872-.358h.008zm.202.091a.83.83 0 0 1-1.16.459l-.467-.202.716-1.616.467.202a.83.83 0 0 1 .444 1.157z" fill="#007EC4"/>
            <path d="M28.736 66.87a.632.632 0 0 0-.33-.893l-.258-.115-.552 1.253.26.113a.631.631 0 0 0 .872-.358h.008zm.202.091a.83.83 0 0 1-1.16.459l-.467-.202.716-1.616.467.202a.83.83 0 0 1 .444 1.157z" stroke="#007EC4" stroke-width=".5"/>
            <path d="M30.858 67.535a.283.283 0 1 0 .178-.533l-.275-.091-.177.533.274.091zm.241.606c.053-.16-.01-.323-.253-.404l-.323-.107-.202.578.325.107c.25.08.4-.014.453-.174zm-.475-1.493.443.148c.345.115.48.357.388.638a.364.364 0 0 1-.3.267.42.42 0 0 1 .146.507c-.097.293-.376.404-.71.299l-.527-.174.56-1.685z" fill="#007EC4"/>
            <path d="M30.858 67.535a.283.283 0 1 0 .178-.533l-.275-.091-.177.533.274.091zm.241.606c.053-.16-.01-.323-.253-.404l-.323-.107-.202.578.325.107c.25.08.4-.014.453-.174zm-.475-1.493.443.148c.345.115.48.357.388.638a.364.364 0 0 1-.3.267.42.42 0 0 1 .146.507c-.097.293-.376.404-.71.299l-.527-.174.56-1.685z" stroke="#007EC4" stroke-width=".5"/>
            <path fill="#007EC4" d="m32.293 68.285-.299-1.194.229.062.236.964.677-.72.219.057-.857.887-.18.673-.202-.055z"/>
            <path stroke="#007EC4" stroke-width=".5" d="m32.293 68.285-.299-1.194.229.062.236.964.677-.72.219.057-.857.887-.18.673-.202-.055z"/>
            <path d="M35.048 68.582a.279.279 0 0 0 .364-.223c.03-.17-.07-.297-.269-.331l-.285-.049-.095.554.285.049zm.328.565c.028-.165-.059-.319-.31-.361l-.337-.059-.103.606.337.059c.251.036.384-.08.407-.245h.006zm-.694-1.404.461.079c.36.063.53.28.48.574a.364.364 0 0 1-.257.307c.177.088.268.289.218.48-.05.306-.31.461-.655.405l-.546-.093.3-1.752z" fill="#007EC4"/>
            <path d="M35.048 68.582a.279.279 0 0 0 .364-.223c.03-.17-.07-.297-.269-.331l-.285-.049-.095.554.285.049zm.328.565c.028-.165-.059-.319-.31-.361l-.337-.059-.103.606.337.059c.251.036.384-.08.407-.245h.006zm-.694-1.404.461.079c.36.063.53.28.48.574a.364.364 0 0 1-.257.307c.177.088.268.289.218.48-.05.306-.31.461-.655.405l-.546-.093.3-1.752z" stroke="#007EC4" stroke-width=".5"/>
            <path fill="#007EC4" d="m36.41 68.782.746.084-.022.202-.746-.084-.068.606.82.095-.022.202-1.033-.118.202-1.761 1.01.115-.023.202-.809-.091z"/>
            <path stroke="#007EC4" stroke-width=".5" d="m36.41 68.782.746.084-.022.202-.746-.084-.068.606.82.095-.022.202-1.033-.118.202-1.761 1.01.115-.023.202-.809-.091z"/>
            <path d="M38.266 69.161c-.25-.133-.473-.266-.455-.567a.485.485 0 0 1 .53-.436l.008.001c.2.012.38.12.489.287l-.168.12a.445.445 0 0 0-.331-.203.277.277 0 0 0-.314.234l-.002.013c0 .178.138.258.374.384.237.125.427.262.404.55a.5.5 0 0 1-.578.448.607.607 0 0 1-.541-.404l.182-.097c.055.162.2.278.372.297a.297.297 0 0 0 .344-.24c.002-.006.002-.013.003-.019.02-.186-.125-.265-.317-.368" fill="#007EC4"/>
            <path d="M38.266 69.161c-.25-.133-.473-.266-.455-.567a.485.485 0 0 1 .53-.436l.008.001c.2.012.38.12.489.287l-.168.12a.445.445 0 0 0-.331-.203.277.277 0 0 0-.314.234l-.002.013c0 .178.138.258.374.384.237.125.427.262.404.55a.5.5 0 0 1-.578.448.607.607 0 0 1-.541-.404l.182-.097c.055.162.2.278.372.297a.297.297 0 0 0 .344-.24c.002-.006.002-.013.003-.019.02-.186-.125-.265-.317-.368z" stroke="#007EC4" stroke-width=".5"/>
            <path fill="#007EC4" d="M39.768 68.438h-.51v-.202l1.231.02v.202h-.51l-.025 1.57h-.213z"/>
            <path stroke="#007EC4" stroke-width=".5" d="M39.768 68.438h-.51v-.202l1.231.02v.202h-.51l-.025 1.57h-.213z"/>
            <path d="M42.365 69.01c.24-.02.404-.14.378-.364-.027-.224-.192-.317-.43-.299l-.233.02.052.661.233-.018zm-.516-.828.46-.037c.367-.03.618.146.646.483.028.337-.192.552-.562.582l-.245.02.057.701-.202.018-.154-1.767z" fill="#007EC4"/>
            <path d="M42.365 69.01c.24-.02.404-.14.378-.364-.027-.224-.192-.317-.43-.299l-.233.02.052.661.233-.018zm-.516-.828.46-.037c.367-.03.618.146.646.483.028.337-.192.552-.562.582l-.245.02.057.701-.202.018-.154-1.767z" stroke="#007EC4" stroke-width=".5"/>
            <path fill="#007EC4" d="m43.381 68.04.202-.028.203 1.557.788-.107.026.202-1 .134z"/>
            <path stroke="#007EC4" stroke-width=".5" d="m43.381 68.04.202-.028.203 1.557.788-.107.026.202-1 .134z"/>
            <path d="m45.3 68.852.606-.115-.449-.717-.158.832zm0-1.11.201-.04 1.011 1.617-.22.042-.273-.434-.752.145-.09.506-.223.044.345-1.88z" fill="#007EC4"/>
            <path d="m45.3 68.852.606-.115-.449-.717-.158.832zm0-1.11.201-.04 1.011 1.617-.22.042-.273-.434-.752.145-.09.506-.223.044.345-1.88z" stroke="#007EC4" stroke-width=".5"/>
            <path d="M47.856 67.535a.648.648 0 0 0-.525-.079.719.719 0 0 0 .36 1.384.703.703 0 0 0 .436-.357l.176.105a.903.903 0 0 1-.562.448.92.92 0 0 1-.463-1.776.854.854 0 0 1 .685.103l-.107.172z" fill="#007EC4"/>
            <path d="M47.856 67.535a.648.648 0 0 0-.525-.079.719.719 0 0 0 .36 1.384.703.703 0 0 0 .436-.357l.176.105a.903.903 0 0 1-.562.448.92.92 0 0 1-.463-1.776.854.854 0 0 1 .685.103l-.107.172z" stroke="#007EC4" stroke-width=".5"/>
            <path fill="#007EC4" d="m48.792 67.646.713-.234.063.202-.713.232.187.576.787-.257.062.192-.988.324-.552-1.685.974-.32.063.192-.772.253z"/>
            <path stroke="#007EC4" stroke-width=".5" d="m48.792 67.646.713-.234.063.202-.713.232.187.576.787-.257.062.192-.988.324-.552-1.685.974-.32.063.192-.772.253z"/>
            <path fill="#007EC4" d="m51.201 66.761.677-.29.081.185-.677.291.317.744-.202.082-.7-1.63.92-.394.08.186-.724.311z"/>
            <path stroke="#007EC4" stroke-width=".5" d="m51.201 66.761.677-.29.081.185-.677.291.317.744-.202.082-.7-1.63.92-.394.08.186-.724.311z"/>
            <path d="M53.762 65.69a.653.653 0 1 0-.257.932.679.679 0 0 0 .261-.924l-.004-.007m.202-.103a.877.877 0 1 1-1.597.722.877.877 0 0 1 1.597-.722" fill="#007EC4"/>
            <path d="M53.762 65.69a.653.653 0 1 0-.257.932.679.679 0 0 0 .261-.924l-.004-.007zm.202-.102a.877.877 0 1 1-1.597.722.877.877 0 0 1 1.597-.722z" stroke="#007EC4" stroke-width=".5"/>
            <path d="M54.966 64.571a.317.317 0 0 0-.479-.089l-.224.134.327.553.225-.133a.317.317 0 0 0 .16-.465h-.009zm-.99-.02.404-.236a.534.534 0 0 1 .778.147.507.507 0 0 1-.115.659l.809.386-.22.131-.795-.384-.143.083.371.622-.183.11-.906-1.518z" fill="#007EC4"/>
            <path d="M54.966 64.571a.317.317 0 0 0-.479-.089l-.224.134.327.553.225-.133a.317.317 0 0 0 .16-.465h-.009zm-.99-.02.404-.236a.534.534 0 0 1 .778.147.507.507 0 0 1-.115.659l.809.386-.22.131-.795-.384-.143.083.371.622-.183.11-.906-1.518z" stroke="#007EC4" stroke-width=".5"/>
            <path fill="#007EC4" d="m56.771 63.755.091-1.095.22-.157-.099 1.141 1.213.244-.234.17-1.136-.218.495.685-.172.125-1.039-1.436.172-.126z"/>
            <path stroke="#007EC4" stroke-width=".5" d="m56.771 63.755.091-1.095.22-.157-.099 1.141 1.213.244-.234.17-1.136-.218.495.685-.172.125-1.039-1.436.172-.126z"/>
            <path fill="#007EC4" d="m57.499 62.17.168-.134 1.103 1.388-.166.131z"/>
            <path stroke="#007EC4" stroke-width=".5" d="m57.499 62.17.168-.134 1.103 1.388-.166.131z"/>
            <path d="M59.631 61.527a.635.635 0 0 0-.95-.075l-.202.186.904 1.028.214-.188a.636.636 0 0 0 .026-.951h.008zm.17-.15a.832.832 0 0 1-.07 1.245l-.385.335-1.172-1.33.384-.337a.83.83 0 0 1 1.243.087z" fill="#007EC4"/>
            <path d="M59.631 61.527a.635.635 0 0 0-.95-.075l-.202.186.904 1.028.214-.188a.636.636 0 0 0 .026-.951h.008zm.17-.15a.832.832 0 0 1-.07 1.245l-.385.335-1.172-1.33.384-.337a.83.83 0 0 1 1.243.087z" stroke="#007EC4" stroke-width=".5"/>
            <path d="M60.593 60.727c-.267.099-.513.174-.725-.04a.487.487 0 0 1 .03-.689c.002 0 .003-.002.004-.003a.639.639 0 0 1 .542-.171l-.023.202a.455.455 0 0 0-.376.11.277.277 0 0 0-.026.405c.128.127.285.07.536-.02.25-.091.48-.142.683.06a.501.501 0 0 1-.05.73.617.617 0 0 1-.664.135l.051-.202a.443.443 0 0 0 .469-.079.299.299 0 0 0 .038-.432c-.129-.125-.285-.081-.489-.006" fill="#007EC4"/>
            <path d="M60.593 60.727c-.267.099-.513.174-.725-.04a.487.487 0 0 1 .03-.689c.002 0 .003-.002.004-.003a.639.639 0 0 1 .542-.171l-.023.202a.455.455 0 0 0-.376.11.277.277 0 0 0-.026.405c.128.127.285.07.536-.02.25-.091.48-.142.683.06a.501.501 0 0 1-.05.73.617.617 0 0 1-.664.135l.051-.202a.443.443 0 0 0 .469-.079.299.299 0 0 0 .038-.432c-.129-.125-.285-.081-.489-.006z" stroke="#007EC4" stroke-width=".5"/>
            <path d="M62.103 60.349a.144.144 0 1 1 0-.202.15.15 0 0 1 0 .208v-.006zm-.289-.404-.144.158-.968-.891.146-.158.966.89z" fill="#007EC4"/>
            <path d="M62.103 60.349a.144.144 0 1 1 0-.202.15.15 0 0 1 0 .208v-.006zm-.289-.404-.144.158-.968-.891.146-.158.966.89z" stroke="#007EC4" stroke-width=".5"/>
            <path d="M61.84 58.438c-.038-.032-.07-.01-.095.018l-.046.055.093.078.044-.054c.028-.028.045-.065.01-.097h-.006zm-.297.1.15-.175a.16.16 0 0 1 .225-.02l.001.002c.053.043.07.117.042.18l.219.018-.093.109-.202-.026-.025.03.126.107-.08.091-.363-.315zm.606.274zm-.69-.584a.515.515 0 1 1 .785.667.515.515 0 0 1-.786-.667z" fill="#007EC4"/>
        </g>
        <g transform="translate(4.28 3.847)">
            <mask id="ttnl40mnyh" fill="#fff">
                <use xlink:href="#5bi3f213eg"/>
            </mask>
            <path d="M35.705 1.994c18.844 0 34.12 15.27 34.12 34.106 0 18.836-15.276 34.106-34.12 34.106-18.844 0-34.12-15.27-34.12-34.106 0-18.836 15.276-34.106 34.12-34.106z" stroke="#0A5272" stroke-width=".994" mask="url(#ttnl40mnyh)"/>
            <mask id="grpeti1ibj" fill="#fff">
                <use xlink:href="#ftwkjow6ki"/>
            </mask>
            <path d="M70.58 28.24H.85a36.812 36.812 0 0 0-.042 15.634h69.73l.068-.018a36.754 36.754 0 0 0-.045-15.615l.019-.002z" fill="#FFF" mask="url(#grpeti1ibj)"/>
            <mask id="bo6cuzw0nl" fill="#fff">
                <use xlink:href="#a0khi65xtk"/>
            </mask>
            <path fill="#0A5272" mask="url(#bo6cuzw0nl)" d="M.222 43.18H71.89v-.779H.222zM.222 29.684H71.89v-.78H.222z"/>
        </g>
        <g>
            <path d="M10.41 38.488c0-.657-.426-1.093-1.24-1.093H8.147v2.184H9.17c.814.002 1.24-.435 1.24-1.09v-.001zm-3.455-2.222h2.362c1.38 0 2.304.953 2.304 2.222 0 1.269-.923 2.222-2.304 2.222h-1.17v2.503H6.955v-6.947z" fill="#177EBC"/>
            <path d="M10.41 38.488c0-.657-.426-1.093-1.24-1.093H8.147v2.184H9.17c.814.002 1.24-.435 1.24-1.09v-.001zm-3.455-2.222h2.362c1.38 0 2.304.953 2.304 2.222 0 1.269-.923 2.222-2.304 2.222h-1.17v2.503H6.955v-6.947z" stroke="#177EBC" stroke-width=".5"/>
            <path d="M14.681 40.474h2.094l-1.043-2.71-1.05 2.71zm.437-4.208h1.213l2.698 6.947h-1.2l-.637-1.648h-2.94l-.634 1.648h-1.202l2.702-6.947z" fill="#177EBC"/>
            <path d="M14.681 40.474h2.094l-1.043-2.71-1.05 2.71zm.437-4.208h1.213l2.698 6.947h-1.2l-.637-1.648h-2.94l-.634 1.648h-1.202l2.702-6.947z" stroke="#177EBC" stroke-width=".5"/>
            <path d="M24.193 38.43c0-.686-.477-1.033-1.241-1.033h-.944v2.065h.944c.764 0 1.24-.348 1.24-1.033zm-3.375-2.164H23.1c1.379 0 2.302.893 2.302 2.163 0 1.043-.555 1.837-1.548 2.085l1.738 2.7h-1.39l-1.65-2.627h-.545v2.626h-1.19v-6.947z" fill="#177EBC"/>
            <path d="M24.193 38.43c0-.686-.477-1.033-1.241-1.033h-.944v2.065h.944c.764 0 1.24-.348 1.24-1.033zm-3.375-2.164H23.1c1.379 0 2.302.893 2.302 2.163 0 1.043-.555 1.837-1.548 2.085l1.738 2.7h-1.39l-1.65-2.627h-.545v2.626h-1.19v-6.947z" stroke="#177EBC" stroke-width=".5"/>
            <path fill="#177EBC" d="M28.79 39.084h2.78v1.131h-2.78v1.867h3.079v1.131h-4.27v-6.947h4.21v1.13H28.79z"/>
            <path stroke="#177EBC" stroke-width=".5" d="M28.79 39.084h2.78v1.131h-2.78v1.867h3.079v1.131h-4.27v-6.947h4.21v1.13H28.79z"/>
            <path fill="#177EBC" d="m35.087 36.266 3.474 4.784v-4.784h1.19v6.947h-1.07l-3.477-4.774v4.774h-1.19v-6.947z"/>
            <path stroke="#177EBC" stroke-width=".5" d="m35.087 36.266 3.474 4.784v-4.784h1.19v6.947h-1.07l-3.477-4.774v4.774h-1.19v-6.947z"/>
            <path fill="#177EBC" d="M43.535 37.397h-1.916v-1.131h5.024v1.13h-1.916v5.817h-1.192z"/>
            <path stroke="#177EBC" stroke-width=".5" d="M43.535 37.397h-1.916v-1.131h5.024v1.13h-1.916v5.817h-1.192z"/>
            <path d="M51.961 38.488c0-.657-.426-1.093-1.241-1.093h-1.023v2.184h1.033c.809.002 1.235-.435 1.235-1.09l-.004-.001zm-3.454-2.222h2.363c1.38 0 2.304.953 2.304 2.222 0 1.269-.924 2.222-2.304 2.222h-1.173v2.503h-1.19v-6.947zM56.236 40.474h2.085l-1.042-2.71-1.043 2.71zm.436-4.208h1.213l2.7 6.947h-1.202l-.635-1.648h-2.939l-.632 1.648h-1.213l2.708-6.947zM64.577 40.316c-1.023-.357-2.175-.913-2.175-2.204 0-.982.873-1.966 2.274-1.966.88.017 1.709.42 2.264 1.103l-.825.809s-.576-.784-1.44-.784c-.595 0-1.062.367-1.062.834 0 .606.547.794 1.5 1.152 1.063.404 1.946.872 1.946 2.133 0 1.26-1.112 1.935-2.426 1.935a3.032 3.032 0 0 1-2.54-1.414l.893-.753s.607 1.042 1.647 1.042c.597 0 1.213-.238 1.213-.808 0-.57-.445-.788-1.27-1.079M71.477 40.316c-1.023-.357-2.173-.913-2.173-2.204 0-.982.873-1.966 2.272-1.966.88.016 1.709.42 2.264 1.103l-.823.809s-.576-.784-1.441-.784c-.594 0-1.061.367-1.061.834 0 .606.546.794 1.5 1.152 1.06.404 1.944.872 1.944 2.133 0 1.26-1.112 1.935-2.425 1.935a3.032 3.032 0 0 1-2.543-1.414l.893-.753s.597 1.042 1.65 1.042c.596 0 1.212-.238 1.212-.808 0-.57-.444-.788-1.27-1.079" fill="#0A5272"/>
        </g>
    </g>
</svg>
