<svg width="21" height="25" viewBox="0 0 21 25" fill="none" xmlns="http://www.w3.org/2000/svg">
<path d="M10.4836 11.9688C13.7827 11.9688 16.4681 9.2835 16.4681 5.98441C16.4681 2.68531 13.7827 0 10.4836 0C7.18455 0 4.49924 2.68531 4.49924 5.98441C4.49924 9.2835 7.18455 11.9688 10.4836 11.9688ZM10.4836 1.80848C12.7799 1.80848 14.6541 3.67723 14.6541 5.97893C14.6541 8.28062 12.7853 10.1494 10.4836 10.1494C8.18195 10.1494 6.31319 8.28062 6.31319 5.97893C6.31319 3.67723 8.18195 1.80848 10.4836 1.80848Z" fill="white"/>
<path d="M10.4837 13.0703C4.70203 13.0703 0 15.5803 0 18.6601C0 21.74 4.70203 24.25 10.4837 24.25C16.2653 24.25 20.9673 21.74 20.9673 18.6601C20.9673 15.5803 16.2653 13.0703 10.4837 13.0703ZM10.4015 15.0432H10.5714L11.1742 19.5973L10.4946 20.3316L9.79864 19.5973L10.4015 15.0487V15.0432ZM10.4837 22.3867C5.55147 22.3867 1.86328 20.4193 1.86328 18.6601C1.86328 17.0435 4.97605 15.2569 9.29994 14.9774L8.66972 19.7069C8.6478 19.8713 8.7026 20.0357 8.81768 20.1562L10.1001 21.5044C10.2042 21.614 10.3467 21.6743 10.5001 21.6743C10.6426 21.6907 10.796 21.6085 10.9002 21.4989L12.1551 20.1508C12.2647 20.0302 12.3195 19.8658 12.2976 19.7069L11.6674 14.9774C15.9968 15.2624 19.1041 17.0435 19.1041 18.6601C19.1041 20.4193 15.4159 22.3867 10.4837 22.3867Z" fill="white"/>
</svg>
