<svg width="17" height="21" viewBox="0 0 17 21" fill="none" xmlns="http://www.w3.org/2000/svg">
<path fill-rule="evenodd" clip-rule="evenodd" d="M8.0747 21C8.89399 21 12.7955 16.1009 13.7575 14.5403C15.2364 12.1414 16.1494 10.7222 16.1494 8.07389C16.1494 3.6148 12.5342 0 8.0747 0C3.61516 0 0 3.6148 0 8.07389C0 10.736 0.846004 12.1457 2.3199 14.5403C3.34717 16.2093 7.2554 21 8.0747 21ZM8.07477 12.1108C10.3045 12.1108 12.1121 10.3034 12.1121 8.07388C12.1121 5.84434 10.3045 4.03694 8.07477 4.03694C5.845 4.03694 4.03742 5.84434 4.03742 8.07388C4.03742 10.3034 5.845 12.1108 8.07477 12.1108Z" fill="#AAAAAA"/>
</svg>
