<svg width="39" height="27" viewBox="0 0 39 27" fill="none" xmlns="http://www.w3.org/2000/svg">
<rect width="38.7692" height="27" rx="5.84184" fill="#FFC978"/>
<path fill-rule="evenodd" clip-rule="evenodd" d="M16.6245 18.4606H22.2768V8.3042H16.6245V18.4606Z" fill="#FF5F00"/>
<path fill-rule="evenodd" clip-rule="evenodd" d="M16.9836 13.3821C16.9836 11.3218 17.9484 9.48637 19.4507 8.30391C18.3135 7.40726 16.907 6.92065 15.4589 6.92286C11.8915 6.92286 9 9.81498 9 13.3821C9 16.9495 11.8915 19.8413 15.4589 19.8413C16.9658 19.8413 18.352 19.3254 19.4507 18.4603C17.9484 17.2775 16.9836 15.4423 16.9836 13.3821Z" fill="#EB001B"/>
<path fill-rule="evenodd" clip-rule="evenodd" d="M29.9014 13.3821C29.9014 16.9495 27.0096 19.8413 23.4425 19.8413C21.9943 19.8436 20.5878 19.357 19.4507 18.4603C20.953 17.2778 21.9178 15.4427 21.9178 13.3821C21.9178 11.3218 20.953 9.48669 19.4507 8.30391C20.5878 7.40721 21.9943 6.9206 23.4425 6.92286C27.0096 6.92286 29.9014 9.81465 29.9014 13.3821Z" fill="#F79E1B"/>
</svg>
