<svg width="44" height="44" viewBox="0 0 44 44" fill="none" xmlns="http://www.w3.org/2000/svg">
<path d="M34.3012 19.8678V28.4539C34.3012 29.012 34.2798 29.5486 34.2154 30.0638C33.7217 35.8593 30.3087 38.7357 24.0194 38.7357H23.1608C22.6242 38.7357 22.109 38.9932 21.7871 39.4225L19.2113 42.857C18.0736 44.381 16.2276 44.381 15.09 42.857L12.5141 39.4225C12.3423 39.2225 12.1323 39.0587 11.8965 38.9407C11.6606 38.8228 11.4035 38.7531 11.1404 38.7357H10.2818C3.43441 38.7357 0 37.0399 0 28.4539V19.8678C0 13.5786 2.89779 10.1656 8.6719 9.67192C9.18706 9.60752 9.72369 9.58606 10.2818 9.58606H24.0194C30.8668 9.58606 34.3012 13.0205 34.3012 19.8678Z" fill="#47A7DD"/>
<path d="M42.8877 11.2818V19.8678C42.8877 26.1786 39.9899 29.57 34.2158 30.0637C34.2802 29.5486 34.3017 29.0119 34.3017 28.4539V19.8678C34.3017 13.0205 30.8673 9.58604 24.0199 9.58604H10.2822C9.72415 9.58604 9.18753 9.6075 8.67236 9.6719C9.16606 3.89779 12.579 1 18.8683 1H32.6059C39.4533 1 42.8877 4.43441 42.8877 11.2818Z" fill="#47A8DE" stroke="white" stroke-width="1.5" stroke-miterlimit="10" stroke-linecap="round" stroke-linejoin="round"/>
<path d="M24.6745 25.1482H24.696M17.1617 25.1482H17.1832M9.64893 25.1482H9.67039" stroke="white" stroke-width="2" stroke-linecap="round" stroke-linejoin="round"/>
</svg>
