<svg width="23" height="24" viewBox="0 0 23 24" fill="none" xmlns="http://www.w3.org/2000/svg">
<path d="M20.0176 10.6424L4.88562 2.16856C4.63102 2.02599 4.33896 1.96453 4.04849 1.99239C3.75802 2.02024 3.48296 2.13609 3.26009 2.32445C3.03722 2.51281 2.87715 2.76471 2.80127 3.04647C2.72538 3.32824 2.73731 3.62645 2.83544 3.90126L5.43371 11.1764H12.184C12.3741 11.1764 12.5564 11.2519 12.6908 11.3863C12.8252 11.5207 12.9007 11.703 12.9007 11.8931C12.9007 12.0831 12.8252 12.2654 12.6908 12.3998C12.5564 12.5342 12.3741 12.6097 12.184 12.6097H5.43371L2.83544 19.8849C2.75863 20.1011 2.73473 20.3327 2.76575 20.56C2.79677 20.7874 2.88181 21.0041 3.01374 21.1919C3.14567 21.3796 3.32066 21.5331 3.52407 21.6394C3.72747 21.7456 3.95337 21.8017 4.18287 21.8027C4.42914 21.8023 4.67116 21.7385 4.88571 21.6176L20.0175 13.1437C20.2398 13.0192 20.4249 12.8377 20.5538 12.6179C20.6826 12.3981 20.7505 12.1479 20.7505 11.8931C20.7505 11.6383 20.6826 11.3881 20.5538 11.1683C20.425 10.9484 20.2399 10.7669 20.0176 10.6424Z" fill="#AAAFB5"/>
</svg>
