<svg width="23" height="30" viewBox="0 0 23 30" fill="none" xmlns="http://www.w3.org/2000/svg">
<path d="M19.9819 14.3351C19.3109 13.0553 18.4356 11.882 17.4012 10.8781C15.8012 9.32675 13.6045 7.89813 11.3249 7.85142C8.96254 7.80253 6.6604 9.11599 5.12599 10.8673C3.76041 12.4252 2.86041 14.3416 2.13783 16.2906C1.30665 18.5351 0.680845 20.9513 1.07869 23.3142C1.26364 24.4136 1.65719 25.5913 1.17977 26.5973C0.987295 27.0025 0.667941 27.3339 0.452888 27.7282C0.23891 28.1226 0.146438 28.6441 0.416329 29.0026C0.636759 29.2948 1.03676 29.3904 1.39912 29.3578C1.76149 29.3252 2.1045 29.1873 2.45611 29.0971C4.47223 28.58 6.52061 29.636 8.58082 29.9173C12.2475 30.4182 16.0131 28.4496 19.598 29.3763C20.2367 29.5414 20.8776 29.8 21.5335 29.7261C22.1894 29.6522 22.855 29.0797 22.7356 28.4246C22.6399 27.8977 22.1066 27.575 21.8636 27.0981C21.6227 26.6255 21.6926 26.0606 21.7517 25.5326C22.1829 21.7204 21.7604 17.7268 19.9819 14.3351Z" fill="white"/>
<path d="M10.4787 0.306043C10.112 0.562434 9.78189 0.900306 9.35178 1.01546C8.49372 1.24469 7.58082 0.502682 6.73673 0.780801C6.15394 0.973094 5.80878 1.6282 5.82061 2.24744C5.83243 2.86669 6.13566 3.44466 6.50985 3.93571C6.88404 4.42677 7.33243 4.85481 7.70555 5.34586C8.29909 6.12807 8.7464 7.10909 9.63135 7.5241C10.2464 7.81308 10.9572 7.76637 11.6335 7.71422C12.327 7.66099 13.0496 7.59797 13.6464 7.23512C14.1367 6.93744 14.4937 6.46486 14.8389 6.00314C15.6292 4.94715 16.4335 3.8651 16.841 2.60596C16.9442 2.28655 17.0216 1.94868 16.9743 1.61624C16.927 1.28381 16.7324 0.955712 16.4238 0.829689C15.7797 0.565694 15.1152 1.26099 14.4206 1.22949C13.9346 1.20776 13.5432 0.840553 13.1625 0.534188C12.4776 -0.0177044 11.2281 -0.219775 10.4776 0.304957L10.4787 0.306043Z" fill="white"/>
<path d="M8.78403 3.62923C8.7593 3.43803 8.74424 3.23813 8.81736 3.05996C8.89048 2.88179 9.0765 2.73838 9.2636 2.77749C9.46897 2.82095 9.57327 3.04909 9.64747 3.24791C9.86467 3.83782 10.0819 4.42665 10.2991 5.01657C10.3346 5.11326 10.3786 5.21864 10.4711 5.25992C10.598 5.3175 10.7496 5.21647 10.8023 5.08719C10.8561 4.9579 10.841 4.81233 10.8324 4.67218C10.7969 4.09095 10.8937 3.50104 11.1141 2.96327C11.1905 2.77641 11.3281 2.56565 11.5292 2.58086C11.784 2.59932 11.8561 2.93937 11.8561 3.19793C11.8582 3.67378 11.8604 4.15071 11.8614 4.62655C11.8614 4.76452 11.884 4.93509 12.0131 4.9818C12.1679 5.0383 12.3001 4.86013 12.37 4.7102L12.898 3.58795C12.9819 3.41087 13.0679 3.22944 13.2098 3.09581C13.3518 2.96218 13.5636 2.88505 13.7442 2.95675C14.0733 3.08712 14.0722 3.55101 14.013 3.90301C13.9055 4.54398 13.7969 5.19148 13.5571 5.79443C13.3173 6.39739 12.9324 6.96232 12.3829 7.30019C10.2389 8.61582 8.99263 5.2382 8.7851 3.62923H8.78403Z" fill="#EFEFEF"/>
<path d="M10.0969 8.19463C8.93563 8.75196 7.90445 9.58306 7.10875 10.6032C6.94854 10.8085 6.79155 11.0899 6.92273 11.3159C7.02058 11.4864 7.25069 11.5397 7.43993 11.4897C7.62918 11.4408 7.78617 11.3126 7.93778 11.1888C8.49692 10.7292 9.05713 10.2686 9.61627 9.80903C9.75498 9.69496 9.89799 9.57871 10.069 9.52439C10.2399 9.47116 10.4475 9.49506 10.5657 9.63086C10.7163 9.80468 10.6668 10.0687 10.6259 10.2957C10.5432 10.7509 10.5324 11.2192 10.5948 11.6776C10.627 11.9156 10.6819 12.1589 10.8302 12.3469C10.9776 12.5348 11.2399 12.6489 11.4604 12.5587C11.798 12.4207 11.8227 11.9623 11.8722 11.5972C11.9442 11.054 12.1958 10.5369 12.5776 10.1469C12.7905 9.92853 13.1152 9.74167 13.3851 9.88182C13.6345 10.0111 13.6894 10.337 13.7775 10.6054C13.9216 11.0464 14.2345 11.4299 14.6356 11.6581C14.8937 11.8047 15.2313 11.8819 15.4743 11.7124C15.7023 11.5549 15.7636 11.2279 15.6872 10.9595C15.6109 10.6912 15.4259 10.4706 15.2367 10.2675C14.4077 9.37664 13.4077 8.64984 12.3087 8.13923C11.4829 7.75573 10.9206 7.7981 10.0991 8.19246L10.0969 8.19463Z" fill="#EFEFEF"/>
<path d="M9.31628 7.15055C9.03994 7.21139 8.75607 7.2907 8.53779 7.47213C8.31951 7.65355 8.1808 7.96318 8.2765 8.23261C8.37005 8.49443 8.65499 8.64327 8.92919 8.66608C9.20338 8.6889 9.47435 8.60959 9.74209 8.54549C10.9324 8.26194 12.1883 8.27063 13.3754 8.56831C13.712 8.65305 14.0958 8.75299 14.384 8.55636C14.7937 8.27606 14.6388 7.70896 14.2786 7.46669C13.9507 7.24615 13.3969 7.20053 13.0216 7.12448C11.8023 6.87678 10.5313 6.8833 9.31628 7.15164V7.15055Z" fill="#039BE5"/>
<path d="M9.11523 15.1475C9.05609 15.3843 9.01738 15.6842 9.21093 15.8297C9.36899 15.9492 9.60878 15.883 9.74534 15.7396C9.8819 15.5962 9.94104 15.3963 9.99587 15.204C10.6324 12.9377 11.1249 10.6313 11.4711 8.30206C11.5034 8.0837 11.4991 7.68173 11.1722 7.71758C10.9142 7.74474 10.8711 8.13367 10.8174 8.33031C10.6109 9.07775 10.441 9.83715 10.2539 10.5889C9.87437 12.1088 9.4948 13.6276 9.11631 15.1475H9.11523Z" fill="#81D5FA"/>
<path d="M13.0378 15.5857C13.1249 15.8627 13.3163 16.1995 13.5969 16.1354C13.7507 16.1007 13.8517 15.9431 13.8732 15.7856C13.8948 15.6281 13.8539 15.4695 13.812 15.3163C13.1765 12.9479 12.5399 10.5796 11.9044 8.21121C11.8808 8.1243 11.8528 8.03087 11.7797 7.98089C11.6614 7.9005 11.4894 7.98632 11.427 8.1156C11.3647 8.24489 11.3808 8.39698 11.3991 8.54039C11.7034 10.9457 12.3098 13.2782 13.0378 15.5857Z" fill="#81D5FA"/>
<path d="M10.5163 7.1645C10.27 7.52518 10.3206 8.06078 10.6292 8.36823C10.9378 8.67568 11.469 8.71805 11.8217 8.46492C12.9571 7.64903 11.3496 5.9423 10.5152 7.16558L10.5163 7.1645Z" fill="#28B6F6"/>
<path d="M11.4977 16.957C8.51819 16.957 6.10156 19.3987 6.10156 22.409C6.10156 25.4194 8.51819 27.8638 11.4977 27.8638C14.4772 27.8638 16.8966 25.4222 16.8966 22.409C16.8966 19.3959 14.4799 16.957 11.4977 16.957ZM11.4977 21.864C12.3881 21.864 13.1161 22.5968 13.1161 23.4992C13.1161 24.4016 12.3909 25.1371 11.4977 25.1371H10.4201C10.1201 25.1371 9.87926 24.8938 9.87926 24.5907C9.87926 24.2876 10.1201 24.0442 10.4201 24.0442H11.4977C11.7977 24.0442 12.0385 23.8009 12.0385 23.4978C12.0385 23.1947 11.795 22.9513 11.4977 22.9513C10.6045 22.9513 9.87926 22.2213 9.87926 21.3161C9.87926 20.4109 10.6045 19.6837 11.4977 19.6837H12.578C12.8753 19.6837 13.1189 19.9271 13.1189 20.2302C13.1189 20.5333 12.8753 20.7766 12.578 20.7766H11.4977C11.1977 20.7766 10.9568 21.0228 10.9568 21.3175C10.9568 21.6123 11.1977 21.864 11.4977 21.864Z" fill="#56A716"/>
<path d="M13.1161 23.499C13.1161 24.4042 12.3908 25.137 11.4976 25.137H10.4201C10.12 25.137 9.87921 24.8937 9.87921 24.5905C9.87921 24.2874 10.12 24.0441 10.4201 24.0441H11.4976C11.7977 24.0441 12.0385 23.8008 12.0385 23.4976C12.0385 23.1945 11.7949 22.9512 11.4976 22.9512C10.6045 22.9512 9.87921 22.2212 9.87921 21.316C9.87921 20.4108 10.6045 19.6836 11.4976 19.6836H12.578C12.8752 19.6836 13.1188 19.9269 13.1188 20.23C13.1188 20.5332 12.8752 20.7765 12.578 20.7765H11.4976C11.1976 20.7765 10.9568 21.0226 10.9568 21.3174C10.9568 21.6122 11.1976 21.8638 11.4976 21.8638C12.388 21.8638 13.1161 22.5966 13.1161 23.499Z" fill="white"/>
</svg>
