<svg width="26" height="23" viewBox="0 0 26 23" fill="none" xmlns="http://www.w3.org/2000/svg">
<path d="M18.5529 12.6754C17.9595 12.6754 17.48 12.189 17.48 11.5956C17.48 11.0746 17.8595 10.6261 18.3735 10.5399C22.9344 9.7636 23.6796 6.11695 23.7659 4.35055H21.306C20.7126 4.35055 20.2296 3.86755 20.2296 3.27415C20.2296 2.68075 20.7126 2.19775 21.306 2.19775H24.8285C25.377 2.19775 25.8359 2.61175 25.898 3.15685C26.0049 4.5748 25.8221 6.0031 25.3563 7.34515C24.6353 9.3772 22.9034 11.9509 18.7496 12.6582C18.6875 12.6685 18.6219 12.6754 18.5564 12.6754H18.5529Z" fill="#CE5F13"/>
<path d="M7.36217 12.6754C7.30007 12.6754 7.24142 12.6685 7.17932 12.6582C3.01862 11.9475 1.29017 9.3772 0.572571 7.34515C0.106821 5.99965 -0.0794787 4.5748 0.0309213 3.15685C0.0930213 2.61175 0.551871 2.2012 1.10042 2.19775H4.61942C5.21282 2.19775 5.69582 2.68075 5.69582 3.27415C5.69582 3.86755 5.21282 4.35055 4.61942 4.35055H2.15612C2.24237 6.11695 2.98412 9.7636 7.54847 10.5399C8.13497 10.6399 8.52827 11.1954 8.42477 11.7819C8.33507 12.2959 7.89002 12.6754 7.36562 12.6754H7.35872H7.36217Z" fill="#CE5F13"/>
<path d="M21.505 7.95057C20.4209 12.5577 17.8756 15.9051 14.1192 17.6798V21.764C14.1192 22.4454 13.5633 23 12.8804 23C12.1974 23 11.6454 22.4454 11.6415 21.764V17.6798C7.88902 15.9051 5.34372 12.5617 4.25174 7.95057C3.7276 5.70444 3.56479 3.39097 3.75936 1.09335C3.83084 0.467447 4.36293 0 4.99032 0H20.7704C21.3978 0 21.9259 0.467447 22.0013 1.09335C22.1959 3.39097 22.0291 5.70444 21.505 7.95057Z" fill="#FF9F30"/>
<path d="M17.48 21.184V22.0595C17.4765 22.5815 16.9982 23.0002 16.4063 23.0002H8.43026C7.83834 23.0002 7.35999 22.5784 7.35999 22.0565V21.187C7.35999 20.6651 7.83834 20.2433 8.43026 20.2402H16.4063C16.9982 20.2402 17.48 20.662 17.48 21.184Z" fill="#D7472C"/>
</svg>
