<svg width="31" height="37" viewBox="0 0 31 37" fill="none" xmlns="http://www.w3.org/2000/svg">
<circle cx="15.5" cy="34.5" r="2.5" fill="#3F78BA"/>
<circle cx="15.5" cy="15.5" r="15.5" fill="#3F78BA"/>
<path d="M8.46363 9.02C8.72887 8.42 9.16996 7.90873 9.73216 7.54963C10.2944 7.19054 10.9529 6.99942 11.6261 7H20.3739C21.7489 7 22.9919 7.79467 23.5336 9.02L24.6226 11.484C24.7258 11.7173 24.9114 11.9093 25.1451 12.0227C25.8326 12.356 26.3208 12.976 26.472 13.7053L26.9326 15.944C26.978 16.1587 27 16.3773 27 16.5973V17.148C27 18.2333 26.4638 19.2053 25.625 19.8107V22.3333C25.625 22.5101 25.5526 22.6797 25.4236 22.8047C25.2947 22.9298 25.1198 23 24.9375 23H22.1875C22.0052 23 21.8303 22.9298 21.7014 22.8047C21.5724 22.6797 21.5 22.5101 21.5 22.3333V20.5493C19.7235 20.6133 17.7256 20.6667 16 20.6667C14.2744 20.6667 12.2765 20.6133 10.5 20.5493V22.3333C10.5 22.5101 10.4276 22.6797 10.2986 22.8047C10.1697 22.9298 9.99484 23 9.8125 23H7.0625C6.88016 23 6.7053 22.9298 6.57636 22.8047C6.44743 22.6797 6.375 22.5101 6.375 22.3333V19.8107C5.53625 19.2053 5 18.2333 5 17.148V16.5973C5.00023 16.3779 5.0228 16.1591 5.06738 15.944L5.528 13.704C5.67925 12.976 6.16737 12.3547 6.8535 12.0227C7.08834 11.9089 7.27396 11.718 7.37738 11.484L8.46638 9.02H8.46363ZM9.12363 17.6667C9.4883 17.6667 9.83803 17.5262 10.0959 17.2761C10.3538 17.0261 10.4986 16.687 10.4986 16.3333C10.4986 15.9797 10.3538 15.6406 10.0959 15.3905C9.83803 15.1405 9.4883 15 9.12363 15C8.75895 15 8.40922 15.1405 8.15135 15.3905C7.89349 15.6406 7.74863 15.9797 7.74863 16.3333C7.74863 16.687 7.89349 17.0261 8.15135 17.2761C8.40922 17.5262 8.75895 17.6667 9.12363 17.6667ZM22.8736 17.6667C23.2383 17.6667 23.588 17.5262 23.8459 17.2761C24.1038 17.0261 24.2486 16.687 24.2486 16.3333C24.2486 15.9797 24.1038 15.6406 23.8459 15.3905C23.588 15.1405 23.2383 15 22.8736 15C22.509 15 22.1592 15.1405 21.9014 15.3905C21.6435 15.6406 21.4986 15.9797 21.4986 16.3333C21.4986 16.687 21.6435 17.0261 21.9014 17.2761C22.1592 17.5262 22.509 17.6667 22.8736 17.6667ZM13.2486 15C12.884 15 12.5342 15.1405 12.2764 15.3905C12.0185 15.6406 11.8736 15.9797 11.8736 16.3333C11.8736 16.687 12.0185 17.0261 12.2764 17.2761C12.5342 17.5262 12.884 17.6667 13.2486 17.6667H18.7486C19.1133 17.6667 19.463 17.5262 19.7209 17.2761C19.9788 17.0261 20.1236 16.687 20.1236 16.3333C20.1236 15.9797 19.9788 15.6406 19.7209 15.3905C19.463 15.1405 19.1133 15 18.7486 15H13.2486ZM8.99438 11.252C8.94063 11.3595 8.91706 11.4789 8.92603 11.5981C8.93501 11.7173 8.97622 11.8321 9.04551 11.9309C9.1148 12.0297 9.20972 12.1091 9.32072 12.161C9.43171 12.2129 9.55486 12.2356 9.67775 12.2267C10.929 12.1293 14.284 12 15.9986 12C17.7133 12 21.0696 12.1293 22.3195 12.2267C22.4424 12.2356 22.5655 12.2129 22.6765 12.161C22.7875 12.1091 22.8825 12.0297 22.9517 11.9309C23.021 11.8321 23.0622 11.7173 23.0712 11.5981C23.0802 11.4789 23.0566 11.3595 23.0029 11.252L21.6884 8.70133C21.6312 8.59074 21.5435 8.49774 21.4349 8.43275C21.3264 8.36776 21.2013 8.33334 21.0738 8.33333H10.9235C10.7959 8.33334 10.6709 8.36776 10.5623 8.43275C10.4538 8.49774 10.366 8.59074 10.3089 8.70133L8.99438 11.252Z" fill="white"/>
</svg>
