<svg width="15" height="17" viewBox="0 0 15 17" fill="none" xmlns="http://www.w3.org/2000/svg">
<path d="M5.54999 14H2.29988V7.17496C2.29988 4.30315 4.62738 1.97484 7.5 1.97484C10.3718 1.97484 12.7001 4.30048 12.7001 7.17496V14H9.45001C9.45001 15.077 8.57696 15.95 7.5 15.95C6.42304 15.95 5.54999 15.077 5.54999 14ZM6.85003 14C6.85003 14.359 7.141 14.6501 7.5 14.6501C7.859 14.6501 8.14997 14.359 8.14997 14H6.85003ZM11.4 12.7001V7.17513C11.4 5.01967 9.65485 3.27511 7.49994 3.27511C5.34568 3.27511 3.59992 5.02098 3.59992 7.17513V12.7001H11.4ZM1 13.35C1 12.991 1.26551 12.7001 1.5923 12.7001H13.4077C13.7348 12.7001 14 12.9885 14 13.35C14 13.709 13.7345 14 13.4077 14H1.5923C1.2652 14 1 13.7115 1 13.35ZM6.85003 1.64997C6.85003 1.29097 7.1385 1 7.5 1C7.859 1 8.14997 1.28846 8.14997 1.64997V2.29993H6.85003V1.64997Z" fill="#00B3FF" stroke="#00B3FF" stroke-width="0.2"/>
</svg>
