<svg width="32" height="24" viewBox="0 0 32 24" fill="none" xmlns="http://www.w3.org/2000/svg">
<path d="M10.2608 0C7.0265 0 4.39825 2.62824 4.39825 5.85723C4.39825 9.08621 7.0265 11.7198 10.2608 11.7198C13.4952 11.7198 16.1181 9.09157 16.1181 5.85723C16.1181 2.62288 13.4898 0 10.2608 0ZM10.2608 9.93905C8.00806 9.93905 6.17902 8.11001 6.17902 5.85723C6.17902 3.60445 8.00806 1.78077 10.2608 1.78077C12.5136 1.78077 14.3427 3.60981 14.3427 5.85723C14.3427 8.10464 12.5083 9.93905 10.2608 9.93905Z" fill="white"/>
<path d="M19.7655 16.2199C19.39 15.7157 18.8643 15.2437 18.2314 14.8307C16.3487 13.5917 13.4738 12.7979 10.2609 12.7979C4.60211 12.7979 0 15.2545 0 18.2689C0 21.2833 4.60211 23.7399 10.2609 23.7399C12.9642 23.7399 15.4262 23.1821 17.2606 22.2649C17.9579 21.9162 18.5693 21.5193 19.0628 21.0795C19.9907 20.2588 20.5217 19.2987 20.5217 18.2689C20.5217 17.5448 20.2536 16.8529 19.7655 16.2199ZM15.4101 21.0956C14.0048 21.5944 12.2347 21.9162 10.2609 21.9162C5.43349 21.9162 1.82368 19.9907 1.82368 18.2689C1.82368 16.5471 5.43349 14.6215 10.2609 14.6215C12.6424 14.6215 14.7235 15.0935 16.2254 15.7694C16.9227 16.0858 17.4966 16.4506 17.9096 16.8314C18.4192 17.298 18.6981 17.7915 18.6981 18.2689C18.6981 18.9447 18.1402 19.6527 17.1694 20.2642C16.6813 20.5699 16.0913 20.8542 15.4101 21.0956Z" fill="white"/>
<path d="M22.7155 3.69531C20.0015 3.69531 17.797 5.89982 17.797 8.60852C17.797 11.3172 20.0015 13.5271 22.7155 13.5271C25.4296 13.5271 27.6287 11.3226 27.6287 8.60852C27.6287 5.89445 25.4242 3.69531 22.7155 3.69531ZM22.7155 11.8053C20.9508 11.8053 19.5187 10.3732 19.5187 8.60852C19.5187 6.84384 20.9508 5.41172 22.7155 5.41172C24.4802 5.41172 25.9123 6.8492 25.9123 8.60852C25.9123 10.3678 24.4748 11.8053 22.7155 11.8053Z" fill="white"/>
<path d="M22.7155 14.1387C21.0689 14.1387 19.5348 14.3908 18.2314 14.8306C17.4751 15.0827 16.7993 15.3992 16.2254 15.7693C16.9227 16.0857 17.4966 16.4505 17.9096 16.8313C18.4406 16.5899 19.0682 16.3807 19.7655 16.2198C20.6505 16.016 21.6481 15.898 22.7155 15.898C26.5184 15.898 29.4685 17.4267 29.4685 18.7408C29.4685 20.0549 26.5184 21.5836 22.7155 21.5836C21.3585 21.5836 20.1087 21.3905 19.0628 21.0794C18.3173 20.8541 17.6736 20.5752 17.1694 20.2641C16.6813 20.5698 16.0913 20.8541 15.4101 21.0955C15.9036 21.5407 16.5311 21.9376 17.2606 22.2648C18.741 22.9352 20.6398 23.3375 22.7155 23.3375C27.4035 23.3375 31.2225 21.2725 31.2225 18.7408C31.2225 16.2091 27.4035 14.1387 22.7155 14.1387Z" fill="white"/>
</svg>
