<svg width="20" height="20" viewBox="0 0 20 20" fill="none" xmlns="http://www.w3.org/2000/svg">
<rect x="6.10352e-05" width="20" height="20" rx="5" fill="#040C17"/>
<path d="M9.16792 5.20244L14.0001 10.0021L9.16792 14.8017C9.03621 14.9321 8.85951 15.0034 8.67667 14.9999C8.49383 14.9964 8.31984 14.9183 8.19298 14.783C8.06611 14.6476 7.99676 14.466 8.00018 14.2781C8.0036 14.0902 8.07952 13.9114 8.21122 13.781L12.0177 10.0021L8.21122 6.21903C8.07952 6.08864 8.0036 5.90982 8.00018 5.72191C7.99676 5.534 8.06611 5.35238 8.19298 5.21702C8.31984 5.08166 8.49383 5.00364 8.67667 5.00012C8.85951 4.99661 9.03621 5.06788 9.16792 5.19827L9.16792 5.20244Z" fill="white"/>
</svg>
