<svg width="11" height="16" viewBox="0 0 11 16" fill="none" xmlns="http://www.w3.org/2000/svg">
<path d="M6.28518 10.9985H4.71387V12.5698H6.28518V10.9985Z" fill="white"/>
<path fill-rule="evenodd" clip-rule="evenodd" d="M0 1.57131C0 1.15457 0.165548 0.754904 0.460225 0.460226C0.754902 0.165549 1.15457 9.11398e-07 1.57131 9.11398e-07H9.427C9.63349 -0.000221479 9.838 0.0402574 10.0288 0.119123C10.2197 0.197989 10.3931 0.313696 10.5392 0.459627C10.6853 0.605559 10.8012 0.778854 10.8802 0.969604C10.9593 1.16035 11 1.36482 11 1.57131V14.1409C11 14.5577 10.8345 14.9573 10.5398 15.252C10.2451 15.5467 9.84543 15.7122 9.42869 15.7122H1.57131C1.15457 15.7122 0.754902 15.5467 0.460225 15.252C0.165548 14.9573 0 14.5577 0 14.1409V1.57131ZM1.57131 1.57131H9.427V14.1409H1.57131V1.57131Z" fill="white"/>
</svg>
