<svg width="24" height="24" viewBox="0 0 24 24" fill="none" xmlns="http://www.w3.org/2000/svg">
<path d="M14 5.5H10M20 7V17C20 21 19 22 15 22H9C5 22 4 21 4 17V7C4 3 5 2 9 2H15C19 2 20 3 20 7Z" stroke="#AAAAAA" stroke-width="1.5" stroke-linecap="round" stroke-linejoin="round"/>
<path d="M12.0002 19.1C12.4113 19.1 12.8055 18.9367 13.0962 18.646C13.3869 18.3553 13.5502 17.9611 13.5502 17.55C13.5502 17.1389 13.3869 16.7447 13.0962 16.454C12.8055 16.1633 12.4113 16 12.0002 16C11.5891 16 11.1949 16.1633 10.9042 16.454C10.6135 16.7447 10.4502 17.1389 10.4502 17.55C10.4502 17.9611 10.6135 18.3553 10.9042 18.646C11.1949 18.9367 11.5891 19.1 12.0002 19.1Z" stroke="#AAAAAA" stroke-width="1.5" stroke-linecap="round" stroke-linejoin="round"/>
</svg>
