<svg width="10" height="10" viewBox="0 0 10 10" fill="none" xmlns="http://www.w3.org/2000/svg">
<path fill-rule="evenodd" clip-rule="evenodd" d="M8.36273 4.19279C8.16984 2.4444 6.78189 1.05658 5.03332 0.863715V0H4.19468V0.863715C2.44611 1.05658 1.05815 2.4444 0.865266 4.19279H0.00146484V5.03135H0.865266C1.05815 6.77974 2.44611 8.16755 4.19468 8.36042V9.22414H5.03332V8.36042C6.78189 8.16755 8.16984 6.77974 8.36273 5.03135H9.22653V4.19279H8.36273ZM4.61407 2.93495C3.68737 2.93495 2.93678 3.68546 2.93678 4.61207C2.93678 5.53868 3.68737 6.28919 4.61407 6.28919C5.54076 6.28919 6.29135 5.53868 6.29135 4.61207C6.29135 3.68546 5.54076 2.93495 4.61407 2.93495ZM1.67866 4.61207C1.67866 6.23468 2.99114 7.54702 4.61391 7.54702C6.23668 7.54702 7.54916 6.23468 7.54916 4.61207C7.54916 2.98946 6.23668 1.67712 4.61391 1.67712C2.99114 1.67712 1.67866 2.98946 1.67866 4.61207Z" fill="#F3BA17"/>
</svg>
