<svg width="43" height="43" viewBox="0 0 43 43" fill="none" xmlns="http://www.w3.org/2000/svg">
<circle cx="21.5" cy="21.5" r="21.5" fill="#EEEEEE"/>
<path fill-rule="evenodd" clip-rule="evenodd" d="M22.0747 32C22.894 32 26.7955 27.1009 27.7575 25.5403C29.2364 23.1414 30.1494 21.7222 30.1494 19.0739C30.1494 14.6148 26.5342 11 22.0747 11C17.6152 11 14 14.6148 14 19.0739C14 21.736 14.846 23.1457 16.3199 25.5403C17.3472 27.2093 21.2554 32 22.0747 32ZM22.0748 23.1108C24.3045 23.1108 26.1121 21.3034 26.1121 19.0739C26.1121 16.8443 24.3045 15.0369 22.0748 15.0369C19.845 15.0369 18.0374 16.8443 18.0374 19.0739C18.0374 21.3034 19.845 23.1108 22.0748 23.1108Z" fill="#AAAAAA"/>
</svg>
