<svg width="18" height="22" viewBox="0 0 18 22" fill="none" xmlns="http://www.w3.org/2000/svg">
<path d="M2.47597 12.8602L3.1185 13.247L3.12018 13.2442L2.47597 12.8602ZM1.32597 14.7702L0.683441 14.3833L0.683328 14.3835L1.32597 14.7702ZM2.40597 17.7002L2.16552 18.4106L2.1683 18.4115L2.40597 17.7002ZM15.676 17.7002L15.4406 16.9881L15.4383 16.9888L15.676 17.7002ZM16.756 14.7702L17.3991 14.3843L17.3985 14.3833L16.756 14.7702ZM15.606 12.8602L14.9562 13.235L14.9634 13.247L15.606 12.8602ZM10.8958 2.20043L10.6904 2.92175C10.9646 2.99983 11.2593 2.91572 11.451 2.70469C11.6427 2.49366 11.6981 2.19221 11.5941 1.92677L10.8958 2.20043ZM7.1958 2.20043L6.49751 1.92677C6.39349 2.19221 6.44895 2.49366 6.64063 2.70469C6.8323 2.91572 7.12705 2.99983 7.40123 2.92175L7.1958 2.20043ZM6.9259 20.1796L6.39517 20.7095L6.39557 20.7099L6.9259 20.1796ZM9.04597 1.16016C5.32175 1.16016 2.29597 4.18594 2.29597 7.91016H3.79597C3.79597 5.01437 6.15018 2.66016 9.04597 2.66016V1.16016ZM2.29597 7.91016V10.8002H3.79597V7.91016H2.29597ZM2.29597 10.8002C2.29597 11.0148 2.24739 11.3288 2.15454 11.6633C2.06176 11.9975 1.94147 12.2921 1.83176 12.4761L3.12018 13.2442C3.32047 12.9082 3.48517 12.4778 3.59989 12.0645C3.71454 11.6515 3.79597 11.1955 3.79597 10.8002H2.29597ZM1.83344 12.4733L0.683441 14.3833L1.96849 15.157L3.11849 13.247L1.83344 12.4733ZM0.683328 14.3835C0.222291 15.1497 0.126089 16.0094 0.408885 16.7731C0.691354 17.5359 1.32311 18.1254 2.16552 18.4106L2.64641 16.9897C2.18882 16.8349 1.92558 16.5494 1.81555 16.2522C1.70584 15.956 1.71964 15.5706 1.96861 15.1568L0.683328 14.3835ZM2.1683 18.4115C6.63255 19.903 11.4494 19.903 15.9136 18.4115L15.4383 16.9888C11.2826 18.3773 6.79938 18.3773 2.64363 16.9888L2.1683 18.4115ZM15.9114 18.4123C17.5804 17.8605 18.3048 15.8939 17.3991 14.3843L16.1128 15.156C16.5271 15.8464 16.1915 16.7398 15.4406 16.9881L15.9114 18.4123ZM17.3985 14.3833L16.2485 12.4733L14.9634 13.247L16.1134 15.157L17.3985 14.3833ZM16.2556 12.4854C16.1477 12.2983 16.0287 12.0008 15.9368 11.6655C15.8446 11.3295 15.796 11.015 15.796 10.8002H14.296C14.296 11.1953 14.3773 11.6508 14.4902 12.0623C14.6032 12.4745 14.7642 12.902 14.9563 13.2349L16.2556 12.4854ZM15.796 10.8002V7.91016H14.296V10.8002H15.796ZM15.796 7.91016C15.796 4.19594 12.7602 1.16016 9.04597 1.16016V2.66016C11.9318 2.66016 14.296 5.02437 14.296 7.91016H15.796ZM11.1012 1.47911C9.75766 1.09646 8.33394 1.09646 6.99037 1.47911L7.40123 2.92175C8.47624 2.61558 9.61536 2.61558 10.6904 2.92175L11.1012 1.47911ZM7.89409 2.47408C8.07465 2.01337 8.52294 1.69043 9.0458 1.69043V0.19043C7.88866 0.19043 6.89696 0.907494 6.49751 1.92677L7.89409 2.47408ZM9.0458 1.69043C9.56866 1.69043 10.017 2.01337 10.1975 2.47408L11.5941 1.92677C11.1946 0.907494 10.2029 0.19043 9.0458 0.19043V1.69043ZM11.2959 18.0596C11.2959 19.2954 10.2817 20.3096 9.0459 20.3096V21.8096C11.1101 21.8096 12.7959 20.1238 12.7959 18.0596H11.2959ZM9.0459 20.3096C8.43338 20.3096 7.86175 20.0548 7.45623 19.6492L6.39557 20.7099C7.07004 21.3844 8.01842 21.8096 9.0459 21.8096V20.3096ZM7.45663 19.6496C7.03478 19.2272 6.79724 18.6549 6.7959 18.0579L5.2959 18.0613C5.29814 19.0546 5.69333 20.0066 6.39517 20.7095L7.45663 19.6496Z" fill="black"/>
</svg>
