<svg width="10" height="10" viewBox="0 0 10 10" fill="none" xmlns="http://www.w3.org/2000/svg">
<path fill-rule="evenodd" clip-rule="evenodd" d="M1 5C1 2.65358 2.90358 0.75 5.25 0.75C7.59642 0.75 9.5 2.65358 9.5 5C9.5 7.34642 7.59642 9.25 5.25 9.25C2.90358 9.25 1 7.34642 1 5ZM5.25 1.40385C3.26469 1.40385 1.65385 3.01469 1.65385 5C1.65385 6.98531 3.26469 8.59615 5.25 8.59615C7.23531 8.59615 8.84615 6.98531 8.84615 5C8.84615 3.01469 7.23531 1.40385 5.25 1.40385Z" fill="#00FF29" stroke="#00FF29" stroke-width="0.2" stroke-miterlimit="10"/>
<path fill-rule="evenodd" clip-rule="evenodd" d="M3.0573 4.76861C3.18497 4.64093 3.39197 4.64093 3.51964 4.76861L4.92309 6.08952C5.05076 6.21719 5.05076 6.42419 4.92309 6.55186C4.79542 6.67953 4.58842 6.67953 4.46075 6.55186L3.0573 5.23094C2.92963 5.10327 2.92963 4.89628 3.0573 4.76861Z" fill="#00FF29" stroke="#00FF29" stroke-width="0.2" stroke-linecap="round" stroke-linejoin="round"/>
<path fill-rule="evenodd" clip-rule="evenodd" d="M7.53847 3.46099C7.66614 3.58866 7.66614 3.79566 7.53847 3.92333L4.92308 6.53871C4.79541 6.66638 4.58842 6.66638 4.46074 6.53871C4.33307 6.41104 4.33307 6.20404 4.46074 6.07637L7.07613 3.46099C7.2038 3.33332 7.4108 3.33332 7.53847 3.46099Z" fill="#00FF29" stroke="#00FF29" stroke-width="0.2" stroke-linecap="round" stroke-linejoin="round"/>
</svg>
