<svg width="28" height="21" viewBox="0 0 24 25" fill="none" xmlns="http://www.w3.org/2000/svg">
<path d="M11.6987 24.8921C10.8257 24.8921 9.95267 24.6426 9.16277 24.2269L2.62744 20.5185C1.00608 19.6039 0 17.8911 0 16.0619V8.81979C0 6.99056 0.997761 5.27774 2.62744 4.36312L9.15446 0.654781C10.6927 -0.21826 12.6965 -0.21826 14.2347 0.654781L20.7701 4.36312C22.3914 5.27774 23.3975 6.99056 23.3975 8.81979V16.0619C23.3975 17.8911 22.3997 19.6039 20.7701 20.5185L14.2347 24.2269C13.4448 24.6842 12.5718 24.8921 11.6987 24.8921ZM11.6987 0.821074C10.9504 0.821074 10.2437 1.02894 9.5785 1.36153L3.04317 5.06987C1.71282 5.81819 0.881355 7.27326 0.881355 8.81979V16.0619C0.881355 17.6001 1.71282 19.0635 3.04317 19.8118L9.5785 23.5201C10.8673 24.2685 12.5385 24.2685 13.8273 23.5201L20.3626 19.8118C21.693 19.0635 22.5245 17.6084 22.5245 16.0619V8.81979C22.5245 7.28158 21.693 5.81819 20.3626 5.06987L13.8273 1.36153C13.1621 1.02894 12.4554 0.821074 11.7071 0.821074H11.6987Z" fill="white"/>
<path d="M11.6987 10.5908C13.0041 10.5908 14.0434 9.55148 14.0434 8.26271C14.0434 6.97393 13.0041 5.91797 11.6987 5.91797C10.3933 5.91797 9.35394 6.9573 9.35394 8.26271C9.35394 9.56811 10.3933 10.5908 11.6987 10.5908ZM11.6987 6.66629C12.5884 6.66629 13.2868 7.38967 13.2868 8.25439C13.2868 9.11912 12.5884 9.82587 11.6987 9.82587C10.809 9.82587 10.1106 9.12743 10.1106 8.25439C10.1106 7.38135 10.809 6.66629 11.6987 6.66629Z" fill="white"/>
<path d="M14.8583 12.8021C14.7586 12.6192 14.6172 12.4362 14.5257 12.3281C14.4842 12.2866 14.4592 12.245 14.4426 12.2284H14.4343C13.9188 11.7461 13.237 11.4385 12.4803 11.4385H10.9338C10.1772 11.4385 9.49537 11.7378 8.97986 12.2117H8.97154C8.97154 12.2117 8.92166 12.2783 8.8884 12.3198C8.78862 12.4279 8.65559 12.6108 8.55581 12.7938C8.28974 13.2344 8.14008 13.725 8.14008 14.2738V17.6412C8.23154 18.3812 8.88008 18.9633 9.63672 18.9633H13.7941C14.5507 18.9633 15.1992 18.3812 15.2907 17.6412V14.2738C15.2907 13.725 15.141 13.2344 14.875 12.7938L14.8583 12.8021ZM14.5174 17.4583C14.5174 17.874 14.1765 18.2149 13.7608 18.2149H9.63672C9.22098 18.2149 8.88008 17.874 8.88008 17.4583V14.2821C8.88008 13.1264 9.80301 12.2034 10.9588 12.2034H12.4388C13.5945 12.2034 14.5174 13.1264 14.5174 14.2821V17.4583Z" fill="white"/>
</svg>
