<svg width="25" height="17" viewBox="0 0 25 17" fill="none" xmlns="http://www.w3.org/2000/svg">
<path d="M19.0694 17C18.795 16.9989 18.5319 16.8892 18.3378 16.6952C18.1437 16.5011 18.0343 16.2381 18.0332 15.9636V14.3815C18.0332 14.1631 18.2101 13.986 18.4287 13.986C18.5336 13.986 18.6341 14.0277 18.7084 14.1018C18.7826 14.176 18.8243 14.2766 18.8243 14.3815V15.9636C18.8253 16.0293 18.8523 16.0918 18.8993 16.1376C18.9442 16.1833 19.0054 16.2091 19.0693 16.2089H20.9403C21.0786 16.2066 21.1895 16.0939 21.1895 15.9557V14.0967C21.1895 13.8783 21.3666 13.7012 21.585 13.7012C21.6899 13.7012 21.7906 13.7428 21.8647 13.817C21.9389 13.8912 21.9805 13.9918 21.9805 14.0967V15.9596C21.9786 16.2308 21.8716 16.4907 21.682 16.6848C21.4925 16.8788 21.235 16.9916 20.964 16.9999L19.0694 17Z" fill="black"/>
<path d="M3.58401 16.9997C3.30961 16.9986 3.0465 16.889 2.85244 16.6949C2.65839 16.5009 2.54891 16.2378 2.54785 15.9634V14.1162C2.54785 13.8978 2.72478 13.7207 2.94338 13.7207C3.04826 13.7207 3.14874 13.7624 3.22307 13.8365C3.29723 13.9107 3.33891 14.0113 3.33891 14.1162V15.9634C3.33997 16.029 3.36698 16.0916 3.41395 16.1373C3.45951 16.1844 3.52254 16.2102 3.58806 16.2086H5.45499C5.59325 16.2063 5.70413 16.0937 5.70413 15.9554V14.4049C5.70413 14.1865 5.88124 14.0094 6.09966 14.0094C6.20455 14.0094 6.3052 14.0511 6.37936 14.1252C6.45352 14.1994 6.49519 14.3 6.49519 14.4049V15.9554C6.49413 16.2307 6.38483 16.4945 6.19095 16.6898C5.99707 16.8853 5.73417 16.9965 5.45889 16.9997L3.58401 16.9997Z" fill="black"/>
<path d="M21.0865 6.16742C20.868 6.1729 20.6865 6.00021 20.681 5.78179C20.6756 5.56336 20.8483 5.38184 21.0667 5.37637C22.4035 5.31316 23.4082 5.07584 23.681 4.75944H23.6812C23.7176 4.72783 23.7367 4.68086 23.7326 4.63283C23.7278 4.54613 23.6842 4.46632 23.6139 4.41529C23.353 4.19387 22.6806 4.10275 21.8577 4.17798V4.39552C21.8568 4.64696 21.7564 4.88782 21.5785 5.06561C21.4007 5.24339 21.1599 5.34371 20.9085 5.34477H20.687C20.4686 5.34477 20.2915 5.16767 20.2915 4.94924C20.2915 4.73082 20.4686 4.55372 20.687 4.55372H20.9085C20.9503 4.55354 20.9904 4.53641 21.0193 4.50622C21.0502 4.47779 21.0675 4.43753 21.0667 4.39551V4.15024C21.0651 3.96025 21.1348 3.77679 21.2623 3.63606C21.39 3.49533 21.5658 3.40775 21.7549 3.3908C22.5223 3.31964 23.5584 3.33535 24.1281 3.8061C24.3575 3.99521 24.5003 4.26925 24.5236 4.56556C24.5468 4.82742 24.4592 5.08697 24.2824 5.28139C23.7287 5.91035 22.2534 6.112 21.1182 6.16746L21.0865 6.16742Z" fill="black"/>
<path d="M3.44236 6.16747C2.29533 6.11202 0.815973 5.91038 0.278146 5.27751C0.0881532 5.09087 -0.0126723 4.83166 0.00127738 4.56556C0.025998 4.26962 0.168493 3.99609 0.396804 3.8061C0.962386 3.33536 1.97891 3.31963 2.76997 3.3908C2.95873 3.40863 3.13406 3.49639 3.26155 3.63694C3.38886 3.7775 3.45896 3.96061 3.45826 4.15023V4.39549C3.45808 4.4813 3.52659 4.55158 3.61241 4.5537H3.82995C4.04837 4.5537 4.22547 4.73081 4.22547 4.94923C4.22547 5.16765 4.04837 5.34475 3.82995 5.34475H3.61241C3.36132 5.34369 3.12101 5.24322 2.94372 5.06524C2.76661 4.88743 2.6672 4.64658 2.6672 4.39551V4.17797C1.84455 4.10274 1.17216 4.17797 0.910972 4.41528C0.840694 4.46631 0.797083 4.54612 0.792314 4.63282C0.788252 4.68085 0.807322 4.72782 0.843696 4.75943C1.11668 5.07585 2.12123 5.31317 3.45806 5.37636H3.45824C3.56312 5.37636 3.6636 5.41803 3.73793 5.49219C3.81209 5.56635 3.85377 5.667 3.85377 5.77189C3.85377 5.8796 3.80997 5.98272 3.73228 6.05723C3.65459 6.13192 3.54988 6.17165 3.44235 6.16741L3.44236 6.16747Z" fill="black"/>
<path d="M3.80998 14.8049C3.40757 14.8067 3.01612 14.675 2.69667 14.4301C2.37742 14.1852 2.14858 13.8412 2.04597 13.4522C1.782 12.4809 1.62679 11.4834 1.58318 10.4778C1.56146 10.0655 1.56146 9.65209 1.58318 9.2398C1.63951 8.56297 1.84045 7.90613 2.17259 7.31356L3.23255 5.33592C3.79813 4.0268 5.24179 0.870354 6.08424 0.502355C6.32155 0.399591 6.9228 0.245263 9.38686 0.106828C10.6012 0.0436163 11.76 0.0118297 12.2187 0H12.2624C13.5044 0.0236611 17.618 0.126605 18.405 0.466677C19.2752 0.862204 20.8336 4.27965 21.2924 5.31968L22.3444 7.26572H22.3445C22.6703 7.86502 22.8633 8.52734 22.9101 9.20787C22.9361 9.65178 22.9361 10.0967 22.9101 10.5406C22.8692 11.5121 22.7233 12.4762 22.475 13.4161C22.3712 13.8067 22.141 14.1519 21.8205 14.3981C21.5 14.6441 21.1072 14.7774 20.7031 14.7768L3.80215 14.8046L3.80998 14.8049ZM12.2625 0.791068C11.8115 0.791068 10.6488 0.834505 9.44242 0.897896C7.02582 1.02044 6.51552 1.17088 6.4205 1.21432C6.0052 1.41596 4.81859 3.6825 3.95639 5.66786L2.86871 7.67727C2.59909 8.17573 2.43876 8.72576 2.39797 9.29098C2.37837 9.67697 2.37837 10.0639 2.39797 10.4499C2.43099 11.3944 2.56907 12.3323 2.80939 13.2463C2.86872 13.4661 2.99903 13.66 3.18002 13.798C3.36083 13.9361 3.58243 14.0105 3.81006 14.0096L20.7151 13.9819C20.944 13.9834 21.1668 13.9089 21.3487 13.77C21.5304 13.6312 21.661 13.4357 21.7197 13.2147C21.9467 12.3281 22.0793 11.4198 22.1152 10.5053C22.1411 10.0917 22.1411 9.67679 22.1152 9.26322C22.0769 8.6952 21.9164 8.14196 21.6446 7.64156L20.5767 5.66393C19.6906 3.65062 18.4963 1.38835 18.0849 1.18651C17.6735 0.984868 14.802 0.838487 12.2627 0.790987L12.2625 0.791068Z" fill="black"/>
<path d="M12.6582 11.0586C12.3457 11.0586 12.0333 11.0586 11.7248 11.0349L8.92048 10.8926V10.8925C8.59029 10.872 8.28127 10.7231 8.0595 10.4777C7.83773 10.2322 7.72083 9.90966 7.7339 9.57909C7.74697 9.24852 7.88893 8.93635 8.12943 8.70911C8.37892 8.47162 8.71494 8.34713 9.05889 8.36496C10.1584 8.41635 11.2975 8.4559 12.4486 8.48362C13.4731 8.48362 14.5092 8.44019 15.5139 8.40452C15.8572 8.3971 16.1886 8.52918 16.4324 8.77091C16.6763 9.01247 16.8115 9.34282 16.8073 9.68609C16.8076 10.0122 16.6826 10.3258 16.458 10.5623C16.2334 10.7985 15.9265 10.9394 15.6009 10.9557L13.4492 11.0388C13.1921 11.0507 12.9231 11.0586 12.6581 11.0586L12.6582 11.0586ZM8.98775 9.15619V9.15602C8.86732 9.15443 8.75096 9.19981 8.66338 9.28262C8.56962 9.37285 8.51559 9.49663 8.51311 9.62677C8.51276 9.87998 8.71123 10.0887 8.96391 10.1014L11.7642 10.2437C12.314 10.2714 12.8756 10.2714 13.4254 10.2437L15.5692 10.1487V10.1489C15.8169 10.1364 16.0124 9.934 16.0163 9.6861C16.0198 9.55402 15.9683 9.42654 15.8738 9.33401C15.7822 9.24202 15.6556 9.19311 15.5258 9.19964C14.5172 9.23531 13.477 9.26285 12.4288 9.27486C11.2422 9.2512 10.1111 9.21165 9.00749 9.16009L8.98775 9.15619Z" fill="black"/>
<path d="M18.5909 11.0982C18.3137 11.0966 18.0463 10.994 17.8394 10.8095C17.5922 10.5938 17.4484 10.2831 17.4438 9.9551V9.21951C17.4493 8.93204 17.5634 8.65745 17.7629 8.45069C17.9624 8.24375 18.2328 8.11997 18.5197 8.10407L20.4657 7.96564C20.6905 7.94993 20.915 8.00184 21.1103 8.11449C21.3054 8.22733 21.4625 8.39578 21.5612 8.59848C21.6643 8.7996 21.7037 9.02738 21.6741 9.25126C21.6442 9.47533 21.5471 9.68493 21.3952 9.85233C20.6847 10.5812 19.7324 11.0257 18.7175 11.1021L18.5909 11.0982ZM20.521 8.72506L18.5909 8.8951C18.4102 8.90764 18.27 9.05808 18.2706 9.23925V9.97484C18.2713 10.0748 18.3144 10.1696 18.3892 10.236C18.4599 10.3003 18.5552 10.3306 18.6502 10.319C19.4699 10.263 20.2413 9.9118 20.8217 9.33016C20.9128 9.22545 20.9323 9.07642 20.871 8.95194C20.8095 8.82745 20.6794 8.75188 20.5408 8.76053L20.521 8.72506Z" fill="black"/>
<path d="M5.9336 11.0434H5.79517C4.78108 10.9576 3.83326 10.5047 3.12922 9.76976C2.97543 9.60007 2.87796 9.38694 2.85041 9.15952C2.82269 8.93209 2.8663 8.70184 2.97507 8.50019C3.07519 8.29765 3.23411 8.13009 3.43099 8.01936C3.62787 7.90864 3.85354 7.85974 4.07848 7.87916L6.02045 8.02942H6.02063C6.30597 8.05344 6.57188 8.18375 6.76544 8.39493C6.95896 8.60594 7.06579 8.88227 7.06473 9.16867V9.90426C7.05961 10.2311 6.91588 10.5401 6.6692 10.7546C6.46667 10.9361 6.20551 11.0387 5.93361 11.0433L5.9336 11.0434ZM3.98368 8.67024C3.84948 8.67148 3.72817 8.7504 3.6729 8.87277C3.61763 8.99514 3.63865 9.13852 3.72658 9.23987C4.30347 9.82629 5.07368 10.1833 5.89403 10.2444C5.98831 10.2557 6.08296 10.2269 6.155 10.1653C6.22828 10.098 6.27119 10.0037 6.27366 9.90434V9.17259C6.27631 8.99213 6.13735 8.84099 5.95724 8.82845L4.01527 8.67412H3.98366L3.98368 8.67024Z" fill="black"/>
<path d="M15.5928 13.211H8.93215C8.71373 13.211 8.53662 13.034 8.53662 12.8154C8.53662 12.597 8.71373 12.4199 8.93215 12.4199H15.5928C15.8112 12.4199 15.9884 12.597 15.9884 12.8154C15.9884 13.034 15.8112 13.211 15.5928 13.211Z" fill="black"/>
<path d="M5.88658 5.5966C5.74655 5.6019 5.61413 5.53268 5.53855 5.41473C5.46651 5.30225 5.45609 5.16082 5.51083 5.03898L6.85562 2.04482C6.92166 1.9025 7.02549 1.78102 7.15597 1.69379C7.28646 1.60656 7.43849 1.55695 7.59529 1.55041L12.2625 1.41992L16.9379 1.5347C17.0956 1.53946 17.2488 1.58838 17.3802 1.67578C17.5116 1.76319 17.6159 1.88555 17.6814 2.02911L19.0342 5.01531C19.0891 5.1375 19.0783 5.27929 19.0057 5.39194C18.933 5.50442 18.8083 5.57258 18.6741 5.57293L5.88257 5.59659L5.88658 5.5966ZM12.2625 2.21098L7.62283 2.34147C7.60411 2.34129 7.58699 2.35224 7.57922 2.36919L6.48765 4.80555L18.0529 4.78577L16.9533 2.3533H16.9532C16.9442 2.33759 16.9279 2.32717 16.9097 2.32576L12.2625 2.21098Z" fill="black"/>
</svg>
