<svg width="19" height="14" viewBox="0 0 19 14" fill="none" xmlns="http://www.w3.org/2000/svg">
<path d="M11.9313 13.8187C11.7413 13.8187 11.5513 13.7487 11.4013 13.5987C11.2618 13.4576 11.1836 13.2672 11.1836 13.0687C11.1836 12.8703 11.2618 12.6799 11.4013 12.5387L16.9413 6.99874L11.4013 1.45874C11.2618 1.31761 11.1836 1.12717 11.1836 0.928744C11.1836 0.730313 11.2618 0.539882 11.4013 0.398744C11.6913 0.108744 12.1713 0.108744 12.4613 0.398744L18.5313 6.46874C18.8213 6.75874 18.8213 7.23874 18.5313 7.52874L12.4613 13.5987C12.3113 13.7487 12.1213 13.8187 11.9313 13.8187Z" fill="black"/>
<path d="M17.8312 7.74863H1.00122C0.591221 7.74863 0.251221 7.40863 0.251221 6.99863C0.251221 6.58863 0.591221 6.24863 1.00122 6.24863H17.8312C18.2412 6.24863 18.5812 6.58863 18.5812 6.99863C18.5812 7.40863 18.2412 7.74863 17.8312 7.74863Z" fill="black"/>
</svg>
