<svg width="28" height="24" viewBox="0 0 28 24" fill="none" xmlns="http://www.w3.org/2000/svg">
<path d="M26.1637 7.45231L26.6242 13.2257C26.6854 13.9927 26.1134 14.6625 25.3533 14.7241L23.0564 14.9102L20.0081 15.1614C17.6607 15.3515 15.5972 13.5889 15.4092 11.2331C15.2213 8.87741 16.979 6.80518 19.3263 6.61502L24.6719 6.18197C25.432 6.1204 26.1032 6.69375 26.1637 7.45231Z" fill="#B5EA59"/>
<path d="M19.3289 6.61293L23.6374 6.26389L23.5329 4.95321C23.3238 2.33185 21.0285 0.367292 18.4123 0.579234L4.74759 1.68623C2.1314 1.89817 0.176639 4.2028 0.386082 6.82837L1.30554 18.3548C1.51465 20.9761 3.80996 22.9407 6.42616 22.7287L20.0908 21.6217C22.7028 21.4101 24.6618 19.1052 24.4523 16.4796L24.3189 14.8065L23.0591 14.9085L20.0107 15.1597C17.6632 15.3499 15.5996 13.5871 15.4117 11.2313C15.2237 8.87544 16.9815 6.8031 19.3289 6.61293ZM11.6608 17.2995L6.75175 17.6972C6.4032 17.7255 6.09932 17.4659 6.07142 17.1161C6.04352 16.7663 6.30235 16.4611 6.65089 16.4329L11.5599 16.0352C11.9085 16.007 12.2124 16.2666 12.2403 16.6163C12.2682 16.9661 12.0093 17.2713 11.6608 17.2995Z" fill="#11D3A4"/>
</svg>
