<svg width="43" height="43" viewBox="0 0 43 43" fill="none" xmlns="http://www.w3.org/2000/svg">
<circle cx="21.5" cy="21.5" r="21.5" fill="#EEEEEE"/>
<path d="M22 28.5C23.9891 28.5 25.8968 27.7098 27.3033 26.3033C28.7098 24.8968 29.5 22.9891 29.5 21C29.5 19.0109 28.7098 17.1032 27.3033 15.6967C25.8968 14.2902 23.9891 13.5 22 13.5C20.0109 13.5 18.1032 14.2902 16.6967 15.6967C15.2902 17.1032 14.5 19.0109 14.5 21C14.5 22.9891 15.2902 24.8968 16.6967 26.3033C18.1032 27.7098 20.0109 28.5 22 28.5Z" stroke="#AAAAAA" stroke-width="1.5" stroke-linecap="round" stroke-linejoin="round"/>
<path d="M22 24C22.7956 24 23.5587 23.6839 24.1213 23.1213C24.6839 22.5587 25 21.7956 25 21C25 20.2044 24.6839 19.4413 24.1213 18.8787C23.5587 18.3161 22.7956 18 22 18C21.2044 18 20.4413 18.3161 19.8787 18.8787C19.3161 19.4413 19 20.2044 19 21C19 21.7956 19.3161 22.5587 19.8787 23.1213C20.4413 23.6839 21.2044 24 22 24ZM22 13V11ZM14 21H12ZM22 29V31ZM30 21H32Z" fill="#AAAAAA"/>
<path d="M22 13V11M14 21H12M22 29V31M30 21H32M22 24C22.7956 24 23.5587 23.6839 24.1213 23.1213C24.6839 22.5587 25 21.7956 25 21C25 20.2044 24.6839 19.4413 24.1213 18.8787C23.5587 18.3161 22.7956 18 22 18C21.2044 18 20.4413 18.3161 19.8787 18.8787C19.3161 19.4413 19 20.2044 19 21C19 21.7956 19.3161 22.5587 19.8787 23.1213C20.4413 23.6839 21.2044 24 22 24Z" stroke="#AAAAAA" stroke-width="1.5" stroke-linecap="round" stroke-linejoin="round"/>
</svg>
