<svg width="24" height="24" viewBox="0 0 24 24" fill="none" xmlns="http://www.w3.org/2000/svg">
<path fill-rule="evenodd" clip-rule="evenodd" d="M15.72 5.65548C17.1477 5.03317 18.5985 6.48382 17.976 7.9117L13.4282 18.345C12.8067 19.7708 10.7599 19.6983 10.2411 18.2318L9.06668 14.9128C9.0091 14.7502 8.88131 14.6223 8.7187 14.5649L5.39976 13.3905C3.93324 12.8715 3.86052 10.8249 5.28651 10.2032L15.72 5.65548Z" fill="black"/>
<path fill-rule="evenodd" clip-rule="evenodd" d="M12 1.14402C6.00465 1.14402 1.14402 6.00446 1.14402 12C1.14402 17.9955 6.00445 22.856 12 22.856C17.9955 22.856 22.856 17.9955 22.856 12C22.856 6.00446 17.9955 1.14402 12 1.14402ZM0.00146484 12C0.00146484 5.37338 5.37338 0.00146484 12 0.00146484C18.6266 0.00146484 23.9985 5.37338 23.9985 12C23.9985 18.6266 18.6266 23.9985 12 23.9985C5.37338 23.9985 0.00146484 18.6266 0.00146484 12Z" fill="black"/>
</svg>
