<svg width="40" height="40" viewBox="0 0 40 40" fill="none" xmlns="http://www.w3.org/2000/svg">
<rect x="0.5" y="0.5" width="39" height="39" rx="19.5" fill="#040C17"/>
<rect x="0.5" y="0.5" width="39" height="39" rx="19.5" stroke="#00B3FF"/>
<path fill-rule="evenodd" clip-rule="evenodd" d="M19.4212 28.6857C19.4212 29.1354 19.0677 29.5 18.6317 29.5L14.9475 29.5C13.9497 29.5 13.1389 29.1538 12.5297 28.5064C11.9453 27.8853 11.6049 27.049 11.3948 26.1653C10.9983 24.4971 10.9992 22.3343 11.0001 20.2885C11.0001 20.192 11.0002 20.0959 11.0002 20C11.0002 19.9041 11.0001 19.808 11.0001 19.7115C10.9992 17.6657 10.9983 15.5029 11.3948 13.8347C11.6049 12.951 11.9453 12.1148 12.5297 11.4936C13.1389 10.8462 13.9497 10.5 14.9475 10.5L18.6317 10.5C19.0677 10.5 19.4212 10.8646 19.4212 11.3143C19.4212 11.764 19.0677 12.1286 18.6317 12.1286L14.9475 12.1286C14.336 12.1286 13.9474 12.3253 13.6628 12.6278C13.3534 12.9567 13.1054 13.4776 12.9283 14.2225C12.5786 15.6937 12.5788 17.6807 12.5791 19.8288C12.5791 19.8857 12.5791 19.9428 12.5791 20C12.5791 20.0572 12.5791 20.1143 12.5791 20.1712C12.5788 22.3193 12.5786 24.3063 12.9284 25.7775C13.1054 26.5224 13.3534 27.0433 13.6628 27.3722C13.9474 27.6747 14.336 27.8714 14.9475 27.8714L18.6317 27.8714C19.0677 27.8714 19.4212 28.236 19.4212 28.6857ZM25.4418 24.9186C25.1335 24.6006 25.1335 24.0851 25.4418 23.7671L28.3046 20.8143L17.5791 20.8143C17.1431 20.8143 16.7896 20.4497 16.7896 20C16.7896 19.5503 17.1431 19.1857 17.5791 19.1857L28.3046 19.1857L25.4418 16.2329C25.1335 15.9149 25.1335 15.3994 25.4418 15.0814C25.7501 14.7634 26.25 14.7634 26.5583 15.0814L30.7688 19.4242C31.0771 19.7422 31.0771 20.2578 30.7688 20.5758L26.5583 24.9186C26.25 25.2366 25.7501 25.2366 25.4418 24.9186Z" fill="white" stroke="white" stroke-width="0.4" stroke-linecap="round" stroke-linejoin="round"/>
</svg>
