<svg width="29" height="28" viewBox="0 0 29 28" fill="none" xmlns="http://www.w3.org/2000/svg">
<path d="M11.0044 9.00525C11.0163 9.37458 10.9766 9.83524 11.0242 10.288C11.1434 11.4754 11.6993 12.4126 12.6683 13.0996C13.0178 13.3498 13.403 13.5245 13.82 13.6357C13.8835 13.6516 13.8994 13.6794 13.8994 13.743C13.8955 14.4022 13.8994 15.0575 13.8994 15.7167C13.8994 16.2568 14.3085 16.6817 14.8327 16.6817C15.3807 16.6817 15.8017 16.2687 15.8056 15.7207C15.8056 15.0654 15.8096 14.4101 15.8056 13.7549C15.8056 13.6755 15.8295 13.6516 15.9009 13.6278C17.41 13.1473 18.3234 12.1306 18.6451 10.5779C18.6888 10.3674 18.7007 10.1529 18.7007 9.9385C18.7007 9.21573 18.7007 8.48898 18.7007 7.76621C18.7007 7.30555 18.4227 6.93622 18.0017 6.81708C17.3783 6.64632 16.7905 7.10301 16.7905 7.77019C16.7865 8.49693 16.7905 9.22367 16.7905 9.95438C16.7905 10.9512 15.9923 11.801 14.9955 11.8646C13.8518 11.936 12.9185 11.0584 12.9185 9.90673C12.9185 9.18396 12.9185 8.46516 12.9185 7.74239C12.9185 7.21024 12.4936 6.78134 11.9654 6.78134C11.4372 6.78134 11.0163 7.21024 11.0163 7.74636C11.0044 8.13951 11.0044 8.5287 11.0044 9.00525Z" fill="#2B3D4F"/>
<path d="M13.8838 0.478939C13.8838 0.193008 13.6415 -0.0254117 13.3556 0.00238712C12.2397 0.121525 11.1516 0.371715 10.0952 0.748985C8.7132 1.24539 7.43445 1.94434 6.2669 2.84184C4.65457 4.08088 3.37582 5.60187 2.41875 7.39291C1.72377 8.69549 1.25119 10.0775 0.98909 11.531C0.941435 11.7891 0.913638 12.0472 0.873925 12.3054C0.838183 12.5516 1.02086 12.8018 1.25914 12.8335C1.5411 12.8733 1.77937 12.7025 1.81511 12.4364C1.8866 11.8526 1.99382 11.2768 2.14473 10.7089C2.6054 8.95362 3.39568 7.36114 4.51955 5.93943C6.07628 3.96571 8.03412 2.53605 10.397 1.66238C11.2747 1.33673 12.1841 1.12228 13.1094 0.991232C13.2285 0.975347 13.3516 0.963433 13.4747 0.947548C13.713 0.919749 13.8838 0.721186 13.8838 0.478939Z" fill="#47A7DD"/>
<path d="M13.3912 27.9998C13.6414 28.0077 13.8558 27.829 13.8797 27.5908C13.9075 27.3247 13.7486 27.0943 13.4865 27.0626C13.0497 27.003 12.6089 26.9434 12.176 26.8521C10.4366 26.4867 8.83616 25.7918 7.37871 24.7751C5.52413 23.4765 4.08653 21.8126 3.07386 19.7872C2.47023 18.576 2.06516 17.3012 1.87057 15.9629C1.85071 15.8318 1.83483 15.7008 1.81497 15.5697C1.77923 15.3156 1.54492 15.1329 1.29473 15.1607C1.03263 15.1925 0.84598 15.4228 0.873778 15.6809C1.04851 17.19 1.46947 18.6316 2.11678 20.0056C2.85147 21.5584 3.83237 22.9364 5.07141 24.1278C6.70757 25.7004 8.61377 26.8124 10.7821 27.4756C11.6002 27.7258 12.4381 27.8926 13.2919 27.9918C13.3237 27.9958 13.3555 27.9958 13.3912 27.9998Z" fill="#2B3D4F"/>
<path d="M28.8237 12.3332C28.7919 12.0274 28.7403 11.7057 28.6807 11.384C28.4385 10.0934 28.0215 8.85831 27.4337 7.68282C26.8341 6.49144 26.0835 5.40728 25.178 4.42638C24.0224 3.1794 22.6841 2.17467 21.1631 1.41219C19.8645 0.7609 18.4944 0.328032 17.0608 0.0976988C16.9655 0.0818138 16.8702 0.0699 16.7749 0.0579862C16.4849 0.0182735 16.2467 0.189038 16.207 0.467026C16.1712 0.733101 16.3579 0.967406 16.6438 1.00315C17.1759 1.07463 17.7041 1.18185 18.2244 1.31688C20.0432 1.7974 21.6833 2.63137 23.1368 3.81877C25.1383 5.45891 26.5362 7.51205 27.3384 9.97026C27.5965 10.7645 27.7753 11.5826 27.8706 12.4126C27.9023 12.6707 28.1128 12.8574 28.363 12.8415C28.637 12.8256 28.8276 12.6231 28.8237 12.3332Z" fill="#F2B917"/>
<path d="M28.8237 15.6571C28.8237 15.3871 28.6291 15.1766 28.375 15.1607C28.1208 15.1448 27.9024 15.3275 27.8746 15.5856C27.6959 17.0828 27.271 18.5045 26.6038 19.8547C26.0875 20.8952 25.4442 21.8483 24.6738 22.714C23.534 24.0007 22.1917 25.0253 20.6469 25.7838C19.4913 26.3517 18.276 26.7409 17.0013 26.9514C16.8782 26.9712 16.7551 26.9951 16.628 27.007C16.3619 27.0387 16.1713 27.273 16.1991 27.5312C16.2269 27.7973 16.4691 27.9879 16.7392 27.9521C18.2363 27.7456 19.666 27.3207 21.0242 26.6575C22.3387 26.0142 23.5261 25.1921 24.5784 24.1794C26.6276 22.2057 27.962 19.8349 28.5855 17.0629C28.6847 16.6142 28.7602 16.1614 28.8198 15.7087C28.8237 15.6849 28.8237 15.6611 28.8237 15.6571Z" fill="#3F78B9"/>
<path d="M15.1865 17.9644C15.1865 17.881 15.1865 17.7976 15.1865 17.7182C15.1865 17.6745 15.1745 17.6586 15.1309 17.6586C14.9799 17.6586 14.8251 17.6586 14.6742 17.6586C14.6305 17.6586 14.6146 17.6745 14.6186 17.7182C14.6186 17.885 14.6225 18.0558 14.6186 18.2225C14.6186 18.2742 14.6424 18.2821 14.6861 18.2821C14.833 18.2821 14.976 18.2781 15.1229 18.2821C15.1745 18.2821 15.1944 18.2662 15.1904 18.2146C15.1865 18.1312 15.1865 18.0478 15.1865 17.9644Z" fill="#2B3D4F"/>
<path d="M18.832 17.7778C19.2927 17.7579 19.7573 17.7738 20.2219 17.7658C20.3093 17.7658 20.3252 17.7936 20.3212 17.8731C20.3173 18.441 20.3212 19.0088 20.3212 19.5807C20.3212 20.1526 20.3212 20.7244 20.3212 21.2963C20.3212 21.3678 20.3093 21.3956 20.2299 21.3916C20.1187 21.3837 20.0035 21.3916 19.8923 21.3876C19.5031 21.3797 19.11 21.4194 18.7248 21.3678C18.1609 21.2923 17.732 21.0143 17.4699 20.4981C17.2634 20.089 17.2356 19.6562 17.2951 19.2114C17.4023 18.4052 18.0219 17.8135 18.832 17.7778ZM18.0973 20.4226C18.3237 20.7522 18.6573 20.8793 19.0464 20.8793C19.249 20.8793 19.4515 20.8753 19.6501 20.8793C19.7216 20.8793 19.7454 20.8634 19.7454 20.788C19.7414 20.3829 19.7454 19.9739 19.7454 19.5688C19.7454 19.1637 19.7454 18.7626 19.7454 18.3576C19.7454 18.29 19.7335 18.2662 19.658 18.2702C19.3959 18.2781 19.1338 18.2503 18.8757 18.2861C18.3594 18.3536 18.0219 18.6514 17.9027 19.1637C17.7995 19.6045 17.8312 20.0374 18.0973 20.4226Z" fill="#2B3D4F"/>
<path d="M9.0071 19.7515C9.15006 19.0803 9.66633 18.6713 10.3613 18.6713C10.9332 18.6713 11.4057 18.985 11.6202 19.5013C11.8386 20.0255 11.7314 20.653 11.3462 21.0382C10.957 21.4274 10.4844 21.5147 9.96417 21.3956C9.62662 21.3201 9.35657 21.1295 9.17786 20.8237C9.15006 20.7721 9.14609 20.7483 9.21361 20.7284C9.33671 20.7006 9.45585 20.6649 9.57499 20.6252C9.6147 20.6132 9.63059 20.6212 9.65044 20.6569C9.83312 20.9429 10.1588 21.0739 10.4884 21.0064C10.8061 20.9389 11.0682 20.649 11.1158 20.3273C11.1278 20.2598 11.1119 20.236 11.0364 20.2399C10.7108 20.2439 10.3812 20.2399 10.0555 20.2399C9.7259 20.2399 9.39628 20.2399 9.0627 20.2399C9.00313 20.2399 8.98327 20.2241 8.97533 20.1645C8.97533 20.0295 8.9793 19.8905 9.0071 19.7515ZM9.63853 19.8547C9.87681 19.8468 10.1151 19.8508 10.3534 19.8508C10.5916 19.8508 10.8299 19.8468 11.0682 19.8508C11.1476 19.8508 11.1556 19.823 11.1436 19.7594C11.0722 19.3663 10.7505 19.0922 10.3613 19.0883C9.96815 19.0843 9.63456 19.3583 9.5591 19.7475C9.54322 19.819 9.54719 19.8547 9.63853 19.8547Z" fill="#2B3D4F"/>
<path d="M11.8306 18.7189C11.9497 18.7229 12.0689 18.7269 12.188 18.7189C12.2794 18.711 12.3111 18.7507 12.3389 18.8301C12.5772 19.5132 12.8155 20.2002 13.0657 20.9071C13.0855 20.8475 13.0974 20.8118 13.1094 20.78C13.3397 20.1208 13.57 19.4616 13.7964 18.7983C13.8162 18.7428 13.8361 18.7189 13.8996 18.7189C14.0426 18.7229 14.1856 18.7229 14.3246 18.7189C14.404 18.715 14.404 18.7428 14.3802 18.8063C14.3127 18.9771 14.2451 19.1518 14.1816 19.3226C13.9274 19.9858 13.6772 20.645 13.4231 21.3082C13.4072 21.3479 13.4032 21.3956 13.3357 21.3916C13.1689 21.3876 13.0061 21.3876 12.8393 21.3916C12.7956 21.3916 12.7758 21.3757 12.7599 21.336C12.4342 20.4861 12.1126 19.6363 11.7869 18.7864C11.7631 18.7348 11.7671 18.715 11.8306 18.7189Z" fill="#2B3D4F"/>
<path d="M15.4085 18.7468C15.4085 18.7031 15.4244 18.6912 15.468 18.6912C15.6587 18.6832 15.8334 18.7269 15.9922 18.8381C16.1511 18.9533 16.2702 19.1002 16.3854 19.263C16.3854 19.1042 16.3894 18.9493 16.3854 18.7904C16.3854 18.7348 16.4013 18.715 16.4569 18.715C16.584 18.719 16.715 18.719 16.8421 18.715C16.8977 18.715 16.9136 18.7309 16.9136 18.7865C16.9136 19.6284 16.9136 20.4743 16.9136 21.3162C16.9136 21.3678 16.9017 21.3837 16.8461 21.3837C16.711 21.3797 16.576 21.3797 16.441 21.3837C16.3655 21.3876 16.3417 21.3678 16.3417 21.2884C16.3457 20.8396 16.3338 20.3869 16.3497 19.9381C16.3576 19.7078 16.2543 19.5529 16.0915 19.4258C15.9128 19.2829 15.6984 19.2273 15.476 19.2034C15.4363 19.1995 15.4085 19.2034 15.4085 19.1479C15.4124 19.0208 15.4085 18.8818 15.4085 18.7468Z" fill="#2B3D4F"/>
<path d="M14.6186 20.0493C14.6186 19.6323 14.6186 19.2153 14.6186 18.8023C14.6186 18.7467 14.6265 18.7189 14.694 18.7189C14.837 18.7229 14.98 18.7229 15.1189 18.7189C15.1785 18.7189 15.1904 18.7388 15.1904 18.7944C15.1904 19.6363 15.1904 20.4782 15.1904 21.3201C15.1904 21.3797 15.1706 21.3916 15.115 21.3916C14.98 21.3876 14.8449 21.3837 14.7099 21.3916C14.6345 21.3956 14.6186 21.3717 14.6186 21.2963C14.6186 20.8793 14.6186 20.4623 14.6186 20.0493Z" fill="#2B3D4F"/>
</svg>
