<svg width="11" height="12" viewBox="0 0 11 12" fill="none" xmlns="http://www.w3.org/2000/svg">
<path d="M3.06659 2.39999C2.84793 2.39999 2.66659 2.21866 2.66659 1.99999V0.399999C2.66659 0.181333 2.84793 0 3.06659 0C3.28526 0 3.46659 0.181333 3.46659 0.399999V1.99999C3.46659 2.21866 3.28526 2.39999 3.06659 2.39999ZM7.33324 2.39999C7.11458 2.39999 6.93324 2.21866 6.93324 1.99999V0.399999C6.93324 0.181333 7.11458 0 7.33324 0C7.55191 0 7.73324 0.181333 7.73324 0.399999V1.99999C7.73324 2.21866 7.55191 2.39999 7.33324 2.39999ZM3.33326 7.06664C3.19459 7.06664 3.05593 7.00798 2.95459 6.91198C2.85859 6.81064 2.79993 6.67731 2.79993 6.53331C2.79993 6.46398 2.81593 6.39464 2.84259 6.33064C2.86926 6.26664 2.90659 6.20798 2.95459 6.15464C3.15192 5.95731 3.50926 5.95731 3.71192 6.15464C3.80792 6.25598 3.86659 6.39464 3.86659 6.53331C3.86659 6.56531 3.86126 6.60264 3.85592 6.63998C3.85059 6.67198 3.83992 6.70398 3.82392 6.73598C3.81326 6.76798 3.79726 6.79998 3.77592 6.83198L3.71192 6.91198C3.61059 7.00798 3.47192 7.06664 3.33326 7.06664ZM5.19992 7.06558C5.13058 7.06558 5.06125 7.04958 4.99725 7.02291C4.92792 6.99624 4.87459 6.95891 4.82125 6.91091C4.72525 6.80958 4.66659 6.67624 4.66659 6.53224C4.66659 6.46291 4.68259 6.39358 4.70925 6.32958C4.73592 6.26558 4.77325 6.20691 4.82125 6.15358C4.87459 6.10558 4.92792 6.06825 4.99725 6.04158C5.19458 5.96158 5.42925 6.00425 5.57858 6.15358C5.67458 6.25491 5.73325 6.39358 5.73325 6.53224C5.73325 6.56424 5.72792 6.60158 5.72258 6.63891C5.71725 6.67091 5.70658 6.70291 5.69058 6.73491C5.67992 6.76691 5.66392 6.79891 5.64258 6.83091C5.62658 6.85758 5.59992 6.88424 5.57858 6.91091C5.47725 7.00691 5.33858 7.06558 5.19992 7.06558ZM3.33326 8.93277C3.26392 8.93277 3.19459 8.91677 3.13059 8.8901C3.06467 8.86562 3.00469 8.82745 2.95459 8.7781C2.90524 8.72801 2.86707 8.66802 2.84259 8.6021C2.8152 8.53801 2.8007 8.46914 2.79993 8.39944C2.79993 8.3301 2.81593 8.26077 2.84259 8.19677C2.86926 8.12744 2.90659 8.06877 2.95459 8.02077C3.00259 7.97277 3.06126 7.93544 3.13059 7.90877C3.25859 7.85544 3.40792 7.85011 3.53592 7.90877C3.60526 7.93544 3.66392 7.97277 3.71192 8.02077C3.75992 8.06877 3.79726 8.12744 3.82392 8.19677C3.85059 8.26077 3.86659 8.3301 3.86659 8.39944C3.86659 8.46877 3.85059 8.5381 3.82392 8.6021C3.79726 8.67144 3.75992 8.7301 3.71192 8.7781C3.66392 8.8261 3.60526 8.86344 3.53592 8.8901C3.47192 8.91677 3.40259 8.93277 3.33326 8.93277ZM9.73323 4.58132H0.6666C0.447934 4.58132 0.266602 4.39998 0.266602 4.18132C0.266602 3.96265 0.447934 3.78132 0.6666 3.78132H9.73323C9.9519 3.78132 10.1332 3.96265 10.1332 4.18132C10.1332 4.39998 9.9519 4.58132 9.73323 4.58132ZM8.39991 12C7.78386 12.0036 7.18863 11.7773 6.73058 11.3653C6.53858 11.2053 6.36791 11.0026 6.22925 10.768C5.99458 10.384 5.86658 9.93063 5.86658 9.46663C5.86658 8.06931 7.00258 6.93331 8.39991 6.93331C9.07144 6.93444 9.71515 7.2017 10.19 7.67655C10.6648 8.15139 10.9321 8.7951 10.9332 9.46663C10.9332 9.93063 10.8052 10.384 10.5652 10.7733C10.1172 11.5306 9.28524 12 8.39991 12ZM8.39991 7.73331C7.44524 7.73331 6.66658 8.51197 6.66658 9.46663C6.66658 9.7813 6.75191 10.0906 6.91724 10.3573C7.00791 10.5173 7.12524 10.6506 7.25324 10.7626C7.57324 11.0506 7.97324 11.2 8.39991 11.2C9.01324 11.2 9.5679 10.8853 9.88257 10.3626C10.0479 10.0906 10.1332 9.78663 10.1332 9.46663C10.1332 9.05063 9.97857 8.6453 9.70123 8.31997C9.37057 7.94664 8.8959 7.73331 8.39991 7.73331Z" fill="#47A7DD"/>
<path d="M8.09572 10.3952C7.99438 10.3952 7.89305 10.3578 7.81305 10.2778L7.28505 9.74982C7.21066 9.67455 7.16895 9.57299 7.16895 9.46716C7.16895 9.36133 7.21066 9.25977 7.28505 9.18449C7.43972 9.02983 7.69572 9.02983 7.85038 9.18449L8.10638 9.44049L8.95971 8.65116C9.11971 8.50183 9.37571 8.51249 9.52504 8.67249C9.67438 8.83249 9.66371 9.08849 9.50371 9.23782L8.36771 10.2885C8.28772 10.3578 8.19172 10.3952 8.09572 10.3952Z" fill="#47A7DD"/>
<path d="M6.99731 11.4666H3.06666C1.12 11.4666 0 10.3466 0 8.39998V3.86666C0 1.92 1.12 0.800003 3.06666 0.800003H7.33331C9.27997 0.800003 10.4 1.92 10.4 3.86666V8.05864C10.4 8.22398 10.2986 8.37331 10.1386 8.43198C9.98396 8.49064 9.80797 8.44798 9.69597 8.31998C9.3653 7.94664 8.89064 7.73331 8.39464 7.73331C7.43997 7.73331 6.66131 8.51198 6.66131 9.46664C6.66131 9.7813 6.74664 10.0906 6.91198 10.3573C7.00264 10.5173 7.11998 10.6506 7.24797 10.7626C7.37597 10.8693 7.42397 11.0453 7.36531 11.2053C7.31731 11.36 7.16797 11.4666 6.99731 11.4666ZM3.06666 1.6C1.54133 1.6 0.799997 2.34133 0.799997 3.86666V8.39998C0.799997 9.9253 1.54133 10.6666 3.06666 10.6666H6.17064C5.97058 10.2983 5.86606 9.88576 5.86665 9.46664C5.86665 8.06931 7.00264 6.93331 8.39997 6.93331C8.8213 6.93331 9.2373 7.03998 9.59997 7.23731V3.86666C9.59997 2.34133 8.85863 1.6 7.33331 1.6H3.06666Z" fill="#47A7DD"/>
</svg>
