<svg width="21" height="21" viewBox="0 0 21 21" fill="none" xmlns="http://www.w3.org/2000/svg">
<path d="M5.8227 20.2957C3.1727 20.2957 1.0127 18.1457 1.0127 15.4857V12.6457C1.01294 12.4914 1.05039 12.3394 1.12189 12.2026C1.19338 12.0658 1.29681 11.9482 1.4234 11.8599C1.54999 11.7716 1.69601 11.7151 1.84908 11.6952C2.00214 11.6754 2.15775 11.6927 2.3027 11.7457C2.5627 11.8357 2.8227 11.8957 3.0927 11.9357C3.2127 11.9557 3.3327 11.9757 3.4527 11.9757C3.6027 11.9957 3.7627 12.0057 3.9127 12.0057C5.0227 12.0057 6.1227 11.5957 6.9927 10.8857C7.8227 11.5957 8.8927 12.0057 10.0327 12.0057C11.1727 12.0057 12.2327 11.6157 13.0627 10.8957C13.9227 11.5957 15.0027 12.0057 16.1027 12.0057C16.2727 12.0057 16.4527 11.9957 16.6127 11.9757C16.7327 11.9657 16.8327 11.9557 16.9427 11.9357C17.2427 11.8957 17.5127 11.8157 17.7827 11.7257C17.9265 11.6767 18.0799 11.6624 18.2303 11.6842C18.3807 11.706 18.5238 11.7632 18.6478 11.851C18.7718 11.9389 18.8731 12.0549 18.9435 12.1896C19.0139 12.3243 19.0513 12.4738 19.0527 12.6257V15.4857C19.0527 18.1357 16.9027 20.2957 14.2427 20.2957H5.8227Z" fill="#AAAAAA"/>
<path d="M20.0023 6.74L19.7223 4.08C19.3223 1.18 18.0023 0 15.1923 0H4.84231C2.02231 0 0.712313 1.18 0.302313 4.11L0.0423132 6.75C-0.0576868 7.78 0.222313 8.78 0.832313 9.56C1.56231 10.51 2.68231 11.05 3.93231 11.05C5.14231 11.05 6.30231 10.44 7.04231 9.47C7.69231 10.44 8.80231 11.05 10.0423 11.05C11.2823 11.05 12.3723 10.47 13.0323 9.51C13.7723 10.46 14.9223 11.05 16.1123 11.05C17.3923 11.05 18.5423 10.48 19.2623 9.48C19.8423 8.71 20.1023 7.74 20.0023 6.74ZM11.5223 5.88H8.52231C8.3234 5.88 8.13264 5.80098 7.99198 5.66033C7.85133 5.51968 7.77231 5.32891 7.77231 5.13C7.77231 4.93109 7.85133 4.74032 7.99198 4.59967C8.13264 4.45902 8.3234 4.38 8.52231 4.38H11.5223C11.7212 4.38 11.912 4.45902 12.0526 4.59967C12.1933 4.74032 12.2723 4.93109 12.2723 5.13C12.2723 5.32891 12.1933 5.51968 12.0526 5.66033C11.912 5.80098 11.7212 5.88 11.5223 5.88Z" fill="#AAAAAA"/>
</svg>
