<svg width="15" height="15" viewBox="0 0 15 15" fill="none" xmlns="http://www.w3.org/2000/svg">
<path fill-rule="evenodd" clip-rule="evenodd" d="M5.95564 4.089C5.81308 3.70988 5.64841 3.73694 5.53879 3.73279C5.42907 3.72873 5.33301 3.73074 5.18479 3.73315C5.05936 3.7352 4.85391 3.76751 4.67479 3.94788C4.49542 4.12794 3.99289 4.561 3.95813 5.47885C3.92361 6.39652 4.56349 7.30841 4.65285 7.43604C4.74215 7.56415 5.87475 9.55332 7.75729 10.3714C9.64002 11.1893 9.64986 10.94 9.99523 10.9217C10.3409 10.9036 11.1245 10.5117 11.2977 10.0822C11.4708 9.65273 11.4848 9.27934 11.4407 9.19968C11.3966 9.1203 11.2732 9.06873 11.0888 8.96866C10.9041 8.86838 9.99741 8.38279 9.82739 8.31408C9.65726 8.24564 9.53318 8.21002 9.40076 8.39206C9.26827 8.5736 8.89213 8.98031 8.77812 9.10081C8.66361 9.22135 8.55342 9.23253 8.36877 9.13195C8.18462 9.0319 7.58619 8.81226 6.89227 8.15035C6.35234 7.6354 5.99793 7.01052 5.89521 6.81991C5.79245 6.62916 5.89454 6.53183 5.99231 6.4426C6.07996 6.362 6.18841 6.23163 6.28668 6.12622C6.38442 6.02082 6.4189 5.94442 6.48627 5.82211C6.55347 5.70006 6.52645 5.59001 6.48285 5.49495C6.43923 5.39993 6.09814 4.46812 5.95564 4.089Z" fill="#00B2FF"/>
<path d="M7.636 1.07143C9.31845 1.07143 10.8998 1.72105 12.0885 2.90062C13.2751 4.07799 13.9286 5.64285 13.9286 7.30687C13.9286 8.97074 13.2751 10.5356 12.0885 11.713C10.8997 12.8926 9.31838 13.5424 7.636 13.5424C6.57107 13.5424 5.51859 13.2737 4.59228 12.7655L4.18992 12.5448L3.75254 12.6837L1.695 13.3373L2.34372 11.4239L2.50436 10.9501L2.24417 10.5227C1.65512 9.55517 1.34377 8.44312 1.34377 7.30687C1.34377 5.64285 1.99728 4.07799 3.18385 2.90059C4.37263 1.72105 5.95376 1.07143 7.636 1.07143ZM7.636 0C3.56936 0 0.272344 3.27124 0.272344 7.30687C0.272344 8.68731 0.65846 9.97845 1.32901 11.0799L0 15L4.07692 13.7048C5.13188 14.2836 6.34517 14.6137 7.636 14.6137C11.7032 14.6137 15 11.342 15 7.30687C15 3.27124 11.7032 0 7.636 0Z" fill="#00B2FF"/>
</svg>
