<svg width="27" height="27" viewBox="0 0 27 27" fill="none" xmlns="http://www.w3.org/2000/svg">
<path d="M13.1569 26.3139C20.4233 26.3139 26.3139 20.4233 26.3139 13.1569C26.3139 5.89056 20.4233 0 13.1569 0C5.89056 0 0 5.89056 0 13.1569C0 20.4233 5.89056 26.3139 13.1569 26.3139Z" fill="white"/>
<path d="M13.1569 0.751825C10.7035 0.751903 8.30517 1.47949 6.26523 2.84259C4.22529 4.20568 2.63536 6.14307 1.69648 8.40976C0.757598 10.6764 0.511936 13.1706 0.990558 15.5769C1.46918 17.9832 2.65059 20.1936 4.38539 21.9285C5.53448 23.0931 6.90259 24.0189 8.41094 24.6525C9.9193 25.2862 11.5381 25.6153 13.1741 25.6207C14.8102 25.6262 16.4312 25.308 17.9437 24.6845C19.4563 24.0609 20.8306 23.1443 21.9874 21.9874C23.1443 20.8306 24.0609 19.4563 24.6845 17.9437C25.308 16.4312 25.6262 14.8102 25.6207 13.1741C25.6153 11.5381 25.2862 9.9193 24.6525 8.41094C24.0189 6.90259 23.0931 5.53448 21.9285 4.38539C20.7793 3.22985 19.4123 2.31371 17.9067 1.69001C16.401 1.06631 14.7866 0.747427 13.1569 0.751825ZM13.1569 0C15.7591 0 18.3029 0.771641 20.4665 2.21734C22.6302 3.66305 24.3165 5.71788 25.3124 8.12199C26.3082 10.5261 26.5687 13.1715 26.0611 15.7237C25.5534 18.2759 24.3003 20.6203 22.4603 22.4603C20.6203 24.3003 18.2759 25.5534 15.7237 26.0611C13.1715 26.5687 10.5261 26.3082 8.12199 25.3124C5.71788 24.3165 3.66305 22.6302 2.21734 20.4665C0.771641 18.3029 0 15.7591 0 13.1569C0 9.6675 1.38617 6.32098 3.85358 3.85358C6.32098 1.38617 9.6675 0 13.1569 0Z" fill="white"/>
<path d="M13.3024 6.01167C14.0563 6 14.8045 6.00583 15.5527 6C15.5987 6.89249 15.9152 7.80248 16.5598 8.43247C17.2044 9.07996 18.1137 9.37746 19 9.47662V11.8274C18.1713 11.7983 17.3368 11.6233 16.5828 11.2616C16.2548 11.1099 15.9498 10.9174 15.6505 10.7191C15.6447 12.4224 15.6563 14.1257 15.639 15.8232C15.593 16.6399 15.3282 17.4507 14.8621 18.1215C14.1081 19.2415 12.8017 19.9707 11.4608 19.994C10.6378 20.0407 9.81479 19.8132 9.11266 19.3932C7.95012 18.699 7.13289 17.4274 7.01203 16.0624C7.00052 15.7707 6.99476 15.479 7.00627 15.1932C7.10987 14.0849 7.65085 13.0232 8.4911 12.2999C9.44646 11.4599 10.7817 11.0574 12.0305 11.2966C12.042 12.1599 12.0075 13.0232 12.0075 13.8866C11.4377 13.6999 10.7701 13.7524 10.2694 14.1024C9.90687 14.3416 9.63062 14.7091 9.48674 15.1232C9.36588 15.4207 9.40042 15.7474 9.40617 16.0624C9.54429 17.019 10.4536 17.824 11.4205 17.7365C12.065 17.7307 12.6808 17.3515 13.0146 16.7974C13.124 16.6049 13.2449 16.4065 13.2506 16.179C13.3082 15.1349 13.2851 14.0966 13.2909 13.0524C13.2966 10.7016 13.2851 8.35664 13.3024 6.01167Z" fill="black"/>
</svg>
