<svg width="28" height="28" viewBox="0 0 28 28" fill="none" xmlns="http://www.w3.org/2000/svg">
<path d="M24.8101 28C24.018 28 23.3843 27.3547 23.3936 26.5598C23.3936 26.2886 23.4681 26.0267 23.6172 25.7929L18.4917 20.64C18.0444 20.2191 17.3548 20.2191 16.9075 20.64C16.7211 20.8176 16.4322 20.8176 16.2458 20.64L14.0092 18.3955C13.944 18.4516 11.8845 20.5277 11.7726 20.64C11.5863 20.827 11.2974 20.827 11.111 20.64C10.6916 20.2004 9.99269 20.1817 9.54537 20.6026C9.53605 20.6119 9.52674 20.6213 9.5081 20.64L4.38258 25.7836C4.80194 26.4382 4.61556 27.308 3.96322 27.7288C3.41339 28.0842 2.69582 28.0094 2.22987 27.5605L0.393999 25.7181C-0.14651 25.157 -0.127871 24.2685 0.431276 23.7261C0.897232 23.2679 1.6148 23.2024 2.16463 23.5484C2.64923 23.0715 6.96398 18.7415 7.29947 18.4048C7.72815 17.9653 7.72815 17.2545 7.29947 16.815C7.11308 16.6279 7.11308 16.338 7.29947 16.151C7.78406 15.674 9.0701 14.3741 9.53605 13.9065L2.95676 7.31333C2.84493 7.20111 2.79833 7.03277 2.83561 6.88314C3.19905 4.74152 4.8765 3.06751 7.01057 2.70278C7.169 2.66538 7.32742 2.72149 7.43925 2.83371L14.0186 9.43624C16.3949 7.05147 18.7806 4.65736 20.5885 2.83371C20.7004 2.72149 20.8588 2.67473 21.0172 2.70278C23.1513 3.05816 24.8194 4.74152 25.1829 6.88314C25.2201 7.04212 25.1735 7.20111 25.0617 7.31333C23.2352 9.15568 20.8588 11.5404 18.4824 13.9159L20.7097 16.1603C20.8867 16.3474 20.8867 16.6373 20.7097 16.8243C20.2717 17.2545 20.2624 17.9653 20.691 18.4142C20.691 18.4142 20.7004 18.4235 20.7097 18.4329L21.39 19.1156C21.39 19.1156 25.8166 23.5484 25.8259 23.5671C26.4782 23.1463 27.3449 23.3333 27.7736 23.988C28.1277 24.5398 28.0625 25.2599 27.6058 25.7368L25.77 27.5792C25.5183 27.841 25.1735 28 24.8101 28ZM24.5398 26.167L24.456 26.2512C24.2789 26.4382 24.2882 26.7375 24.4839 26.9152C24.661 27.0835 24.9406 27.0835 25.1269 26.9152L26.9628 25.0728C27.1399 24.8858 27.1306 24.5865 26.9349 24.4088C26.7578 24.2405 26.4782 24.2405 26.2918 24.4088L26.152 24.5491L24.5958 26.1202C24.5958 26.1202 24.5585 26.1577 24.5398 26.167ZM1.05566 25.0635L2.89152 26.9058C3.07791 27.0835 3.37612 27.0742 3.55318 26.8871C3.73024 26.7001 3.72092 26.4195 3.55318 26.2325L1.8571 24.5304C1.8571 24.5304 1.72663 24.3995 1.71731 24.3901C1.53093 24.2124 1.23272 24.2218 1.05566 24.4088C0.887913 24.5959 0.887913 24.8764 1.05566 25.0635ZM20.1785 21.0234L24.2603 25.1196L25.1549 24.2124L21.0731 20.1162L20.1692 21.014L20.1785 21.0234ZM2.84493 24.2031L3.73956 25.1102L7.82134 21.014L6.91738 20.1069L2.83561 24.2031H2.84493ZM17.6903 19.3868C18.4172 19.4148 19.0882 19.7796 19.5168 20.3594L20.4208 19.4523L20.048 19.0782C19.3677 18.3955 19.2466 17.3387 19.7591 16.5251L17.8208 14.5705C16.9634 15.4215 15.491 16.8992 14.6616 17.7315L16.6093 19.6861C16.9354 19.4803 17.3082 19.3774 17.6903 19.3774V19.3868ZM7.58836 19.4523L8.49231 20.3594C9.13533 19.4055 10.4121 19.1156 11.4092 19.6954C15.4537 15.646 20.5885 10.5024 24.223 6.83638C23.8875 5.24653 22.6574 4.01207 21.0731 3.67539C17.3455 7.43491 12.2479 12.5318 8.25933 16.5344C8.8278 17.5351 8.53891 18.7976 7.59768 19.4523H7.58836ZM3.79548 6.83638L10.1977 13.2612C11.2042 12.2605 12.3504 11.1009 13.3569 10.1002L6.95466 3.68475C5.37041 4.02142 4.14029 5.25589 3.79548 6.84573V6.83638ZM13.9999 5.9947C12.3504 5.98534 11.0271 4.6293 11.0364 2.97399C11.0458 1.31868 12.397 -0.00930293 14.0465 4.90923e-05C14.3168 4.90923e-05 14.587 0.0374572 14.8386 0.112273C16.4229 0.570522 17.3455 2.22583 16.8888 3.81567C16.5161 5.1156 15.3325 6.00405 13.9906 5.9947H13.9999ZM13.7576 5.02208C13.916 5.04079 14.0838 5.04079 14.2422 5.02208V0.972659C14.0838 0.953955 13.916 0.953955 13.7576 0.972659V5.03144V5.02208ZM15.1741 1.28128V4.70412C16.1154 4.01207 16.3204 2.68408 15.6308 1.73952C15.5003 1.56184 15.3512 1.4122 15.1741 1.28128ZM11.9404 2.9927C11.9217 3.67539 12.2572 4.32068 12.8257 4.70412V1.29063C12.2572 1.66471 11.9217 2.31935 11.9404 3.00205V2.9927Z" fill="white"/>
</svg>
