<svg width="27" height="27" viewBox="0 0 27 27" fill="none" xmlns="http://www.w3.org/2000/svg">
<path d="M13.1569 26.3139C20.4233 26.3139 26.3139 20.4233 26.3139 13.1569C26.3139 5.89056 20.4233 0 13.1569 0C5.89056 0 0 5.89056 0 13.1569C0 20.4233 5.89056 26.3139 13.1569 26.3139Z" fill="#1D9BF0"/>
<path d="M13.1569 0.751825C10.7035 0.751903 8.30517 1.47949 6.26523 2.84259C4.22529 4.20568 2.63536 6.14307 1.69648 8.40976C0.757598 10.6764 0.511936 13.1706 0.990558 15.5769C1.46918 17.9832 2.65059 20.1936 4.38539 21.9285C5.53448 23.0931 6.90259 24.0189 8.41094 24.6525C9.9193 25.2862 11.5381 25.6153 13.1741 25.6207C14.8102 25.6262 16.4312 25.308 17.9437 24.6845C19.4563 24.0609 20.8306 23.1443 21.9874 21.9874C23.1443 20.8306 24.0609 19.4563 24.6845 17.9437C25.308 16.4312 25.6262 14.8102 25.6207 13.1741C25.6153 11.5381 25.2862 9.9193 24.6525 8.41094C24.0189 6.90259 23.0931 5.53448 21.9285 4.38539C20.7793 3.22985 19.4123 2.31371 17.9067 1.69001C16.401 1.06631 14.7866 0.747427 13.1569 0.751825ZM13.1569 0C15.7591 0 18.3029 0.771641 20.4665 2.21734C22.6302 3.66305 24.3165 5.71788 25.3124 8.12199C26.3082 10.5261 26.5687 13.1715 26.0611 15.7237C25.5534 18.2759 24.3003 20.6203 22.4603 22.4603C20.6203 24.3003 18.2759 25.5534 15.7237 26.0611C13.1715 26.5687 10.5261 26.3082 8.12199 25.3124C5.71788 24.3165 3.66305 22.6302 2.21734 20.4665C0.771641 18.3029 0 15.7591 0 13.1569C0 9.6675 1.38617 6.32098 3.85358 3.85358C6.32098 1.38617 9.6675 0 13.1569 0Z" fill="white"/>
<path d="M18.9216 8.66276C18.4327 8.94931 17.899 9.15109 17.3428 9.25966C17.1072 9.01352 16.8244 8.81745 16.5113 8.68322C16.1981 8.549 15.8611 8.47942 15.5204 8.47856C14.8651 8.47454 14.2348 8.72994 13.7671 9.189C13.2995 9.64806 13.0324 10.2735 13.0243 10.9288C13.021 11.1195 13.0415 11.3099 13.0852 11.4956C12.0996 11.4491 11.1344 11.1977 10.2512 10.7576C9.36803 10.3175 8.58617 9.69828 7.95549 8.93937C7.73376 9.31508 7.61741 9.74364 7.61868 10.1799C7.61834 10.5843 7.71897 10.9824 7.91144 11.3381C8.10391 11.6938 8.38213 11.9957 8.72086 12.2166C8.32453 12.2041 7.93662 12.0993 7.58789 11.9106V11.9414C7.58907 12.2452 7.64616 12.5462 7.7563 12.8294C7.91196 13.2124 8.15971 13.5511 8.4776 13.8155C8.7955 14.0799 9.17372 14.2618 9.57873 14.345C9.36462 14.4065 9.14286 14.4374 8.9201 14.4367C8.76086 14.4366 8.60202 14.4213 8.44571 14.3909C8.60853 14.8819 8.92071 15.3096 9.3386 15.6144C9.75648 15.9192 10.2592 16.0857 10.7764 16.0908C9.89035 16.7749 8.80272 17.1464 7.68333 17.1471C7.4841 17.1471 7.28491 17.1321 7.08643 17.1163C8.2293 17.8333 9.55046 18.2152 10.8997 18.2184C12.5126 18.25 14.0861 17.7183 15.3493 16.715C16.6126 15.7116 17.4866 14.2993 17.8209 12.7211C17.9299 12.2333 17.9863 11.7353 17.9894 11.2355V10.9137C18.4735 10.5651 18.8933 10.1349 19.2299 9.64237C18.7766 9.8393 18.2968 9.96827 17.8059 10.0251C18.337 9.72874 18.7358 9.24182 18.9216 8.66276Z" fill="white"/>
</svg>
