<svg width="24" height="24" viewBox="0 0 24 24" fill="none" xmlns="http://www.w3.org/2000/svg">
<path d="M12.1602 10.8702C12.0602 10.8602 11.9402 10.8602 11.8302 10.8702C10.6824 10.8313 9.59486 10.3471 8.79784 9.52019C8.00083 8.69332 7.55696 7.58869 7.56021 6.44023C7.56021 3.99023 9.54022 2.00023 12.0002 2.00023C12.5826 1.98973 13.1614 2.09404 13.7035 2.30721C14.2456 2.52039 14.7404 2.83825 15.1597 3.24265C15.5789 3.64705 15.9144 4.13006 16.147 4.66412C16.3796 5.19818 16.5047 5.77282 16.5152 6.35523C16.5257 6.93765 16.4214 7.51642 16.2082 8.05852C15.9951 8.60062 15.6772 9.09543 15.2728 9.51468C14.8684 9.93394 14.3854 10.2694 13.8513 10.502C13.3173 10.7346 12.7426 10.8597 12.1602 10.8702ZM7.16021 14.5602C4.74021 16.1802 4.74021 18.8202 7.16021 20.4302C9.91021 22.2702 14.4202 22.2702 17.1702 20.4302C19.5902 18.8102 19.5902 16.1702 17.1702 14.5602C14.4302 12.7302 9.92021 12.7302 7.16021 14.5602Z" stroke="#AAAAAA" stroke-width="1.5" stroke-linecap="round" stroke-linejoin="round"/>
</svg>
