<svg width="16" height="22" viewBox="0 0 16 22" fill="none" xmlns="http://www.w3.org/2000/svg">
<path d="M8.16021 9.87023C8.06021 9.86023 7.94021 9.86023 7.83021 9.87023C6.68242 9.83126 5.59486 9.34707 4.79784 8.52019C4.00083 7.69332 3.55696 6.58869 3.56021 5.44023C3.56021 2.99023 5.54022 1.00023 8.00022 1.00023C8.58263 0.989727 9.16141 1.09404 9.70351 1.30721C10.2456 1.52039 10.7404 1.83825 11.1597 2.24265C11.5789 2.64705 11.9144 3.13006 12.147 3.66412C12.3796 4.19818 12.5047 4.77282 12.5152 5.35523C12.5257 5.93765 12.4214 6.51642 12.2082 7.05852C11.9951 7.60062 11.6772 8.09543 11.2728 8.51468C10.8684 8.93394 10.3854 9.26944 9.85133 9.50202C9.31727 9.73461 8.74263 9.85973 8.16021 9.87023ZM3.16021 13.5602C0.740215 15.1802 0.740215 17.8202 3.16021 19.4302C5.91021 21.2702 10.4202 21.2702 13.1702 19.4302C15.5902 17.8102 15.5902 15.1702 13.1702 13.5602C10.4302 11.7302 5.92021 11.7302 3.16021 13.5602Z" stroke="#AAAAAA" stroke-width="1.5" stroke-linecap="round" stroke-linejoin="round"/>
</svg>
