<svg width="44" height="26" viewBox="0 0 44 26" fill="none" xmlns="http://www.w3.org/2000/svg">
<rect y="0.5" width="43.5897" height="25" rx="5.84184" fill="#D9D9D9"/>
<path d="M27.1763 7.55127C24.4767 7.55127 22.5803 8.98651 22.5636 11.0388C22.5465 12.5591 23.9197 13.4068 24.9526 13.9121C26.0182 14.4287 26.3741 14.7606 26.3706 15.2228C26.36 15.9311 25.5179 16.2539 24.7354 16.2539C23.6445 16.2539 23.063 16.0946 22.169 15.7014L21.8145 15.5329L21.4327 17.8983C22.071 18.1926 23.2497 18.4476 24.475 18.461C27.3398 18.461 29.2038 17.0422 29.226 14.8515C29.2372 13.6457 28.5083 12.7331 26.9323 11.9796C25.9808 11.4897 25.3925 11.1649 25.4013 10.6685C25.4021 10.2299 25.895 9.75978 26.965 9.75978C27.8587 9.74474 28.5014 9.94986 29.0074 10.1659L29.2508 10.2874L29.622 7.99607C29.0828 7.78306 28.2318 7.55133 27.1762 7.55133L27.1763 7.55127ZM18.7014 7.73561L16.9939 18.3047H19.722L21.4304 7.73549H18.7017L18.7014 7.73561ZM14.7046 7.74587L12.0332 14.949L11.7484 13.4854C11.0832 11.6906 9.643 9.80797 7.96582 9.04498L10.4095 18.2946L13.2983 18.2933L17.5941 7.74594L14.7046 7.74587ZM34.5133 7.74655C33.8596 7.74655 33.3698 7.93286 33.0813 8.62379L29.0301 18.3082H31.8964C31.8964 18.3082 32.365 17.0046 32.471 16.7192C32.7838 16.7192 35.5676 16.7253 35.9649 16.7253C36.0493 17.0938 36.2971 18.3081 36.2971 18.3081H38.8315L36.6217 7.74655L34.5133 7.74655ZM34.7061 10.596L34.8879 11.5071C34.8879 11.5071 35.4124 14.0289 35.5218 14.5571H33.2562C33.4829 13.9506 34.3434 11.6028 34.3434 11.6028C34.3266 11.6315 34.5673 10.9915 34.7061 10.596Z" fill="#0023A0"/>
<path d="M9.5556 7.74035H5.15406L5.12842 7.92222C8.55054 8.79743 10.8082 10.9467 11.7483 13.4882L10.7918 8.63058C10.6273 7.96253 10.1484 7.76394 9.5556 7.74035Z" fill="#FFAB00"/>
</svg>
