<svg width="30" height="30" viewBox="0 0 30 30" fill="none" xmlns="http://www.w3.org/2000/svg">
<path d="M18.8203 20.889C19.5895 19.7378 20 18.3845 20 17C20 15.1435 19.2625 13.363 17.9497 12.0503C16.637 10.7375 14.8565 10 13 10C13 10 10.2622 10.4105 9.11101 11.1797C7.95987 11.9489 7.06266 13.0421 6.53285 14.3212C6.00303 15.6003 5.86441 17.0078 6.13451 18.3656C6.4046 19.7235 7.07129 20.9708 8.05026 21.9497C9.02922 22.9287 10.2765 23.5954 11.6344 23.8655C12.9922 24.1356 14.3997 23.997 15.6788 23.4672C16.9579 22.9373 18.0511 22.0401 18.8203 20.889Z" fill="#FF0000"/>
<path d="M26.9046 20.889C27.6188 19.7378 28 18.3845 28 17C28 15.1435 27.3152 13.363 26.0962 12.0503C24.8772 10.7375 23.2239 10 21.5 10C21.5 10 18.9577 10.4105 17.8888 11.1797C16.8199 11.9489 15.9868 13.0421 15.4948 14.3212C15.0028 15.6003 14.8741 17.0078 15.1249 18.3656C15.3757 19.7235 15.9948 20.9708 16.9038 21.9497C17.8129 22.9287 18.971 23.5954 20.2319 23.8655C21.4928 24.1356 22.7997 23.997 23.9874 23.4672C25.1752 22.9373 26.1903 22.0401 26.9046 20.889Z" fill="#FFB800"/>
</svg>
