<svg width="34" height="11" viewBox="0 0 34 11" fill="none" xmlns="http://www.w3.org/2000/svg">
<path d="M22.1763 0.0512695C19.4767 0.0512695 17.5803 1.48651 17.5636 3.53875C17.5465 5.0591 18.9197 5.90683 19.9526 6.41213C21.0182 6.92869 21.3741 7.26065 21.3706 7.72279C21.36 8.43115 20.5179 8.75387 19.7354 8.75387C18.6445 8.75387 18.063 8.59457 17.169 8.20142L16.8145 8.03294L16.4327 10.3983C17.071 10.6926 18.2497 10.9476 19.475 10.961C22.3398 10.961 24.2038 9.54221 24.226 7.35155C24.2372 6.14572 23.5083 5.23311 21.9323 4.47962C20.9808 3.98972 20.3925 3.66487 20.4013 3.16847C20.4021 2.72986 20.895 2.25978 21.965 2.25978C22.8587 2.24474 23.5014 2.44986 24.0074 2.66592L24.2508 2.78736L24.622 0.49607C24.0828 0.283058 23.2318 0.0513297 22.1762 0.0513297L22.1763 0.0512695ZM13.7014 0.23561L11.9939 10.8047H14.722L16.4304 0.23549H13.7017L13.7014 0.23561ZM9.70463 0.245865L7.03323 7.44905L6.74844 5.9854C6.08318 4.19062 4.643 2.30797 2.96582 1.54498L5.40949 10.7946L8.29827 10.7933L12.5941 0.245945L9.70463 0.245865ZM29.5133 0.246549C28.8596 0.246549 28.3698 0.432863 28.0813 1.12379L24.0301 10.8082H26.8964C26.8964 10.8082 27.365 9.50463 27.471 9.21924C27.7838 9.21924 30.5676 9.22525 30.9649 9.22525C31.0493 9.59379 31.2971 10.8081 31.2971 10.8081H33.8315L31.6217 0.246555L29.5133 0.246549ZM29.7061 3.09597L29.8879 4.00712C29.8879 4.00712 30.4124 6.52891 30.5218 7.05707H28.2562C28.4829 6.4506 29.3434 4.10281 29.3434 4.10281C29.3266 4.13153 29.5673 3.49152 29.7061 3.09597Z" fill="#0023A0"/>
<path d="M4.5556 0.240258H0.154058L0.128418 0.422131C3.55054 1.29734 5.80825 3.44657 6.74831 5.98809L5.79176 1.13048C5.62734 0.462442 5.1484 0.26385 4.5556 0.240258Z" fill="#FFAB00"/>
</svg>
