<svg width="29" height="28" viewBox="0 0 29 28" fill="none" xmlns="http://www.w3.org/2000/svg">
<path d="M11.0044 9.00516C11.0163 9.37449 10.9766 9.83515 11.0242 10.2879C11.1434 11.4753 11.6993 12.4125 12.6683 13.0995C13.0178 13.3497 13.403 13.5245 13.82 13.6357C13.8835 13.6515 13.8994 13.6793 13.8994 13.7429C13.8955 14.4021 13.8994 15.0574 13.8994 15.7166C13.8994 16.2567 14.3085 16.6816 14.8327 16.6816C15.3807 16.6816 15.8017 16.2686 15.8056 15.7206C15.8056 15.0653 15.8096 14.41 15.8056 13.7548C15.8056 13.6754 15.8295 13.6515 15.9009 13.6277C17.41 13.1472 18.3234 12.1305 18.6451 10.5778C18.6888 10.3673 18.7007 10.1529 18.7007 9.9384C18.7007 9.21563 18.7007 8.48889 18.7007 7.76612C18.7007 7.30546 18.4227 6.93613 18.0017 6.81699C17.3783 6.64623 16.7905 7.10292 16.7905 7.77009C16.7865 8.49684 16.7905 9.22358 16.7905 9.95429C16.7905 10.9511 15.9923 11.8009 14.9955 11.8645C13.8518 11.936 12.9185 11.0583 12.9185 9.90663C12.9185 9.18386 12.9185 8.46507 12.9185 7.74229C12.9185 7.21015 12.4936 6.78125 11.9654 6.78125C11.4372 6.78125 11.0163 7.21015 11.0163 7.74627C11.0044 8.13942 11.0044 8.52861 11.0044 9.00516Z" fill="#2B3D4F"/>
<path d="M13.8838 0.478939C13.8838 0.193008 13.6415 -0.0254117 13.3556 0.00238712C12.2397 0.121525 11.1516 0.371715 10.0952 0.748985C8.7132 1.24539 7.43445 1.94434 6.2669 2.84184C4.65457 4.08088 3.37582 5.60187 2.41875 7.39291C1.72377 8.69549 1.25119 10.0775 0.98909 11.531C0.941435 11.7891 0.913638 12.0472 0.873925 12.3054C0.838183 12.5516 1.02086 12.8018 1.25914 12.8335C1.5411 12.8733 1.77937 12.7025 1.81511 12.4364C1.8866 11.8526 1.99382 11.2768 2.14473 10.7089C2.6054 8.95362 3.39568 7.36114 4.51955 5.93943C6.07628 3.96571 8.03412 2.53605 10.397 1.66238C11.2747 1.33673 12.1841 1.12228 13.1094 0.991232C13.2285 0.975347 13.3516 0.963433 13.4747 0.947548C13.713 0.919749 13.8838 0.721186 13.8838 0.478939Z" fill="#47A7DD"/>
<path d="M13.3912 27.9999C13.6414 28.0078 13.8558 27.8291 13.8797 27.5908C13.9075 27.3247 13.7486 27.0944 13.4865 27.0626C13.0497 27.0031 12.6089 26.9435 12.176 26.8522C10.4366 26.4868 8.83616 25.7918 7.37871 24.7752C5.52413 23.4766 4.08653 21.8126 3.07386 19.7873C2.47023 18.576 2.06516 17.3013 1.87057 15.9629C1.85071 15.8319 1.83483 15.7008 1.81497 15.5698C1.77923 15.3156 1.54492 15.133 1.29473 15.1608C1.03263 15.1925 0.84598 15.4229 0.873778 15.681C1.04851 17.1901 1.46947 18.6316 2.11678 20.0057C2.85147 21.5585 3.83237 22.9365 5.07141 24.1279C6.70757 25.7005 8.61377 26.8124 10.7821 27.4756C11.6002 27.7258 12.4381 27.8926 13.2919 27.9919C13.3237 27.9959 13.3555 27.9959 13.3912 27.9999Z" fill="#2B3D4F"/>
<path d="M28.8237 12.3331C28.7919 12.0273 28.7403 11.7057 28.6807 11.384C28.4385 10.0933 28.0215 8.85828 27.4337 7.68279C26.8341 6.49141 26.0835 5.40725 25.178 4.42635C24.0224 3.17937 22.6841 2.17464 21.1631 1.41216C19.8645 0.76087 18.4944 0.328002 17.0608 0.0976683C16.9655 0.0817833 16.8702 0.0698695 16.7749 0.0579557C16.4849 0.018243 16.2467 0.189007 16.207 0.466996C16.1712 0.733071 16.3579 0.967375 16.6438 1.00312C17.1759 1.0746 17.7041 1.18182 18.2244 1.31685C20.0432 1.79737 21.6833 2.63134 23.1368 3.81874C25.1383 5.45888 26.5362 7.51202 27.3384 9.97023C27.5965 10.7645 27.7753 11.5826 27.8706 12.4126C27.9023 12.6707 28.1128 12.8573 28.363 12.8415C28.637 12.8256 28.8276 12.623 28.8237 12.3331Z" fill="#F2B917"/>
<path d="M28.8237 15.657C28.8237 15.387 28.6291 15.1765 28.375 15.1606C28.1208 15.1447 27.9024 15.3274 27.8746 15.5856C27.6959 17.0827 27.271 18.5044 26.6038 19.8547C26.0875 20.8951 25.4442 21.8482 24.6738 22.714C23.534 24.0007 22.1917 25.0253 20.6469 25.7838C19.4913 26.3517 18.276 26.7408 17.0013 26.9513C16.8782 26.9712 16.7551 26.995 16.628 27.0069C16.3619 27.0387 16.1713 27.273 16.1991 27.5311C16.2269 27.7972 16.4691 27.9878 16.7392 27.9521C18.2363 27.7456 19.666 27.3206 21.0242 26.6574C22.3387 26.0141 23.5261 25.192 24.5784 24.1794C26.6276 22.2057 27.962 19.8348 28.5855 17.0629C28.6847 16.6141 28.7602 16.1614 28.8198 15.7087C28.8237 15.6848 28.8237 15.661 28.8237 15.657Z" fill="#3F78B9"/>
<path d="M15.1865 17.9645C15.1865 17.8811 15.1865 17.7977 15.1865 17.7183C15.1865 17.6746 15.1745 17.6587 15.1309 17.6587C14.9799 17.6587 14.8251 17.6587 14.6742 17.6587C14.6305 17.6587 14.6146 17.6746 14.6186 17.7183C14.6186 17.8851 14.6225 18.0558 14.6186 18.2226C14.6186 18.2742 14.6424 18.2822 14.6861 18.2822C14.833 18.2822 14.976 18.2782 15.1229 18.2822C15.1745 18.2822 15.1944 18.2663 15.1904 18.2147C15.1865 18.1313 15.1865 18.0479 15.1865 17.9645Z" fill="#2B3D4F"/>
<path d="M18.832 17.7778C19.2927 17.7579 19.7573 17.7738 20.2219 17.7659C20.3093 17.7659 20.3252 17.7937 20.3212 17.8731C20.3173 18.441 20.3212 19.0089 20.3212 19.5807C20.3212 20.1526 20.3212 20.7245 20.3212 21.2963C20.3212 21.3678 20.3093 21.3956 20.2299 21.3916C20.1187 21.3837 20.0035 21.3916 19.8923 21.3877C19.5031 21.3797 19.11 21.4194 18.7248 21.3678C18.1609 21.2924 17.732 21.0144 17.4699 20.4981C17.2634 20.0891 17.2356 19.6562 17.2951 19.2114C17.4023 18.4052 18.0219 17.8135 18.832 17.7778ZM18.0973 20.4226C18.3237 20.7523 18.6573 20.8793 19.0464 20.8793C19.249 20.8793 19.4515 20.8754 19.6501 20.8793C19.7216 20.8793 19.7454 20.8635 19.7454 20.788C19.7414 20.3829 19.7454 19.9739 19.7454 19.5688C19.7454 19.1638 19.7454 18.7627 19.7454 18.3576C19.7454 18.2901 19.7335 18.2662 19.658 18.2702C19.3959 18.2782 19.1338 18.2504 18.8757 18.2861C18.3594 18.3536 18.0219 18.6515 17.9027 19.1638C17.7995 19.6046 17.8312 20.0374 18.0973 20.4226Z" fill="#2B3D4F"/>
<path d="M9.0071 19.7516C9.15006 19.0804 9.66633 18.6714 10.3613 18.6714C10.9332 18.6714 11.4057 18.9851 11.6202 19.5014C11.8386 20.0256 11.7314 20.653 11.3462 21.0383C10.957 21.4274 10.4844 21.5148 9.96417 21.3957C9.62662 21.3202 9.35657 21.1296 9.17786 20.8238C9.15006 20.7722 9.14609 20.7484 9.21361 20.7285C9.33671 20.7007 9.45585 20.665 9.57499 20.6252C9.6147 20.6133 9.63059 20.6213 9.65044 20.657C9.83312 20.9429 10.1588 21.074 10.4884 21.0065C10.8061 20.939 11.0682 20.6491 11.1158 20.3274C11.1278 20.2599 11.1119 20.2361 11.0364 20.24C10.7108 20.244 10.3812 20.24 10.0555 20.24C9.7259 20.24 9.39628 20.24 9.0627 20.24C9.00313 20.24 8.98327 20.2242 8.97533 20.1646C8.97533 20.0296 8.9793 19.8906 9.0071 19.7516ZM9.63853 19.8548C9.87681 19.8469 10.1151 19.8509 10.3534 19.8509C10.5916 19.8509 10.8299 19.8469 11.0682 19.8509C11.1476 19.8509 11.1556 19.8231 11.1436 19.7595C11.0722 19.3664 10.7505 19.0923 10.3613 19.0884C9.96815 19.0844 9.63456 19.3584 9.5591 19.7476C9.54322 19.8191 9.54719 19.8548 9.63853 19.8548Z" fill="#2B3D4F"/>
<path d="M11.8306 18.719C11.9497 18.723 12.0689 18.727 12.188 18.719C12.2794 18.7111 12.3111 18.7508 12.3389 18.8302C12.5772 19.5133 12.8155 20.2003 13.0657 20.9072C13.0855 20.8476 13.0974 20.8119 13.1094 20.7801C13.3397 20.1209 13.57 19.4616 13.7964 18.7984C13.8162 18.7428 13.8361 18.719 13.8996 18.719C14.0426 18.723 14.1856 18.723 14.3246 18.719C14.404 18.715 14.404 18.7428 14.3802 18.8064C14.3127 18.9771 14.2451 19.1519 14.1816 19.3226C13.9274 19.9858 13.6772 20.6451 13.4231 21.3083C13.4072 21.348 13.4032 21.3956 13.3357 21.3917C13.1689 21.3877 13.0061 21.3877 12.8393 21.3917C12.7956 21.3917 12.7758 21.3758 12.7599 21.3361C12.4342 20.4862 12.1126 19.6364 11.7869 18.7865C11.7631 18.7349 11.7671 18.715 11.8306 18.719Z" fill="#2B3D4F"/>
<path d="M15.4085 18.7467C15.4085 18.703 15.4244 18.6911 15.468 18.6911C15.6587 18.6832 15.8334 18.7268 15.9922 18.838C16.1511 18.9532 16.2702 19.1001 16.3854 19.263C16.3854 19.1041 16.3894 18.9492 16.3854 18.7904C16.3854 18.7348 16.4013 18.7149 16.4569 18.7149C16.584 18.7189 16.715 18.7189 16.8421 18.7149C16.8977 18.7149 16.9136 18.7308 16.9136 18.7864C16.9136 19.6283 16.9136 20.4742 16.9136 21.3161C16.9136 21.3677 16.9017 21.3836 16.8461 21.3836C16.711 21.3796 16.576 21.3796 16.441 21.3836C16.3655 21.3876 16.3417 21.3677 16.3417 21.2883C16.3457 20.8395 16.3338 20.3868 16.3497 19.9381C16.3576 19.7077 16.2543 19.5529 16.0915 19.4258C15.9128 19.2828 15.6984 19.2272 15.476 19.2034C15.4363 19.1994 15.4085 19.2034 15.4085 19.1478C15.4124 19.0207 15.4085 18.8817 15.4085 18.7467Z" fill="#2B3D4F"/>
<path d="M14.6186 20.0494C14.6186 19.6324 14.6186 19.2154 14.6186 18.8024C14.6186 18.7468 14.6265 18.719 14.694 18.719C14.837 18.723 14.98 18.723 15.1189 18.719C15.1785 18.719 15.1904 18.7389 15.1904 18.7944C15.1904 19.6364 15.1904 20.4783 15.1904 21.3202C15.1904 21.3797 15.1706 21.3917 15.115 21.3917C14.98 21.3877 14.8449 21.3837 14.7099 21.3917C14.6345 21.3956 14.6186 21.3718 14.6186 21.2963C14.6186 20.8794 14.6186 20.4624 14.6186 20.0494Z" fill="#2B3D4F"/>
</svg>
