<svg width="61" height="61" viewBox="0 0 61 61" fill="none" xmlns="http://www.w3.org/2000/svg">
<g filter="url(#filter0_d_161_1426)">
<rect x="10.5" y="10.2119" width="40" height="40" rx="10" fill="white" shape-rendering="crispEdges"/>
<path d="M36.0107 31.7379C35.5907 32.1479 35.3507 32.7379 35.4107 33.3679C35.5007 34.4479 36.4907 35.2379 37.5707 35.2379H39.4707V36.4279C39.4707 38.4979 37.7807 40.1879 35.7107 40.1879H24.2307C22.1607 40.1879 20.4707 38.4979 20.4707 36.4279V29.6979C20.4707 27.6279 22.1607 25.9379 24.2307 25.9379H35.7107C37.7807 25.9379 39.4707 27.6279 39.4707 29.6979V31.1379H37.4507C36.8907 31.1379 36.3807 31.3579 36.0107 31.7379Z" stroke="black" stroke-width="1.5" stroke-linecap="round" stroke-linejoin="round"/>
<path d="M20.4707 30.598V26.028C20.4707 24.838 21.2007 23.778 22.3107 23.358L30.2507 20.358C30.5384 20.2495 30.8481 20.2126 31.1532 20.2502C31.4583 20.2878 31.7498 20.3989 32.0025 20.574C32.2553 20.749 32.4617 20.9828 32.6042 21.2552C32.7468 21.5276 32.821 21.8305 32.8207 22.138V25.938M24.9707 30.188H31.9707M40.5297 32.158V34.218C40.5297 34.768 40.0897 35.218 39.5297 35.238H37.5697C36.4897 35.238 35.4997 34.448 35.4097 33.368C35.3497 32.738 35.5897 32.148 36.0097 31.738C36.3797 31.358 36.8897 31.138 37.4497 31.138H39.5297C40.0897 31.158 40.5297 31.608 40.5297 32.158Z" stroke="black" stroke-width="1.5" stroke-linecap="round" stroke-linejoin="round"/>
</g>
<defs>
<filter id="filter0_d_161_1426" x="0.5" y="0.211914" width="60" height="60" filterUnits="userSpaceOnUse" color-interpolation-filters="sRGB">
<feFlood flood-opacity="0" result="BackgroundImageFix"/>
<feColorMatrix in="SourceAlpha" type="matrix" values="0 0 0 0 0 0 0 0 0 0 0 0 0 0 0 0 0 0 127 0" result="hardAlpha"/>
<feOffset/>
<feGaussianBlur stdDeviation="5"/>
<feComposite in2="hardAlpha" operator="out"/>
<feColorMatrix type="matrix" values="0 0 0 0 0 0 0 0 0 0 0 0 0 0 0 0 0 0 0.25 0"/>
<feBlend mode="normal" in2="BackgroundImageFix" result="effect1_dropShadow_161_1426"/>
<feBlend mode="normal" in="SourceGraphic" in2="effect1_dropShadow_161_1426" result="shape"/>
</filter>
</defs>
</svg>
