<svg width="21" height="21" viewBox="0 0 21 21" fill="none" xmlns="http://www.w3.org/2000/svg">
<path d="M18.4912 5.19141H2.49121C1.38664 5.19141 0.491211 6.08684 0.491211 7.19141V17.1914C0.491211 18.296 1.38664 19.1914 2.49121 19.1914H18.4912C19.5958 19.1914 20.4912 18.296 20.4912 17.1914V7.19141C20.4912 6.08684 19.5958 5.19141 18.4912 5.19141Z" fill="#AAAAAA"/>
<path d="M14.4912 19.1914V3.19141C14.4912 2.66097 14.2805 2.15227 13.9054 1.77719C13.5304 1.40212 13.0216 1.19141 12.4912 1.19141H8.49121C7.96078 1.19141 7.45207 1.40212 7.077 1.77719C6.70193 2.15227 6.49121 2.66097 6.49121 3.19141V19.1914" stroke="#AAAAAA" stroke-width="2" stroke-linecap="round" stroke-linejoin="round"/>
</svg>
