<svg width="14" height="14" viewBox="0 0 14 14" fill="none" xmlns="http://www.w3.org/2000/svg">
<path d="M6.9994 1C5.40861 1 3.88299 1.63214 2.75813 2.75736C1.63328 3.88258 1.00134 5.4087 1.00134 7C0.996143 7.19037 1.00605 7.38085 1.03098 7.56965C1.14131 8.72691 1.58535 9.82719 2.30912 10.7367C3.03288 11.6463 4.0052 12.3259 5.10787 12.693C6.21054 13.0601 7.39608 13.0989 8.52036 12.8046C9.64464 12.5103 10.6592 11.8956 11.4408 11.0353C12.2224 10.175 12.7373 9.10603 12.923 7.95844C13.1086 6.81086 12.957 5.63404 12.4865 4.57105C12.0161 3.50805 11.247 2.60466 10.2729 1.9707C9.29879 1.33674 8.16153 0.999508 6.9994 1ZM6.9994 1.85694C8.3537 1.85807 9.65284 2.39382 10.6145 3.34777V3.77624C8.9214 3.19322 7.0809 3.20068 5.39262 3.79741C5.25775 3.66601 5.08846 3.57547 4.90431 3.53624H4.79846C4.74695 3.35624 4.69967 3.17624 4.66157 2.992C4.62346 2.80777 4.60159 2.64471 4.58042 2.46965C5.32388 2.06829 6.15529 1.85777 7.0001 1.85694H6.9994ZM5.71511 4.372C7.27063 3.85092 8.95648 3.87057 10.4994 4.42777C10.2902 5.51512 9.8344 6.53998 9.16716 7.42353C8.98042 7.34443 8.77369 7.32545 8.57567 7.36921C8.37765 7.41298 8.19816 7.51732 8.06211 7.66777C7.91356 7.58741 7.77047 7.49733 7.63378 7.39812C6.76927 6.82111 6.04729 6.05496 5.52246 5.15765C5.60722 5.05243 5.66892 4.93057 5.70356 4.79997C5.73821 4.66937 5.74503 4.53294 5.72358 4.39953L5.71511 4.372ZM4.00249 2.82965C4.00846 2.92206 4.02287 3.01374 4.04553 3.10353C4.08434 3.292 4.13515 3.47624 4.18666 3.66047C4.02257 3.75762 3.8905 3.90069 3.80674 4.07203C3.72297 4.24338 3.69118 4.4355 3.71529 4.62471C3.03899 5.06626 2.4349 5.6096 1.92434 6.23553C2.02638 5.55794 2.26278 4.9076 2.61966 4.32271C2.97654 3.73782 3.44669 3.23019 4.00249 2.82965ZM4.00249 9.56024C3.83469 9.61652 3.68479 9.71625 3.56804 9.84929C3.45128 9.98233 3.37183 10.1439 3.33776 10.3176H3.06326C2.3717 9.49248 1.95807 8.47005 1.88129 7.396L1.92857 7.31482C2.46456 6.48138 3.16587 5.76687 3.98908 5.21553C4.11237 5.34449 4.26826 5.43765 4.44021 5.48512C4.61215 5.5326 4.79375 5.53262 4.9657 5.48518C5.53856 6.4535 6.3216 7.2807 7.25696 7.90565C7.43267 8.02141 7.60979 8.12871 7.79255 8.23106C7.77808 8.39496 7.8045 8.5599 7.86947 8.71106C7.08571 9.33375 6.18164 9.7875 5.21409 10.0438C5.10172 9.83328 4.91797 9.66979 4.69588 9.58271C4.47378 9.49563 4.22791 9.49066 4.00249 9.56871V9.56024ZM7.00081 12.1311C6.12981 12.1311 5.27328 11.9083 4.51267 11.4838L4.63263 11.4584C4.80305 11.4025 4.95535 11.3019 5.07363 11.167C5.19192 11.0322 5.27186 10.868 5.30512 10.6918C6.40034 10.4125 7.42284 9.9012 8.30345 9.19247C8.51259 9.31478 8.75958 9.35534 8.99684 9.30634C9.2341 9.25734 9.44483 9.12223 9.58844 8.92706C10.1927 9.08423 10.8143 9.16486 11.4387 9.16706H11.6659C11.2526 10.0559 10.594 10.808 9.76755 11.3347C8.94115 11.8615 7.98144 12.141 7.00151 12.1402L7.00081 12.1311ZM9.78885 8.3193C9.78847 8.13981 9.73971 7.96375 9.64771 7.80965C10.3606 6.87836 10.8567 5.79967 11.1 4.65224C11.314 4.752 11.5257 4.86329 11.735 4.98612C12.2061 6.09959 12.2698 7.3435 11.915 8.49929C11.2049 8.55391 10.4907 8.49746 9.79802 8.332L9.78885 8.3193Z" fill="white" stroke="white" stroke-width="0.4"/>
</svg>
