<svg width="58" height="59" viewBox="0 0 58 59" fill="none" xmlns="http://www.w3.org/2000/svg">
<path d="M36.5462 19.2565C36.5217 20.0139 36.6032 20.9587 36.5054 21.8871C36.2611 24.3223 35.1209 26.2444 33.1336 27.6534C32.4169 28.1665 31.6269 28.5248 30.7717 28.7529C30.6414 28.7855 30.6089 28.8425 30.6089 28.9728C30.617 30.3248 30.6089 31.6686 30.6089 33.0206C30.6089 34.1282 29.77 34.9997 28.6949 34.9997C27.571 34.9997 26.7077 34.1527 26.6995 33.0287C26.6995 31.6849 26.6914 30.3411 26.6995 28.9972C26.6995 28.8343 26.6506 28.7855 26.504 28.7366C23.4092 27.7511 21.5359 25.6661 20.8762 22.4817C20.7866 22.05 20.7622 21.6102 20.7622 21.1704C20.7622 19.6881 20.7622 18.1977 20.7622 16.7154C20.7622 15.7706 21.3323 15.0132 22.1956 14.7689C23.4743 14.4187 24.6797 15.3553 24.6797 16.7235C24.6878 18.214 24.6797 19.7044 24.6797 21.203C24.6797 23.2472 26.3167 24.9902 28.361 25.1205C30.7066 25.2671 32.6205 23.4671 32.6205 21.1053C32.6205 19.623 32.6205 18.1488 32.6205 16.6665C32.6205 15.5752 33.492 14.6956 34.5752 14.6956C35.6584 14.6956 36.5217 15.5752 36.5217 16.6747C36.5462 17.481 36.5462 18.2791 36.5462 19.2565Z" fill="#2B3D4F"/>
<path d="M30.6416 1.77032C30.6416 1.18392 31.1384 0.73597 31.7248 0.792982C34.0134 1.03732 36.245 1.55042 38.4114 2.32414C41.2457 3.3422 43.8682 4.77562 46.2627 6.61627C49.5693 9.15734 52.1918 12.2767 54.1546 15.9498C55.5799 18.6212 56.5491 21.4555 57.0866 24.4363C57.1844 24.9657 57.2414 25.4951 57.3228 26.0245C57.3961 26.5295 57.0215 27.0426 56.5328 27.1077C55.9546 27.1892 55.4659 26.839 55.3926 26.2933C55.246 25.096 55.0261 23.9151 54.7166 22.7504C53.7719 19.1506 52.1511 15.8847 49.8462 12.9689C46.6536 8.92115 42.6384 5.98914 37.7924 4.19736C35.9925 3.52952 34.1274 3.08972 32.2298 2.82095C31.9854 2.78837 31.733 2.76394 31.4805 2.73136C30.9918 2.67435 30.6416 2.26713 30.6416 1.77032Z" fill="#47A7DD"/>
<path d="M31.6518 58.2114C31.1387 58.2277 30.6989 57.8612 30.65 57.3725C30.593 56.8268 30.9188 56.3544 31.4563 56.2893C32.3522 56.1671 33.2562 56.045 34.144 55.8576C37.7112 55.1083 40.9935 53.6831 43.9825 51.5981C47.7859 48.9348 50.7342 45.5223 52.8111 41.3687C54.049 38.8846 54.8797 36.2702 55.2788 33.5255C55.3195 33.2568 55.3521 32.988 55.3928 32.7192C55.4661 32.198 55.9467 31.8234 56.4598 31.8804C56.9973 31.9455 57.3801 32.4179 57.3231 32.9473C56.9647 36.0422 56.1014 38.9986 54.7739 41.8166C53.2671 45.0011 51.2555 47.8272 48.7144 50.2705C45.3589 53.4957 41.4495 55.7762 37.0027 57.1363C35.3249 57.6494 33.6064 57.9915 31.8554 58.1951C31.7902 58.2032 31.7251 58.2032 31.6518 58.2114Z" fill="#2B3D4F"/>
<path d="M0.00207803 26.0815C0.0672337 25.4544 0.173112 24.7947 0.295278 24.135C0.79209 21.488 1.64726 18.9551 2.85264 16.5443C4.08245 14.101 5.62175 11.8776 7.47869 9.86587C9.84872 7.30851 12.5934 5.24797 15.7127 3.68423C18.376 2.34854 21.1858 1.4608 24.126 0.988418C24.3214 0.95584 24.5169 0.931406 24.7124 0.906973C25.3069 0.825529 25.7956 1.17574 25.877 1.74585C25.9503 2.29153 25.5675 2.77205 24.9811 2.84535C23.8898 2.99195 22.8065 3.21185 21.7396 3.48877C18.0095 4.47424 14.6458 6.18458 11.6649 8.61977C7.56013 11.9834 4.69328 16.1941 3.0481 21.2355C2.51871 22.8644 2.15221 24.5422 1.95675 26.2444C1.89159 26.7738 1.45994 27.1565 0.946835 27.124C0.384867 27.0914 -0.00606643 26.676 0.00207803 26.0815Z" fill="#F2B917"/>
<path d="M0.00195312 32.8984C0.00195312 32.3446 0.401031 31.9129 0.922276 31.8803C1.44352 31.8478 1.89147 32.2224 1.94848 32.7518C2.31498 35.8222 3.18643 38.738 4.5547 41.5071C5.61348 43.6409 6.93288 45.5956 8.51291 47.3711C10.8504 50.0099 13.6032 52.1112 16.7714 53.6667C19.1414 54.8314 21.6336 55.6296 24.248 56.0612C24.5005 56.1019 24.7529 56.1508 25.0136 56.1752C25.5592 56.2404 25.9502 56.7209 25.8932 57.2503C25.8362 57.796 25.3393 58.1869 24.7855 58.1136C21.7151 57.6901 18.7831 56.8186 15.9977 55.4585C13.3018 54.1391 10.8667 52.4532 8.70837 50.3764C4.50584 46.3286 1.7693 41.4664 0.49062 35.7815C0.287009 34.8612 0.132264 33.9327 0.0100976 33.0043C0.00195312 32.9554 0.00195312 32.9065 0.00195312 32.8984Z" fill="#3F78B9"/>
<path d="M27.9701 37.6304C27.9701 37.4593 27.9701 37.2883 27.9701 37.1254C27.9701 37.0358 27.9945 37.0032 28.0841 37.0032C28.3936 37.0032 28.7112 37.0032 29.0207 37.0032C29.1103 37.0032 29.1429 37.0358 29.1347 37.1254C29.1347 37.4675 29.1266 37.8177 29.1347 38.1597C29.1347 38.2656 29.0859 38.2819 28.9963 38.2819C28.6949 38.2819 28.4017 38.2738 28.1004 38.2819C27.9945 38.2819 27.9538 38.2493 27.9619 38.1435C27.9701 37.9724 27.9701 37.8014 27.9701 37.6304Z" fill="#2B3D4F"/>
<path d="M20.4933 37.2475C19.5485 37.2068 18.5956 37.2394 17.6427 37.2231C17.4636 37.2231 17.431 37.2801 17.4391 37.443C17.4473 38.6076 17.4391 39.7723 17.4391 40.9451C17.4391 42.1179 17.4391 43.2907 17.4391 44.4635C17.4391 44.6101 17.4636 44.6671 17.6264 44.659C17.8545 44.6427 18.0907 44.659 18.3187 44.6508C19.1169 44.6345 19.9232 44.716 20.7132 44.6101C21.8697 44.4554 22.7493 43.8852 23.2868 42.8265C23.7103 41.9876 23.7674 41.0998 23.6452 40.1877C23.4253 38.5343 22.1548 37.3208 20.4933 37.2475ZM22 42.6717C21.5358 43.3477 20.8516 43.6083 20.0535 43.6083C19.6381 43.6083 19.2228 43.6002 18.8155 43.6083C18.6689 43.6083 18.6201 43.5758 18.6201 43.421C18.6282 42.5903 18.6201 41.7514 18.6201 40.9207C18.6201 40.0899 18.6201 39.2673 18.6201 38.4366C18.6201 38.2982 18.6445 38.2493 18.7992 38.2574C19.3368 38.2737 19.8743 38.2167 20.4037 38.29C21.4625 38.4285 22.1548 39.0393 22.3991 40.0899C22.6108 40.994 22.5457 41.8817 22 42.6717Z" fill="#2B3D4F"/>
<path d="M40.6429 41.2954C40.3497 39.919 39.2909 39.0801 37.8656 39.0801C36.6928 39.0801 35.7237 39.7236 35.2839 40.7823C34.8359 41.8574 35.0558 43.1442 35.8458 43.9342C36.644 44.7324 37.6132 44.9116 38.6801 44.6672C39.3724 44.5125 39.9262 44.1216 40.2927 43.4944C40.3497 43.3886 40.3578 43.3397 40.2194 43.299C39.9669 43.242 39.7226 43.1687 39.4782 43.0872C39.3968 43.0628 39.3642 43.0791 39.3235 43.1524C38.9489 43.7388 38.281 44.0075 37.605 43.8691C36.9535 43.7306 36.4159 43.1361 36.3182 42.4764C36.2938 42.3379 36.3263 42.2891 36.4811 42.2972C37.1489 42.3053 37.8249 42.2972 38.4928 42.2972C39.1688 42.2972 39.8447 42.2972 40.5289 42.2972C40.651 42.2972 40.6918 42.2646 40.7081 42.1425C40.7081 41.8655 40.6999 41.5805 40.6429 41.2954ZM39.3479 41.5072C38.8593 41.4909 38.3706 41.499 37.8819 41.499C37.3933 41.499 36.9046 41.4909 36.4159 41.499C36.253 41.499 36.2368 41.442 36.2612 41.3117C36.4078 40.5054 37.0675 39.9435 37.8656 39.9353C38.6719 39.9272 39.3561 40.4891 39.5108 41.2873C39.5434 41.4339 39.5353 41.5072 39.3479 41.5072Z" fill="#2B3D4F"/>
<path d="M34.8524 39.1778C34.6081 39.186 34.3638 39.1941 34.1194 39.1778C33.9321 39.1615 33.8669 39.243 33.8099 39.4059C33.3213 40.8067 32.8326 42.2157 32.3195 43.6654C32.2788 43.5433 32.2543 43.47 32.2299 43.4048C31.7575 42.0528 31.2851 40.7008 30.8209 39.3407C30.7802 39.2267 30.7395 39.1778 30.6092 39.1778C30.316 39.186 30.0228 39.186 29.7377 39.1778C29.5748 39.1697 29.5748 39.2267 29.6237 39.357C29.7621 39.7072 29.9006 40.0656 30.0309 40.4158C30.5521 41.7759 31.0652 43.1279 31.5865 44.488C31.6191 44.5695 31.6272 44.6672 31.7657 44.659C32.1077 44.6509 32.4417 44.6509 32.7837 44.659C32.8733 44.659 32.914 44.6265 32.9466 44.545C33.6145 42.8021 34.2742 41.0592 34.942 39.3163C34.9909 39.2104 34.9827 39.1697 34.8524 39.1778Z" fill="#2B3D4F"/>
<path d="M27.514 39.2348C27.514 39.1453 27.4814 39.1208 27.3918 39.1208C27.0009 39.1045 26.6425 39.1941 26.3168 39.4222C25.991 39.6584 25.7466 39.9597 25.5105 40.2936C25.5105 39.9678 25.5023 39.6502 25.5105 39.3244C25.5105 39.2104 25.4779 39.1697 25.3639 39.1697C25.1032 39.1778 24.8345 39.1778 24.5738 39.1697C24.4598 39.1697 24.4272 39.2023 24.4272 39.3163C24.4272 41.0429 24.4272 42.7777 24.4272 44.5043C24.4272 44.6102 24.4517 44.6428 24.5657 44.6428C24.8426 44.6346 25.1195 44.6346 25.3964 44.6428C25.5512 44.6509 25.6 44.6102 25.6 44.4473C25.5919 43.527 25.6163 42.5985 25.5838 41.6782C25.5675 41.2058 25.7792 40.8882 26.1131 40.6275C26.4796 40.3343 26.9195 40.2203 27.3755 40.1715C27.457 40.1633 27.514 40.1715 27.514 40.0574C27.5058 39.7968 27.514 39.5118 27.514 39.2348Z" fill="#2B3D4F"/>
<path d="M29.1347 41.9062C29.1347 41.0511 29.1347 40.1959 29.1347 39.3489C29.1347 39.2349 29.1184 39.1779 28.98 39.1779C28.6868 39.186 28.3936 39.186 28.1085 39.1779C27.9863 39.1779 27.9619 39.2186 27.9619 39.3326C27.9619 41.0592 27.9619 42.7858 27.9619 44.5125C27.9619 44.6346 28.0026 44.6591 28.1167 44.6591C28.3936 44.6509 28.6705 44.6428 28.9474 44.6591C29.1021 44.6672 29.1347 44.6184 29.1347 44.4636C29.1347 43.6084 29.1347 42.7533 29.1347 41.9062Z" fill="#2B3D4F"/>
</svg>
