<svg width="27" height="27" viewBox="0 0 27 27" fill="none" xmlns="http://www.w3.org/2000/svg">
<path d="M13.1569 26.3139C20.4233 26.3139 26.3139 20.4233 26.3139 13.1569C26.3139 5.89056 20.4233 0 13.1569 0C5.89056 0 0 5.89056 0 13.1569C0 20.4233 5.89056 26.3139 13.1569 26.3139Z" fill="#FF0000"/>
<path d="M13.1569 0.751825C10.7035 0.751903 8.30517 1.47949 6.26523 2.84259C4.22529 4.20568 2.63536 6.14307 1.69648 8.40976C0.757598 10.6764 0.511936 13.1706 0.990558 15.5769C1.46918 17.9832 2.65059 20.1936 4.38539 21.9285C5.53448 23.0931 6.90259 24.0189 8.41094 24.6525C9.9193 25.2862 11.5381 25.6153 13.1741 25.6207C14.8102 25.6262 16.4312 25.308 17.9437 24.6845C19.4563 24.0609 20.8306 23.1443 21.9874 21.9874C23.1443 20.8306 24.0609 19.4563 24.6845 17.9437C25.308 16.4312 25.6262 14.8102 25.6207 13.1741C25.6153 11.5381 25.2862 9.9193 24.6525 8.41094C24.0189 6.90259 23.0931 5.53448 21.9285 4.38539C20.7793 3.22985 19.4123 2.31371 17.9067 1.69001C16.401 1.06631 14.7866 0.747427 13.1569 0.751825ZM13.1569 0C15.7591 0 18.3029 0.771641 20.4665 2.21734C22.6302 3.66305 24.3165 5.71788 25.3124 8.12199C26.3082 10.5261 26.5687 13.1715 26.0611 15.7237C25.5534 18.2759 24.3003 20.6203 22.4603 22.4603C20.6203 24.3003 18.2759 25.5534 15.7237 26.0611C13.1715 26.5687 10.5261 26.3082 8.12199 25.3124C5.71788 24.3165 3.66305 22.6302 2.21734 20.4665C0.771641 18.3029 0 15.7591 0 13.1569C0 9.6675 1.38617 6.32098 3.85358 3.85358C6.32098 1.38617 9.6675 0 13.1569 0Z" fill="white"/>
<path fill-rule="evenodd" clip-rule="evenodd" d="M12.1578 15.1604V11.5645L15.6697 13.3688L12.1578 15.1604ZM19.87 10.9419C19.87 10.9419 19.7432 10.0596 19.3532 9.67119C18.8592 9.16188 18.3048 9.15932 18.0506 9.12925C16.2319 9 13.5026 9 13.5026 9H13.4974C13.4974 9 10.7687 9 8.94935 9.12925C8.6952 9.15932 8.1414 9.16124 7.64675 9.67119C7.25675 10.0596 7.13 10.9419 7.13 10.9419C7.13 10.9419 7 11.9772 7 13.0131V13.9837C7 15.019 7.13 16.0549 7.13 16.0549C7.13 16.0549 7.25675 16.9366 7.64675 17.325C8.14075 17.8349 8.79075 17.8183 9.08 17.872C10.12 17.9699 13.5 18 13.5 18C13.5 18 16.2319 17.9962 18.0506 17.8669C18.3048 17.8368 18.8592 17.8349 19.3532 17.325C19.7432 16.9366 19.87 16.0549 19.87 16.0549C19.87 16.0549 20 15.019 20 13.9837V13.0131C20 11.9772 19.87 10.9419 19.87 10.9419Z" fill="white"/>
</svg>
